<?xml version="1.0" encoding="utf-8"?>
<!-- Generator: Adobe Illustrator 22.1.0, SVG Export Plug-In . SVG Version: 6.00 Build 0)  -->
<svg version="1.1" id="图层_1" xmlns="http://www.w3.org/2000/svg" xmlns:xlink="http://www.w3.org/1999/xlink" x="0px" y="0px"
	 viewBox="0 0 32 30" style="enable-background:new 0 0 32 30;" xml:space="preserve">
<title>icon/iot/严重超期</title>
<desc>Created with Sketch.</desc>
<g id="蒙版">
	<path id="Fill-1" d="M15.1,17.2V22h1.9v-4.8c0-0.3-0.1-0.5-0.3-0.7C16.1,15.9,15.1,16.4,15.1,17.2"/>
	<path id="Fill-3" d="M13.2,22v-4.8c0-1.6,1.3-2.9,2.8-2.9c1.5,0,2.8,1.3,2.8,2.9V22h5.8c-0.7-4.1-1.4-8.3-2.1-12.4
		c-0.2-1.4-1.4-2.4-2.8-2.4h-7.6c-1.4,0-2.5,1-2.8,2.4C8.8,13.8,8.1,17.9,7.4,22H13.2L13.2,22z"/>
	<path id="Fill-5" d="M30.1,28.1h-2v-3.2c0-0.5-0.4-1-0.9-1H4.8c-0.5,0-0.9,0.4-0.9,1v3.2h-2c-0.5,0-0.9,0.4-0.9,1
		c0,0.5,0.4,1,0.9,1h28.2c0.5,0,0.9-0.4,0.9-1C31.1,28.5,30.6,28.1,30.1,28.1"/>
	<path id="Fill-7" d="M3.2,17.2c0.5,0,0.9-0.4,0.9-1c0-0.5-0.4-1-0.9-1H0.9c-0.5,0-0.9,0.4-0.9,1c0,0.5,0.4,1,0.9,1H3.2z"/>
	<path id="Fill-9" d="M31.1,15.3h-2.3c-0.5,0-0.9,0.4-0.9,1c0,0.5,0.4,1,0.9,1h2.3c0.5,0,0.9-0.4,0.9-1C32,15.7,31.6,15.3,31.1,15.3
		"/>
	<path id="Fill-11" d="M16,4.3c0.5,0,0.9-0.4,0.9-1V1c0-0.5-0.4-1-0.9-1s-0.9,0.4-0.9,1v2.3C15.1,3.8,15.5,4.3,16,4.3"/>
	<path id="Fill-13" d="M6.3,7.8C6.5,8,6.7,8,7,8C7.2,8,7.5,8,7.6,7.8c0.4-0.4,0.4-1,0-1.3L6,4.8c-0.4-0.4-1-0.4-1.3,0s-0.4,1,0,1.3
		L6.3,7.8z"/>
	<path id="Fill-15" d="M25,8c0.2,0,0.5-0.1,0.7-0.3l1.6-1.7c0.4-0.4,0.4-1,0-1.3c-0.4-0.4-1-0.4-1.3,0l-1.6,1.7
		c-0.4,0.4-0.4,1,0,1.3C24.5,7.9,24.8,8,25,8"/>
</g>
</svg>
