<?xml version="1.0" standalone="no"?><!DOCTYPE svg PUBLIC "-//W3C//DTD SVG 1.1//EN" "http://www.w3.org/Graphics/SVG/1.1/DTD/svg11.dtd"><svg t="1565946072822" class="icon" viewBox="0 0 1024 1024" version="1.1" xmlns="http://www.w3.org/2000/svg" p-id="2479" xmlns:xlink="http://www.w3.org/1999/xlink" width="128" height="128"><defs><style type="text/css"></style></defs><path d="M217.41154701 511.77119342c0-0.00536267 0-0.01072531 0-0.0143004 0-16.33285616 6.8445339-31.06585391 17.82188638-41.48906549l474.79864899-449.1705261c10.22479339-9.67959026 24.0675906-15.62856095 39.29752761-15.63034852 31.60033175 0 57.21594177 25.61561002 57.21594176 57.21594178 0 16.36860718-6.87313472 31.13199331-17.89160088 41.56056755l-430.98397925 407.64213447 430.95716599 407.96210617c11.02025372 10.46611282 17.87730049 25.22771139 17.87730047 41.58916836 0 15.22278679-5.93467029 29.05843381-15.61604809 39.32255333-21.70981045 22.85205572-57.97743861 23.88168527-80.85630761 2.25946484l-474.77362327-449.60490107c-11.0023782-10.44644976-17.8469121-25.17944751-17.8469121-41.51230366 0-0.04468878 0-0.09116511 0-0.1358539z" p-id="2480"></path></svg>