<?xml version="1.0" encoding="utf-8"?>
<!-- Generator: Adobe Illustrator 22.1.0, SVG Export Plug-In . SVG Version: 6.00 Build 0)  -->
<svg version="1.1" id="图层_1" xmlns="http://www.w3.org/2000/svg" xmlns:xlink="http://www.w3.org/1999/xlink" x="0px" y="0px"
	 viewBox="0 0 26 11" style="enable-background:new 0 0 26 11;" xml:space="preserve">
<style type="text/css">
	.st0{fill:#434347;}
</style>
<title>icon/iot/FTU</title>
<desc>Created with Sketch.</desc>
<path id="path-1_1_" class="st0" d="M0,0h7.4v1.8H2.2v2.4h4.6V6H2.2v4.4H0V0z M16.4,0v1.8h-3.1v8.6h-2.2V1.8H8V0H16.4z M17.6,0h2.2
	v6.4c0,0.7,0.1,1.2,0.3,1.6c0.3,0.6,0.8,0.9,1.7,0.9c0.9,0,1.5-0.3,1.7-0.9c0.2-0.3,0.3-0.9,0.3-1.6V0H26v6.4c0,1.1-0.2,2-0.5,2.6
	c-0.6,1.1-1.9,1.7-3.7,1.7s-3-0.6-3.7-1.7c-0.3-0.6-0.5-1.5-0.5-2.6V0z"/>
</svg>
