<?xml version="1.0" encoding="UTF-8"?>
<svg width="457px" height="244px" viewBox="0 0 457 244" version="1.1" xmlns="http://www.w3.org/2000/svg" xmlns:xlink="http://www.w3.org/1999/xlink">
    <!-- Generator: Sketch 55.2 (78181) - https://sketchapp.com -->
    <title>蒙版</title>
    <desc>Created with Sketch.</desc>
    <g id="Symbols" stroke="none" stroke-width="1" fill="none" fill-rule="evenodd">
        <g id="icon/iot/PM25" fill="#000000">
            <g id="矩形">
                <g id="蒙版">
                    <path d="M385.6221,173.1872 L385.6221,44.6162 C418.2081,47.8862 443.7331,75.4672 443.7331,108.9032 C443.7331,142.3352 418.2081,169.9162 385.6221,173.1872 L385.6221,173.1872 Z M372.6231,193.4462 C354.6461,200.8012 279.1431,230.3992 228.3671,230.3992 C191.7451,230.3992 142.2651,215.0032 110.7781,203.6612 L110.7781,161.9342 C132.8161,168.0232 192.8961,183.6682 228.3671,183.6682 C263.8381,183.6682 323.9171,168.0232 345.9561,161.9342 L345.9561,177.1602 C345.9561,180.7492 348.8661,183.6602 352.4561,183.6602 C356.0461,183.6602 358.9561,180.7492 358.9561,177.1602 L358.9561,153.4652 L358.9561,153.4322 L358.9561,23.9732 C364.6311,24.6732 369.3021,25.2702 372.6231,25.7002 L372.6231,193.4462 L372.6231,193.4462 Z M84.1111,25.7012 C87.4321,25.2702 92.1021,24.6742 97.7781,23.9732 L97.7781,153.4312 L97.7781,153.4632 L97.7781,198.8372 C91.8431,196.5722 87.1521,194.6902 84.1111,193.4462 L84.1111,25.7012 Z M13.0001,108.9002 C13.0001,75.4672 38.5261,47.8862 71.1111,44.6162 L71.1111,173.1872 C38.5261,169.9162 13.0001,142.3342 13.0001,108.9002 L13.0001,108.9002 Z M345.9561,22.4042 L345.9561,57.9402 L110.7781,57.9402 L110.7781,22.4032 C144.3131,18.4442 196.2661,12.9982 228.3671,12.9982 C260.4621,12.9992 312.4191,18.4452 345.9561,22.4042 L345.9561,22.4042 Z M110.7781,116.3882 C131.9691,119.3282 192.8101,127.3152 228.3671,127.3152 C263.9241,127.3152 324.7651,119.3282 345.9561,116.3882 L345.9561,148.4302 C328.1541,153.4082 263.8551,170.6682 228.3671,170.6682 C192.8951,170.6682 128.5831,153.4082 110.7781,148.4302 L110.7781,116.3882 Z M345.9561,103.2572 C326.9351,105.9032 263.6871,114.3152 228.3671,114.3152 C193.0461,114.3152 129.7981,105.9032 110.7781,103.2572 L110.7781,70.9412 L345.9561,70.9412 L345.9561,103.2572 Z M456.7331,108.9002 C456.7331,68.2962 425.3841,34.8982 385.6221,31.5822 L385.6221,20.0012 C385.6221,16.7492 383.2181,13.9972 379.9961,13.5602 C378.7681,13.3942 369.1961,12.1032 355.0271,10.3792 C354.2381,10.0392 353.3701,9.8492 352.4561,9.8492 C352.0971,9.8492 351.7481,9.8862 351.4051,9.9422 C317.9271,5.9202 262.8081,0.0002 228.3671,0.0002 C193.9261,0.0002 138.8071,5.9192 105.3291,9.9422 C104.9861,9.8862 104.6371,9.8492 104.2781,9.8492 C103.3651,9.8492 102.4961,10.0392 101.7071,10.3792 C87.5371,12.1032 77.9641,13.3942 76.7381,13.5602 C73.5151,13.9972 71.1121,16.7482 71.1121,20.0012 L71.1121,31.5822 C31.3491,34.8972 0.0001,68.2962 0.0001,108.9032 C0.0001,149.5062 31.3491,182.9052 71.1111,186.2212 L71.1111,197.7822 C71.1111,200.3792 72.6581,202.7282 75.0451,203.7532 C76.2011,204.2502 85.4121,208.1802 99.3571,213.3832 C100.5491,214.7662 102.3091,215.6452 104.2781,215.6452 C104.6161,215.6452 104.9461,215.6112 105.2711,215.5622 C137.4721,227.2602 189.0291,243.4002 228.3671,243.4002 C288.7441,243.4002 377.9221,205.3742 381.6891,203.7542 C384.0761,202.7302 385.6231,200.3802 385.6231,197.7832 L385.6231,186.2222 C425.3851,182.9062 456.7331,149.5062 456.7331,108.9002 L456.7331,108.9002 Z" id="Fill-1"></path>
                </g>
            </g>
        </g>
    </g>
</svg>