<?xml version="1.0" encoding="utf-8"?>
<!-- Generator: Adobe Illustrator 22.1.0, SVG Export Plug-In . SVG Version: 6.00 Build 0)  -->
<svg version="1.1" id="图层_1" xmlns="http://www.w3.org/2000/svg" xmlns:xlink="http://www.w3.org/1999/xlink" x="0px" y="0px"
	 viewBox="0 0 26 24" style="enable-background:new 0 0 26 24;" xml:space="preserve">
<title>icon/iot/乱穿马路</title>
<desc>Created with Sketch.</desc>
<path id="Fill-1" d="M21.6,19.9c0,0.7-0.5,1.2-1.2,1.2H5.6c-0.7,0-1.2-0.5-1.2-1.2V5.6C4.4,5,5,4.4,5.6,4.4h14.7
	c0.7,0,1.2,0.5,1.2,1.2V19.9z M23.5,2.9H2.5v7.8H2H1.5v11.5c0,0.7,0.5,1.2,1.2,1.2h21.1c0.7,0,1.2-0.5,1.2-1.2V10.8h-1.5L23.5,2.9z"
	/>
<path id="Fill-3" d="M24.5,0L24.5,0H1.4C0,0,0,1.1,0,1.1v9.2h1.5H2V2.9V2.5H24v7.8h1h1V1.5C26,1.3,25.9,0,24.5,0"/>
<path id="Fill-5" d="M12.1,6.4c0.6,0,1.2,0.5,1.2,1.2s-0.5,1.2-1.2,1.2s-1.2-0.5-1.2-1.2S11.4,6.4,12.1,6.4"/>
<path id="Fill-7" d="M16.8,20.2c-0.1,0.1-0.2,0.1-0.2,0.1c-0.1,0-0.3-0.1-0.3-0.2l-2.1-3l-0.4-1.8l-1.2,0.3l-1.4,1.5l-0.5,2.8
	c0,0.2-0.2,0.3-0.4,0.3c0,0-0.1,0-0.1,0c-0.2,0-0.4-0.3-0.3-0.5l0.5-3l2-2.2l-0.6-3l-0.5,1.1l-2.1,1.3C9.2,13.9,9.1,14,9,14
	c-0.1,0-0.3-0.1-0.4-0.2c-0.1-0.2-0.1-0.5,0.1-0.6l1.9-1.2l1-2.4c0-0.1,0.1-0.3,0.4-0.3l0.7-0.1c0.3-0.1,0.4,0,0.6,0.1l2.8,2.3
	l0.4,2.4c0,0.2-0.1,0.5-0.3,0.5c0,0-0.1,0-0.1,0c-0.2,0-0.4-0.1-0.4-0.3L15.3,12l-1.5-1.2l1.2,6l2,2.8C17.1,19.9,17,20.1,16.8,20.2"
	/>
</svg>
