<?xml version="1.0" encoding="UTF-8"?>
<svg width="26px" height="26px" viewBox="0 0 26 26" version="1.1" xmlns="http://www.w3.org/2000/svg" xmlns:xlink="http://www.w3.org/1999/xlink">
    <!-- Generator: Sketch 55.2 (78181) - https://sketchapp.com -->
    <title>蒙版</title>
    <desc>Created with Sketch.</desc>
    <g id="组件" stroke="none" stroke-width="1" fill="none" fill-rule="evenodd">
        <g id="icon/podcast" fill="#000000" fill-rule="nonzero">
            <g id="矩形">
                <g id="蒙版">
                    <path d="M26,13 C26,5.82029297 20.179707,0 13,0 C5.82029297,0 0,5.82029297 0,13 C0,18.5873086 3.52513281,23.3508437 8.47249609,25.1892266 L8.125,26 L17.875,26 L17.5275039,25.1892266 C22.4748672,23.3508437 26,18.5873086 26,13 Z M12.3599023,16.1186289 C11.780793,15.8701562 11.375,15.2950586 11.375,14.625 C11.375,13.727543 12.102543,13 13,13 C13.897457,13 14.625,13.727543 14.625,14.625 C14.625,15.2950586 14.2193086,15.870207 13.6401992,16.118832 L13,14.625 L12.3599023,16.1186289 Z M13.6669609,16.1812422 C15.1419531,15.8735586 16.25,14.5663984 16.25,13 C16.25,11.2050352 14.7950156,9.75 13,9.75 C11.2050859,9.75 9.75,11.2050352 9.75,13 C9.75,14.5663984 10.8586055,15.8722383 12.33375,16.1796172 L10.439,20.6006836 C8.12261328,19.6066406 6.5,17.3053867 6.5,14.625 C6.5,11.0351719 9.41017187,7.8203125 13,7.8203125 C16.5898281,7.8203125 19.5,11.0351719 19.5,14.625 C19.5,17.3053867 17.8773867,19.6066406 15.561,20.6006836 L13.6669609,16.1812422 Z M17.480125,25.0785234 L15.6031484,20.6990469 C18.8136914,19.6138516 21.125,16.5769297 21.125,13 C21.125,8.51271484 17.4873359,4.875 13,4.875 C8.51271484,4.875 4.875,8.51271484 4.875,13 C4.875,16.5769297 7.18630859,19.6138516 10.3968516,20.6989961 L8.519875,25.0785234 C4.46768359,23.3395703 1.62921484,19.3139883 1.62921484,14.625 C1.62921484,8.34508594 6.72008594,2.94952734 13,2.94952734 C19.2799141,2.94952734 24.3707852,8.34508594 24.3707852,14.625 C24.3707852,19.3139883 21.5323164,23.3395703 17.480125,25.0785234 Z" id="形状"></path>
                </g>
            </g>
        </g>
    </g>
</svg>