<?xml version="1.0" encoding="utf-8"?>
<!-- Generator: Adobe Illustrator 22.1.0, SVG Export Plug-In . SVG Version: 6.00 Build 0)  -->
<svg version="1.1" id="图层_1" xmlns="http://www.w3.org/2000/svg" xmlns:xlink="http://www.w3.org/1999/xlink" x="0px" y="0px"
	 viewBox="0 0 25 26" style="enable-background:new 0 0 25 26;" xml:space="preserve">
<style type="text/css">
	.st0{fill:#191918;}
</style>
<title>icon/iot/井盖</title>
<desc>Created with Sketch.</desc>
<path id="形状结合" class="st0" d="M12.6,0.6c0.3,0,0.5,0.2,0.5,0.5c0,0.5,0.4,0.9,0.9,1c2.5,0.4,4.8,1.5,6.6,3.3
	c2.2,2.2,3.4,5.1,3.4,8.2c0,3.1-1.2,6-3.4,8.3c-2.2,2.3-5.2,3.5-8.4,3.5h0c-3.2,0-6.2-1.3-8.4-3.5c-2.2-2.3-3.4-5.3-3.3-8.4
	c0.1-3.2,1.4-6.1,3.7-8.3c1.5-1.5,3.5-2.5,5.5-2.9c0.5-0.1,0.8-0.5,0.8-1V1.1c0-0.3,0.2-0.5,0.5-0.5H12.6z M4.6,6
	c-4.2,4.2-4.2,11.1,0,15.3c2.1,2.1,4.9,3.2,7.7,3.2c2.8,0,5.5-1.1,7.7-3.2c4.2-4.2,4.2-11.1,0-15.3S8.8,1.8,4.6,6z M14.9,21.9
	l1.3,1.3c-1.1,0.4-2.2,0.7-3.3,0.7L14.9,21.9z M9.7,21.9l2,2c-1.1-0.1-2.3-0.3-3.3-0.7L9.7,21.9z M12.3,19.3l2.2,2.2l-2.2,2.2
	l-2.2-2.2L12.3,19.3z M17.5,19.3l1.8,1.8c-0.8,0.8-1.7,1.4-2.6,1.8l-1.4-1.4L17.5,19.3z M7.1,19.3l2.2,2.2L7.8,23
	c-0.9-0.5-1.8-1.1-2.6-1.8L7.1,19.3z M15.4,17.2l1.8,1.8l-2.2,2.2l-2.2-2.2l0.7-0.7C14.1,18,14.8,17.7,15.4,17.2z M9.2,17.2
	c0.6,0.5,1.3,0.9,2,1l0.7,0.7l-2.2,2.2l-2.2-2.2L9.2,17.2z M4.4,16.7l2.2,2.2l-1.8,1.8C4.1,20,3.5,19.1,3,18.1L4.4,16.7z M20.1,16.7
	l1.4,1.4c-0.5,0.9-1.1,1.8-1.8,2.6l-1.8-1.8L20.1,16.7z M12.5,18.3l-0.2,0.2l-0.2-0.2c0.1,0,0.1,0,0.2,0
	C12.4,18.3,12.4,18.3,12.5,18.3z M17.5,14.1l2.2,2.2l-2.2,2.2l-1.8-1.8c0.5-0.6,0.9-1.3,1-2L17.5,14.1z M7.1,14.1l0.7,0.7
	c0.2,0.7,0.5,1.4,1,2l-1.8,1.8l-2.2-2.2L7.1,14.1z M12.3,9.6c1.1,0,2.1,0.4,2.9,1.2c1.6,1.6,1.6,4.2,0,5.8c-1.6,1.6-4.2,1.6-5.8,0
	c-0.8-0.8-1.2-1.8-1.2-2.9c0-1.1,0.4-2.1,1.2-2.9C10.2,10,11.2,9.6,12.3,9.6z M22.5,14.3c-0.1,1.1-0.3,2.3-0.7,3.3l-1.3-1.3
	L22.5,14.3z M2,14.3l2,2l-1.3,1.3C2.3,16.5,2.1,15.4,2,14.3z M9.9,11.3c-1.3,1.3-1.3,3.5,0,4.8c0.7,0.7,1.5,1,2.4,1s1.7-0.3,2.4-1
	c1.3-1.3,1.3-3.5,0-4.8C13.4,10,11.2,10,9.9,11.3z M12.3,10.8c0.7,0,1.5,0.3,2,0.8c1.1,1.1,1.1,2.9,0,4c-1.1,1.1-2.9,1.1-4,0
	c-1.1-1.1-1.1-2.9,0-4C10.8,11.1,11.6,10.8,12.3,10.8z M20.1,11.5l2.2,2.2l-2.2,2.2l-2.2-2.2L20.1,11.5z M4.4,11.5l2.2,2.2l-2.2,2.2
	l-2.2-2.2L4.4,11.5z M11.4,12.8c-0.5,0.5-0.5,1.3,0,1.7c0.2,0.2,0.5,0.4,0.9,0.4c0.3,0,0.6-0.1,0.9-0.4c0.2-0.2,0.4-0.5,0.4-0.9
	c0-0.3-0.1-0.6-0.4-0.9C12.7,12.3,11.9,12.3,11.4,12.8z M12.3,13c0.2,0,0.4,0.1,0.5,0.2c0.1,0.1,0.2,0.3,0.2,0.5
	c0,0.2-0.1,0.4-0.2,0.5c-0.1,0.1-0.3,0.2-0.5,0.2c-0.2,0-0.4-0.1-0.5-0.2c-0.3-0.3-0.3-0.7,0-1C11.9,13.1,12.1,13,12.3,13z
	 M7.6,13.5c0,0.1,0,0.3,0,0.4l-0.2-0.2L7.6,13.5z M16.9,13.5l0.2,0.2l-0.2,0.2C16.9,13.8,16.9,13.6,16.9,13.5z M7.1,8.9l1.8,1.8
	c-0.5,0.6-0.9,1.3-1,2l-0.7,0.7l-2.2-2.2L7.1,8.9z M17.5,8.9l2.2,2.2l-2.2,2.2l-0.7-0.7c-0.2-0.7-0.5-1.4-1-2L17.5,8.9z M2.8,9.8
	l1.3,1.3l-2,2C2.1,12,2.3,10.9,2.8,9.8z M21.8,9.8c0.4,1.1,0.7,2.2,0.7,3.3l-2-2L21.8,9.8z M4.8,6.6l1.8,1.8l-2.2,2.2L3,9.3
	C3.5,8.3,4.1,7.4,4.8,6.6z M19.7,6.6c0.8,0.8,1.4,1.7,1.8,2.6l-1.4,1.4l-2.2-2.2L19.7,6.6z M9.7,6.2l2.2,2.2l-0.7,0.7
	c-0.7,0.2-1.4,0.5-2,1L7.4,8.5L9.7,6.2z M14.9,6.2l2.2,2.2l-1.8,1.8c-0.6-0.5-1.3-0.9-2-1l-0.7-0.7L14.9,6.2z M12.3,8.9l0.2,0.2
	c-0.1,0-0.3,0-0.4,0L12.3,8.9z M7.8,4.4l1.4,1.4L7.1,8.1L5.2,6.2C6,5.5,6.9,4.9,7.8,4.4z M16.7,4.4c0.9,0.5,1.8,1.1,2.6,1.8
	l-1.8,1.8l-2.2-2.2L16.7,4.4z M12.3,3.6l2.2,2.2l-2.2,2.2l-2.2-2.2L12.3,3.6z M11.7,3.4l-2,2L8.4,4.2C9.4,3.7,10.6,3.5,11.7,3.4z
	 M12.9,3.4c1.1,0.1,2.3,0.3,3.3,0.7l-1.3,1.3L12.9,3.4z"/>
</svg>
