<?xml version="1.0" encoding="UTF-8"?>
<svg width="26px" height="20px" viewBox="0 0 26 20" version="1.1" xmlns="http://www.w3.org/2000/svg" xmlns:xlink="http://www.w3.org/1999/xlink">
    <!-- Generator: Sketch 55.2 (78181) - https://sketchapp.com -->
    <title>蒙版</title>
    <desc>Created with Sketch.</desc>
    <g id="Symbols" stroke="none" stroke-width="1" fill="none" fill-rule="evenodd">
        <g id="icon/iot/人流密度" fill="#000000">
            <g id="矩形" transform="translate(0.000000, -0.000000)">
                <g id="蒙版" transform="translate(0.000000, -0.000000)">
                    <path d="M13.1435306,7.21547755 C13.5725306,7.21547755 13.9813673,7.30515102 14.3530612,7.46645714 C14.3809184,6.85996735 14.5899796,6.2991102 14.9253265,5.83482449 C14.6892041,5.78547755 14.4456531,5.75921224 14.1962653,5.75921224 L11.833449,5.75921224 C11.5845918,5.75921224 11.3410408,5.78521224 11.1067755,5.83402857 C11.4641429,6.32988571 11.6777143,6.93504898 11.6811633,7.5903551 C12.1154694,7.35157959 12.6137143,7.21547755 13.1435306,7.21547755" id="Fill-1"></path>
                    <path d="M13.0143796,0 C14.5520939,0 15.7990327,1.24667347 15.7990327,2.78465306 C15.7990327,4.32263265 14.5520939,5.56930612 13.0143796,5.56930612 C11.4764,5.56930612 10.2297265,4.32263265 10.2297265,2.78465306 C10.2297265,1.24667347 11.4764,0 13.0143796,0" id="Fill-3"></path>
                    <path d="M17.3879245,10.3210449 C18.8051898,10.3210449 19.9534347,9.17200408 19.9534347,7.75553469 C19.9534347,6.33826939 18.8051898,5.19002449 17.3879245,5.19002449 C15.9839245,5.19002449 14.8454959,6.31784082 14.8242714,7.7168 C15.6331898,8.22406531 16.2004143,9.08206531 16.3038837,10.0777592 C16.6333939,10.2324327 16.9997816,10.3210449 17.3879245,10.3210449" id="Fill-5"></path>
                    <path d="M8.64123265,5.18965306 C7.22370204,5.18965306 6.07545714,6.33816327 6.07545714,7.75516327 C6.07545714,9.17216327 7.22370204,10.3204082 8.64123265,10.3204082 C9.14319184,10.3204082 9.60986531,10.1736939 10.005702,9.92457143 C10.1317224,9.1045102 10.5713347,8.38738776 11.1993143,7.89922449 C11.2019673,7.85120408 11.2064776,7.80371429 11.2064776,7.75516327 C11.2064776,6.33816327 10.057702,5.18965306 8.64123265,5.18965306" id="Fill-7"></path>
                    <path d="M19.0543653,5.135 C19.8632837,5.64226531 20.4305082,6.50026531 20.5337122,7.4964898 C20.8626918,7.65063265 21.2293449,7.7395102 21.6177531,7.7395102 C23.0350184,7.7395102 24.1832633,6.591 24.1832633,5.174 C24.1832633,3.757 23.0350184,2.60848975 21.6177531,2.60848975 C20.2140184,2.60822449 19.0755898,3.73630612 19.0543653,5.135" id="Fill-9"></path>
                    <path d="M13.1435306,7.83820408 C14.5605306,7.83820408 15.7093061,8.98697959 15.7093061,10.4039796 C15.7093061,11.8209796 14.5605306,12.9697551 13.1435306,12.9697551 C11.7265306,12.9697551 10.5777551,11.8209796 10.5777551,10.4039796 C10.5777551,8.98697959 11.7265306,7.83820408 13.1435306,7.83820408" id="Fill-11"></path>
                    <path d="M18.4766082,10.4956694 L16.3159551,10.4956694 C16.2926082,11.360302 15.9235673,12.1384449 15.3401592,12.6982408 C16.9497714,13.1771184 18.1282612,14.6702612 18.1282612,16.4342816 L18.1282612,17.2546082 C20.2613224,17.1758122 21.4904857,16.5717102 21.5714041,16.5303224 L21.7430571,16.443302 L21.7608328,16.443302 L21.7608328,13.7809551 C21.7613633,11.9694449 20.2875878,10.4956694 18.4766082,10.4956694" id="Fill-13"></path>
                    <path d="M22.7062245,7.91437347 L20.546102,7.91437347 C20.5230204,8.77874082 20.1537143,9.55714898 19.5703061,10.1166796 C21.1801837,10.5958224 22.3581429,12.0887 22.3581429,13.8524551 L22.3581429,14.6727816 C24.4909388,14.594251 25.7206327,13.9904143 25.801551,13.9487612 L25.9729388,13.8620061 L25.9912449,13.8620061 L25.9912449,11.1993939 C25.9912449,9.38814898 24.5177347,7.91437347 22.7062245,7.91437347" id="Fill-15"></path>
                    <path d="M10.9454429,12.6978959 C10.3646878,12.1407531 9.99697347,11.3665898 9.96991224,10.5080592 C9.8900551,10.5022224 9.81072857,10.4953245 9.72901429,10.4953245 L7.55270816,10.4953245 C5.74119796,10.4953245 4.26742245,11.9693653 4.26742245,13.7808755 L4.26742245,16.4437531 L4.2740551,16.4846102 L4.45738163,16.5424469 C5.84413673,16.9759571 7.0820551,17.1749367 8.1568102,17.2378143 L8.1568102,16.4339367 C8.15734082,14.6704469 9.33503469,13.1773041 10.9454429,12.6978959" id="Fill-17"></path>
                    <path d="M14.2317102,13.1445653 L12.0546082,13.1445653 C10.243098,13.1445653 8.76958776,14.6188714 8.76958776,16.4295857 L8.76958776,19.0924633 L8.77648571,19.1341163 L8.95928163,19.1914224 C10.6882816,19.7313204 12.1899143,19.9117286 13.4259755,19.9117286 C15.8402612,19.9117286 17.239751,19.2232592 17.3259755,19.1794837 L17.4976286,19.0924633 L17.5154047,19.0924633 L17.5154047,16.4295857 C17.5164653,14.6183408 16.0426898,13.1445653 14.2317102,13.1445653" id="Fill-19"></path>
                    <path d="M4.37378367,7.82122449 C4.76192653,7.82122449 5.12831429,7.73234694 5.45782449,7.57820408 C5.56129388,6.58197959 6.12825306,5.72371429 6.93717143,5.21644898 C6.91594694,3.81802041 5.77751837,2.68993878 4.37378367,2.68993878 C2.95625306,2.68993878 1.80800816,3.83844898 1.80800816,5.25571429 C1.80800816,6.67271429 2.95625306,7.82122449 4.37378367,7.82122449" id="Fill-21"></path>
                    <path d="M6.42096531,10.1986061 C5.83782245,9.63907551 5.46878163,8.86040204 5.44543469,7.99576939 L3.28504694,7.99576939 C1.47353673,7.99603469 2.65306122e-05,9.4698102 2.65306122e-05,11.2810551 L2.65306122e-05,13.9439327 L0.0183326531,13.9439327 L0.189720408,14.0306878 C0.270904082,14.0715449 1.50006735,14.6761776 3.63312857,14.7544429 L3.63312857,13.9341163 C3.63312857,12.1706265 4.81082245,10.6774837 6.42096531,10.1986061" id="Fill-23"></path>
                    <path d="M7.37442245,4.93602041 C7.68217755,4.81132653 8.15176939,4.6582449 8.60013673,4.6582449 C9.12199388,4.6582449 9.63244286,4.7924898 10.0877082,5.04797959 C10.1890551,4.9484898 10.2819122,4.8402449 10.3662796,4.72430612 C9.93383061,4.15628571 9.69770816,3.46012245 9.69770816,2.74406122 C9.69770816,2.26173469 9.80542245,1.78312245 10.0107694,1.34828571 C9.5433,0.925918367 8.94689184,0.695367347 8.31307551,0.695367347 C7.15952449,0.695367347 6.15534082,1.47616327 5.86138163,2.57585714 C6.72309592,3.07728571 7.28448367,3.95385714 7.37442245,4.93602041" id="Fill-25"></path>
                    <path d="M15.6841551,4.57913061 C15.773298,4.72080408 15.8775633,4.85425306 15.9958898,4.97841633 C16.4171959,4.76829388 16.8804204,4.65792653 17.3468286,4.65792653 C17.8055429,4.65792653 18.2448898,4.77519184 18.5332776,4.8733551 C18.6234816,3.80868163 19.2673796,2.86896735 20.2312367,2.39274286 C19.877849,1.38325306 18.9211551,0.694253061 17.8379102,0.694253061 C17.137502,0.694253061 16.4742367,0.981844898 15.9953592,1.48804898 C16.1635633,1.88919184 16.2487265,2.31076327 16.2487265,2.74294694 C16.2484612,3.40488571 16.0537265,4.03578367 15.6841551,4.57913061" id="Fill-27"></path>
                </g>
            </g>
        </g>
    </g>
</svg>