<?xml version="1.0" encoding="UTF-8"?>
<svg width="26px" height="26px" viewBox="0 0 26 26" version="1.1" xmlns="http://www.w3.org/2000/svg" xmlns:xlink="http://www.w3.org/1999/xlink">
    <!-- Generator: Sketch 55.2 (78181) - https://sketchapp.com -->
    <title>蒙版</title>
    <desc>Created with Sketch.</desc>
    <g id="Symbols" stroke="none" stroke-width="1" fill="none" fill-rule="evenodd">
        <g id="icon/iot/处置力量" fill="#000000">
            <g id="矩形">
                <g id="蒙版">
                    <g id="编组">
                        <path d="M21.6103896,-6.77083334e-06 C19.6011636,-6.77083334e-06 17.9123117,1.38395156 17.4304,3.24999323 L8.50206753,3.24999323 C8.02015584,1.38395156 6.3313039,-6.77083334e-06 4.32207792,-6.77083334e-06 C1.93899221,-6.77083334e-06 0,1.9440349 0,4.33332656 C0,6.3477849 1.38036364,8.0410349 3.24155844,8.52420156 L3.24155844,17.4763266 C1.38036364,17.9589516 0,19.6522016 0,21.6666599 C0,24.0559516 1.93899221,25.9999932 4.32207792,25.9999932 C6.3313039,25.9999932 8.02015584,24.6161026 8.50206753,22.7499932 L13.5064935,22.7499932 C14.1029403,22.7499932 14.587013,22.2646599 14.587013,21.6666599 C14.587013,21.0686599 14.1029403,20.5833266 13.5064935,20.5833266 L8.50206753,20.5833266 C8.10983896,19.0644932 6.91748571,17.8690349 5.4025974,17.4757849 L5.4025974,8.52420156 C6.91748571,8.13095156 8.10983896,6.93549323 8.50206753,5.4166599 L17.4309403,5.4166599 C17.9128519,7.28270156 19.6011636,8.6666599 21.6109299,8.6666599 C23.9940156,8.6666599 25.9330078,6.72261823 25.9330078,4.33332656 C25.9330078,1.9440349 23.9934753,-6.77083334e-06 21.6103896,-6.77083334e-06" id="Fill-1"></path>
                    </g>
                    <path d="M17.1489362,20.4680851 L16.5957447,20.4680851 C15.9850213,20.4680851 15.4893617,20.9637447 15.4893617,21.5744681 C15.4893617,22.1851915 15.9850213,22.6808511 16.5957447,22.6808511 L17.1489362,22.6808511 C17.7596596,22.6808511 18.2553191,22.1851915 18.2553191,21.5744681 C18.2553191,20.9637447 17.7596596,20.4680851 17.1489362,20.4680851" id="Fill-3"></path>
                    <path d="M21.0212766,20.4680851 L20.4680851,20.4680851 C19.8573617,20.4680851 19.3617021,20.9637447 19.3617021,21.5744681 C19.3617021,22.1851915 19.8573617,22.6808511 20.4680851,22.6808511 L21.0212766,22.6808511 C21.632,22.6808511 22.1276596,22.1851915 22.1276596,21.5744681 C22.1276596,20.9637447 21.632,20.4680851 21.0212766,20.4680851" id="Fill-5"></path>
                    <path d="M24.893617,20.4680851 L24.3404255,20.4680851 C23.7297021,20.4680851 23.2340426,20.9637447 23.2340426,21.5744681 C23.2340426,22.1851915 23.7297021,22.6808511 24.3404255,22.6808511 L24.893617,22.6808511 C25.5043404,22.6808511 26,22.1851915 26,21.5744681 C26,20.9637447 25.5043404,20.4680851 24.893617,20.4680851" id="Fill-7"></path>
                </g>
            </g>
        </g>
    </g>
</svg>