<?xml version="1.0" encoding="utf-8"?>
<!-- Generator: Adobe Illustrator 22.1.0, SVG Export Plug-In . SVG Version: 6.00 Build 0)  -->
<svg version="1.1" id="图层_1" xmlns="http://www.w3.org/2000/svg" xmlns:xlink="http://www.w3.org/1999/xlink" x="0px" y="0px"
	 viewBox="0 0 26 26" style="enable-background:new 0 0 26 26;" xml:space="preserve">
<title>icon/iot/室内消防水栓</title>
<desc>Created with Sketch.</desc>
<polygon id="Fill-1" points="22.9,0 22.9,19.9 24.4,19.9 24.4,13.8 26,13.8 26,6.1 24.4,6.1 24.4,0 "/>
<polygon id="Fill-2" points="1.6,0 1.6,6.1 0,6.1 0,13.8 1.6,13.8 1.6,19.9 3.1,19.9 3.1,0 "/>
<polygon id="Fill-3" points="15.6,23 17.7,23 17.7,21.4 15.6,21.4 "/>
<polygon id="Fill-4" points="15.6,26 17.7,26 17.7,24.5 15.6,24.5 "/>
<path id="Fill-5" d="M16.7,3.9c-0.6,0-1.1,0.5-1.1,1.1v15h2.1v-15C17.7,4.3,17.2,3.9,16.7,3.9"/>
<path id="Fill-7" d="M5.7,3.9c-0.6,0-1.1,0.5-1.1,1.1V15c0,0.6,0.5,1.1,1.1,1.1s1.1-0.5,1.1-1.1V4.9C6.8,4.3,6.3,3.9,5.7,3.9"/>
<path id="Fill-9" d="M9.3,3.9c-0.6,0-1.1,0.5-1.1,1.1V15c0,0.6,0.5,1.1,1.1,1.1c0.6,0,1.1-0.5,1.1-1.1V4.9C10.4,4.3,9.9,3.9,9.3,3.9
	"/>
<path id="Fill-11" d="M13,3.9c-0.6,0-1.1,0.5-1.1,1.1V15c0,0.6,0.5,1.1,1.1,1.1c0.6,0,1.1-0.5,1.1-1.1V4.9C14.1,4.3,13.6,3.9,13,3.9
	"/>
<path id="Fill-13" d="M20.3,3.9c-0.6,0-1.1,0.5-1.1,1.1V15c0,0.6,0.5,1.1,1.1,1.1s1.1-0.5,1.1-1.1V4.9C21.4,4.3,20.9,3.9,20.3,3.9"
	/>
</svg>
