<?xml version="1.0" encoding="utf-8"?>
<!-- Generator: Adobe Illustrator 22.1.0, SVG Export Plug-In . SVG Version: 6.00 Build 0)  -->
<svg version="1.1" id="图层_1" xmlns="http://www.w3.org/2000/svg" xmlns:xlink="http://www.w3.org/1999/xlink" x="0px" y="0px"
	 viewBox="0 0 20 26" style="enable-background:new 0 0 20 26;" xml:space="preserve">
<title>icon/iot/室外消防水泵</title>
<desc>Created with Sketch.</desc>
<path id="Fill-1" d="M9.8,16.3c-1.9,0-3.4-1.5-3.4-3.4s1.5-3.4,3.4-3.4s3.4,1.5,3.4,3.4S11.7,16.3,9.8,16.3 M18.5,9.4H16V8.4
	c0.3-0.2,0.5-0.6,0.5-1c0-0.4-0.2-0.8-0.5-1c-0.2-0.1-0.4-0.2-0.6-0.2h-11c-0.2,0-0.5,0.1-0.6,0.2C3.4,6.7,3.1,7,3.1,7.4
	c0,0.4,0.2,0.8,0.5,1v0.9H1.2C0.5,9.4,0,9.9,0,10.5v4.6c0,0.7,0.5,1.2,1.2,1.2h2.5v6.5c0,0,0.1,0,0.1,0h12.1c0,0,0.1,0,0.1,0v-6.5
	h2.5c0.7,0,1.2-0.5,1.2-1.2v-4.6C19.7,9.9,19.1,9.4,18.5,9.4"/>
<path id="Fill-3" d="M11,1.9V1.2C11,0.5,10.5,0,9.8,0C9.2,0,8.6,0.5,8.6,1.2v0.7C6.7,2.2,5,3.6,4.2,5.4h11.2v0
	C14.6,3.6,13,2.2,11,1.9"/>
<path id="Fill-5" d="M17,23.6h-0.6H3.2H2.7c-0.7,0-1.2,0.5-1.2,1.2C1.5,25.5,2,26,2.7,26H17c0.7,0,1.2-0.5,1.2-1.2
	C18.2,24.2,17.7,23.6,17,23.6"/>
</svg>
