<?xml version="1.0" encoding="UTF-8"?>
<svg width="26px" height="26px" viewBox="0 0 26 26" version="1.1" xmlns="http://www.w3.org/2000/svg" xmlns:xlink="http://www.w3.org/1999/xlink">
    <!-- Generator: Sketch 55.2 (78181) - https://sketchapp.com -->
    <title>蒙版</title>
    <desc>Created with Sketch.</desc>
    <g id="Symbols" stroke="none" stroke-width="1" fill="none" fill-rule="evenodd">
        <g id="icon/iot/小区管理" fill="#000000">
            <g id="矩形">
                <g id="蒙版">
                    <path d="M9.953125,10.7148438 C10.3731367,10.7148438 10.7148438,10.3731367 10.7148438,9.953125 C10.7148438,9.53311328 10.3731367,9.19140625 9.953125,9.19140625 C9.53311328,9.19140625 9.19140625,9.53311328 9.19140625,9.953125 C9.19140625,10.3731367 9.53311328,10.7148438 9.953125,10.7148438" id="Fill-1"></path>
                    <g id="编组">
                        <path d="M10.7148438,19.09375 L10.7148438,21.3789062 L9.19140625,21.3789062 L9.19140625,19.09375 C9.19140625,18.6737383 9.53311328,18.3320312 9.953125,18.3320312 C10.3731367,18.3320312 10.7148438,18.6737383 10.7148438,19.09375 L10.7148438,19.09375 Z M9.953125,7.66796875 C11.2131602,7.66796875 12.2382812,8.69308984 12.2382812,9.953125 C12.2382812,11.2131602 11.2131602,12.2382812 9.953125,12.2382812 C8.69308984,12.2382812 7.66796875,11.2131602 7.66796875,9.953125 C7.66796875,8.69308984 8.69308984,7.66796875 9.953125,7.66796875 L9.953125,7.66796875 Z M18.3828125,21.3789062 L19.90625,21.3789062 L19.90625,18.3320312 L18.3828125,18.3320312 L18.3828125,21.3789062 Z M19.90625,7.66796875 C19.90625,7.33682422 19.9492109,6.89035547 20.0332539,6.383 L21.4296875,7.31392188 L21.4296875,9.16982422 C20.1978359,9.08573047 19.90625,8.72944922 19.90625,7.66796875 L19.90625,7.66796875 Z M20.7497266,3.69458984 C20.9897187,3.05758984 21.2223477,2.59873047 21.4296875,2.27134375 L21.4296875,5.48295312 L20.3911602,4.79060156 C20.4946523,4.42431641 20.6142422,4.05432422 20.7497266,3.69458984 L20.7497266,3.69458984 Z M22.953125,7.31392188 L24.3495586,6.383 C24.4336016,6.89035547 24.4765625,7.336875 24.4765625,7.66796875 C24.4765625,8.72944922 24.1849766,9.08573047 22.953125,9.16982422 L22.953125,7.31392188 Z M22.953125,2.27134375 C23.1604648,2.59873047 23.3930937,3.05758984 23.6330859,3.69458984 C23.7685703,4.05432422 23.8881602,4.42431641 23.9916523,4.79065234 L22.953125,5.48300391 L22.953125,2.27134375 Z M25.2382812,21.3789062 L24.4765625,21.3789062 L24.4765625,16.8085938 L25.2382812,16.8085938 C25.566125,16.8085938 25.8571523,16.5988164 25.9608984,16.2877305 C26.064543,15.9766953 25.9575977,15.6342266 25.6953125,15.4375 L22.953125,13.3808594 L22.953125,10.6964102 C24.9152109,10.582 26.0000219,9.70246875 26.0000219,7.66796875 C26.0000219,6.46470703 25.6217305,4.65207031 25.058668,3.15752734 C24.269375,1.06234375 23.3046836,0 22.1914062,0 C21.0781289,0 20.1134375,1.06234375 19.3241445,3.15752734 C18.761082,4.65212109 18.3828125,6.46470703 18.3828125,7.66796875 C18.3828125,9.70008203 19.476082,10.5825078 21.4296875,10.6964102 L21.4296875,12.2382812 L19.6015625,10.8671875 C19.3306953,10.6640625 18.9583672,10.6640625 18.6875,10.8671875 L15.3359375,13.3808594 L15.3359375,8.74707031 L15.5613047,8.97055859 C15.8596445,9.26641016 16.341,9.26483594 16.6374102,8.96720703 C16.9338203,8.66957812 16.9333125,8.18812109 16.636293,7.89110156 C15.8347109,7.09617188 11.3141133,2.61289844 10.4895273,1.79511719 C10.1917461,1.49977344 9.71115234,1.5006875 9.41453906,1.79735156 L3.32078906,7.89110156 C3.02326172,8.18862891 3.0233125,8.67084766 3.32078906,8.96832422 C3.61821484,9.26580078 4.10053516,9.26580078 4.39801172,8.96832422 L4.62109375,8.74524219 L4.62109375,10.9256875 L0.52325,12.2766211 C0.210945312,12.3795547 0,12.6712422 0,13 L0,25.2382812 C0,25.6589531 0.341046875,26 0.76171875,26 L25.2382812,26 C25.6589531,26 26.0000219,25.6589531 26.0000219,25.2382812 L26.0000219,22.140625 C26.0000219,21.7199531 25.6589531,21.3789062 25.2382812,21.3789062 L25.2382812,21.3789062 Z" id="Fill-3"></path>
                    </g>
                </g>
            </g>
        </g>
    </g>
</svg>