<?xml version="1.0" encoding="UTF-8"?>
<svg width="22px" height="26px" viewBox="0 0 22 26" version="1.1" xmlns="http://www.w3.org/2000/svg" xmlns:xlink="http://www.w3.org/1999/xlink">
    <!-- Generator: Sketch 55.2 (78181) - https://sketchapp.com -->
    <title>蒙版</title>
    <desc>Created with Sketch.</desc>
    <g id="Symbols" stroke="none" stroke-width="1" fill="none" fill-rule="evenodd">
        <g id="icon/iot/工作力量" fill="#000000" fill-rule="nonzero">
            <g id="矩形" transform="translate(-0.000000, 0.000000)">
                <g id="蒙版" transform="translate(-0.000000, 0.000000)">
                    <path d="M18.3459122,17.6769977 C15.8945866,16.7342125 15.1873626,16.4516952 14.9518014,16.4043187 C14.9044249,16.4043187 14.8105727,16.4043187 14.7631363,16.4516952 L12.5474319,17.9596952 C12.5005358,18.0071316 12.4536397,18.0540277 12.4536397,18.1483603 C12.4536397,18.1953164 12.4536397,18.289649 12.5005358,18.3370855 L13.6319861,19.4682956 L12.3593072,20.7409746 C12.2647945,20.8354873 12.2647945,20.976776 12.3593072,21.0711085 L13.4902771,22.5322125 L11.9349007,25.6435658 C11.8879446,25.7375982 11.8879446,25.7849746 11.9349007,25.8793672 C11.9822771,25.9262633 12.0761293,25.9732194 12.1235658,25.9732194 L21.5512379,25.9732194 C21.6927067,25.9732194 21.7870993,25.8793672 21.7870993,25.7375982 C21.8812517,24.6533441 22.2109053,19.1854781 18.3459122,17.6769977 Z" id="路径"></path>
                    <path d="M8.3995612,22.4852564 L9.53089145,21.023612 C9.62522402,20.9298199 9.57808776,20.7878106 9.53089145,20.6939584 L8.25809238,19.4212794 L9.38954273,18.2895889 C9.43649885,18.2426928 9.4837552,18.1483002 9.43649885,18.1014042 C9.43649885,18.0540277 9.38954273,17.9596952 9.34240647,17.912739 L7.12682217,16.4042587 C7.07962587,16.3570624 6.98547344,16.3570624 6.93827714,16.3570624 C6.7497321,16.4042587 6.04280831,16.6871963 3.54434642,17.6299815 C-0.321006928,19.1854781 0.00876674365,24.6533441 0.1032194,25.7375982 C0.1032194,25.8793072 0.197551963,25.9732194 0.3387806,25.9732194 L9.76657275,25.9732194 L9.76657275,25.9732194 C9.86090531,25.9732194 9.90786143,25.9262633 9.95511778,25.8793672 C10.0023141,25.8319908 10.0023141,25.7376582 9.95511778,25.6435658 L8.3995612,22.4852564 Z" id="路径"></path>
                    <path d="M12.5473718,22.4378199 L11.2749931,20.8354273 L12.5004758,19.6094642 C12.5473718,19.5625081 12.5473718,19.515612 12.5473718,19.4212194 C12.5473718,19.3267067 12.5004758,19.2798106 12.5004758,19.2323141 L11.1334042,17.8655427 C11.0393718,17.7712102 10.8977229,17.7712102 10.8036305,17.8655427 L9.43637875,19.2323141 C9.34228637,19.3266467 9.34228637,19.4681755 9.43637875,19.562448 L10.6620416,20.7877506 L9.38948268,22.3908037 C9.34234642,22.4376998 9.34234642,22.5320924 9.34234642,22.6264249 L10.7564942,25.7375381 C10.8036905,25.8318707 10.8977829,25.8792471 10.9922356,25.8792471 C11.0862679,25.8792471 11.1806605,25.8318707 11.2279169,25.7375381 L12.6417644,22.6264249 C12.6417644,22.626545 12.6417644,22.5322125 12.5473718,22.4378199 Z" id="路径"></path>
                    <path d="M15.8472102,8.43781062 C14.6216674,7.777903 12.7832933,7.40093303 10.9450993,7.40093303 C9.10666513,7.40093303 7.26829099,7.777903 6.04274827,8.43781062 C5.99543187,8.48500693 5.94829561,8.53214319 5.94829561,8.57927945 C5.94829561,8.62635566 5.94829561,8.72062818 5.99549192,8.76782448 C7.03272979,10.3705774 9.8138291,10.4177136 10.3792841,10.4177136 L10.3792841,10.4177136 L11.6046467,10.4177136 C12.1704018,10.4177136 14.9518014,10.323261 15.9889792,8.76782448 C16.0358753,8.72068822 16.0358753,8.62635566 16.0358753,8.57927945 C15.9415427,8.53214319 15.8945866,8.43781062 15.8472102,8.43781062 Z" id="路径"></path>
                    <path d="M10.9450393,15.6970947 L10.9450393,15.6970947 L10.9450393,15.6970947 C14.1032887,15.6501986 16.6484665,13.1045404 16.6484665,9.94641109 C16.6484665,9.85207852 16.6484665,9.71072979 16.6484665,9.56920092 C16.6484665,9.47498845 16.6015704,9.38065589 16.5071778,9.38065589 C16.4129053,9.33333949 16.3185127,9.38065589 16.2716166,9.42785219 C14.9043048,10.7947436 12.4060831,10.9363326 11.651963,10.9363326 L10.379164,10.9363326 C9.62510393,10.9363326 7.12664203,10.842 5.75963048,9.42785219 C5.71243418,9.38065589 5.6183418,9.33339954 5.52406928,9.38065589 C5.42961663,9.42785219 5.38272055,9.47498845 5.38272055,9.56920092 C5.38272055,9.71066975 5.38272055,9.80476212 5.38272055,9.94641109 C5.24113164,13.1045404 7.78666975,15.6501386 10.9450393,15.6970947 Z" id="路径"></path>
                    <path d="M4.8170254,6.50510393 C4.91135797,6.55230023 5.00545035,6.59943649 5.099903,6.55230023 C5.94823557,6.0808776 8.58804619,5.27974134 10.8977829,5.27974134 C13.2544157,5.27974134 15.8945866,6.08093764 16.7430993,6.55230023 C16.7899954,6.55230023 16.8373718,6.59943649 16.8373718,6.59943649 C16.8843279,6.59943649 16.9317044,6.59943649 16.9786605,6.55230023 C17.5444157,6.03374134 17.9683418,5.65677136 18.1101109,5.51536259 C18.2042032,5.42103002 18.2042032,5.27968129 18.157067,5.18534873 C18.1101109,5.13809238 18.0627344,5.09089607 18.0157783,4.9968037 C17.780157,4.7611224 17.4500231,4.38379215 17.3087945,3.77114088 L17.2142818,3.44100693 C17.1199492,2.59267436 17.0729931,2.26266051 16.2245404,2.16844804 L15.9889792,2.16844804 C15.0930901,2.07411547 13.6788822,1.93276674 12.5474919,0.942785219 C11.6045866,0.0944526559 11.2279169,0 10.9450393,0 C10.6620416,0 10.2850716,0.0944526559 9.34234642,0.942785219 C8.21101617,1.93276674 6.79692841,2.07411547 5.90109931,2.16844804 L5.66535797,2.16844804 C4.8170254,2.26266051 4.72257275,2.59267436 4.58134411,3.39411085 L4.48689145,3.72400462 C4.34560277,4.33689607 4.01546882,4.66678984 3.77978753,4.94966744 C3.73283141,4.9968037 3.68569515,5.09089607 3.63849885,5.13809238 C3.54416628,5.23254503 3.59130254,5.37377367 3.68569515,5.46822633 C3.87424018,5.60945497 4.25121016,5.98678522 4.8170254,6.50510393 Z" id="路径"></path>
                    <path d="M16.4129053,7.87223557 C16.4602818,7.82509931 16.5071778,7.777903 16.5541339,7.68357044 L16.6484665,7.21214781 C16.6484665,7.11793533 16.6015704,6.97646651 16.5071778,6.97646651 C15.8471501,6.6938291 13.490157,5.84513626 10.9921755,5.84513626 C8.44663741,5.84513626 6.13672055,6.6938291 5.47675289,6.97646651 C5.38266051,7.02360277 5.3354642,7.11793533 5.3354642,7.21214781 L5.42955658,7.68357044 C5.42955658,7.777903 5.47669284,7.82503926 5.5711455,7.87223557 C5.61828176,7.87223557 5.61828176,7.91925173 5.66517783,7.91925173 C5.71237413,7.91925173 5.75951039,7.91925173 5.75951039,7.87223557 C7.12652194,7.21220785 8.96495612,6.83511778 11.0391917,6.83511778 C13.0660508,6.83511778 14.9515612,7.21220785 16.3183926,7.87223557 C16.2716767,7.87223557 16.3660092,7.87223557 16.4129053,7.87223557 Z" id="路径"></path>
                </g>
            </g>
        </g>
    </g>
</svg>