<?xml version="1.0" encoding="utf-8"?>
<!-- Generator: Adobe Illustrator 22.1.0, SVG Export Plug-In . SVG Version: 6.00 Build 0)  -->
<svg version="1.1" id="图层_1" xmlns="http://www.w3.org/2000/svg" xmlns:xlink="http://www.w3.org/1999/xlink" x="0px" y="0px"
	 viewBox="0 0 20 30" style="enable-background:new 0 0 20 30;" xml:space="preserve">
<title>icon/iot/紧急待办</title>
<desc>Created with Sketch.</desc>
<g id="蒙版" transform="translate(-0.000000, 0.000000)">
	<path id="形状" d="M18.8,28.2c0,0-0.4,0-0.4-0.2V4.3c0-0.6-0.5-1.1-1.2-1.1h-0.7V0.9c0-0.5-0.5-0.9-1-0.9H3.9c-0.6,0-1,0.4-1,0.9
		v2.2H2.2C1.6,3.2,1,3.7,1,4.3v23.8c0,0.2-0.2,0.2-0.2,0.2C0.4,28.2,0,28.6,0,29v0.3C0,29.6,0.4,30,0.8,30h18c0.4,0,0.8-0.3,0.8-0.7
		V29C19.6,28.6,19.2,28.2,18.8,28.2z M5.5,1.9c0-0.2,0.2-0.4,0.4-0.4h7.7c0.2,0,0.4,0.2,0.4,0.4V2c0,0.2-0.2,0.4-0.4,0.4H5.9
		C5.6,2.4,5.5,2.2,5.5,2V1.9z M8.2,27.7c0,0.3-0.3,0.6-0.6,0.6H5.1c-0.3,0-0.6-0.3-0.6-0.6v-3.8c0-0.3,0.3-0.6,0.6-0.6h2.5
		c0.3,0,0.6,0.3,0.6,0.6V27.7z M15,27.7c0,0.3-0.3,0.6-0.6,0.6l-2.5,0c-0.3,0-0.6-0.3-0.6-0.6v-3.8c0-0.3,0.3-0.6,0.6-0.6l2.5,0
		c0.3,0,0.6,0.3,0.6,0.6V27.7z M16.3,20.3c0,0.2-0.2,0.4-0.4,0.4H3.5c-0.2,0-0.4-0.2-0.4-0.4v-0.6c0-0.2,0.2-0.4,0.4-0.4h12.3
		c0.2,0,0.4,0.2,0.4,0.4V20.3z M16.3,17.4c0,0.2-0.2,0.4-0.4,0.4H3.5c-0.2,0-0.4-0.2-0.4-0.4v-0.6c0-0.2,0.2-0.4,0.4-0.4h12.3
		c0.2,0,0.4,0.2,0.4,0.4V17.4z M16.3,14.5c0,0.2-0.2,0.4-0.4,0.4H3.5c-0.2,0-0.4-0.2-0.4-0.4v-0.6c0-0.2,0.2-0.4,0.4-0.4h12.3
		c0.2,0,0.4,0.2,0.4,0.4V14.5z M16.3,11.6c0,0.2-0.2,0.4-0.4,0.4H3.5c-0.2,0-0.4-0.2-0.4-0.4V11c0-0.2,0.2-0.4,0.4-0.4h12.3
		c0.2,0,0.4,0.2,0.4,0.4V11.6z M16.3,8.7c0,0.2-0.2,0.4-0.4,0.4H3.5C3.3,9,3.2,8.9,3.2,8.7V8.1c0-0.2,0.2-0.4,0.4-0.4h12.3
		c0.2,0,0.4,0.2,0.4,0.4V8.7z M16.3,5.8c0,0.2-0.2,0.4-0.4,0.4H3.5C3.3,6.1,3.2,6,3.2,5.8V5.2c0-0.2,0.2-0.4,0.4-0.4h12.3
		c0.2,0,0.4,0.2,0.4,0.4V5.8z"/>
</g>
</svg>
