<?xml version="1.0" encoding="UTF-8"?>
<svg width="26px" height="26px" viewBox="0 0 26 26" version="1.1" xmlns="http://www.w3.org/2000/svg" xmlns:xlink="http://www.w3.org/1999/xlink">
    <!-- Generator: Sketch 55.2 (78181) - https://sketchapp.com -->
    <title>蒙版</title>
    <desc>Created with Sketch.</desc>
    <g id="Symbols" stroke="none" stroke-width="1" fill="none" fill-rule="evenodd">
        <g id="icon/iot/应急指挥" fill="#000000">
            <g id="矩形">
                <g id="蒙版">
                    <path d="M15.1666721,19.5 C13.9706721,19.4985917 13.0014138,18.5293333 13.0000054,17.3333333 C13.0000054,16.1367375 13.9700763,15.1666667 15.1666721,15.1666667 C16.3632679,15.1666667 17.3333388,16.1367375 17.3333388,17.3333333 C17.3333388,18.5299292 16.3632679,19.5 15.1666721,19.5 L15.1666721,19.5 Z M0.866672083,25.1333333 L13.0000054,25.1333333 L13.0000054,24.2666667 L0.866672083,24.2666667 L0.866672083,25.1333333 Z M1.71513875,20.8034667 L1.71557208,20.8056333 L1.71947208,20.8056333 L1.75240542,20.8 L12.1147054,20.8 L12.1476388,20.8039 L12.1537054,20.8039 C12.3835346,20.8146792 12.5648304,21.0032333 12.5666721,21.2333333 C12.5647763,21.3799083 12.4876971,21.5152708 12.3625721,21.5917 C12.2958388,21.6400167 12.2157263,21.6662333 12.1333388,21.6666667 L1.73333875,21.6666667 C1.65095125,21.6662333 1.57083875,21.6400167 1.50410542,21.5917 C1.37898042,21.5152708 1.30190125,21.3799083 1.30000542,21.2333333 C1.30163042,21.0022583 1.48428042,20.8131625 1.71513875,20.8034667 L1.71513875,20.8034667 Z M10.5655388,5.2 L10.1322054,6.06666667 L3.73447208,6.06666667 L3.30113875,5.2 L10.5655388,5.2 Z M11.4898388,15.4951333 L11.4898388,15.4968667 L11.9751721,15.9817667 L11.9530721,16.0333333 L11.5223388,16.0333333 C11.4790054,15.8127667 11.4452054,15.5913333 11.4062054,15.3703333 C11.4265721,15.4165375 11.4548471,15.4587333 11.4898388,15.4951333 L11.4898388,15.4951333 Z M19.0666721,16.0333333 L18.3802721,16.0333333 L18.3581721,15.9800333 L18.8435054,15.4951333 C19.0126679,15.3259167 19.0126679,15.0516167 18.8435054,14.8824 L17.6180388,13.6565 C17.4488221,13.4873375 17.1745221,13.4873375 17.0053054,13.6565 L16.5199721,14.1418333 L16.4666721,14.1197333 L16.4666721,13.4333333 C16.4666721,13.194025 16.2726471,13 16.0333388,13 L14.3000054,13 C14.0606971,13 13.8666721,13.194025 13.8666721,13.4333333 L13.8666721,14.1197333 L13.8133721,14.1418333 L13.3280388,13.6565 C13.1561138,13.4939458 12.8872304,13.4939458 12.7153054,13.6565 L11.4898388,14.8824 C11.4180138,14.9567708 11.3751138,15.0543792 11.3689388,15.1575667 C11.0149054,13.0918667 10.8357221,10.99995 10.8333388,8.90413333 L10.8333388,6.60226667 L11.6545054,4.96036667 L11.6506054,4.96036667 C11.6822388,4.900675 11.6991929,4.83426667 11.7000054,4.76666667 L11.7000054,0.433333333 C11.7000054,0.194025 11.5059804,0 11.2666721,0 L9.53333875,0 C9.29403042,0 9.10000542,0.194025 9.10000542,0.433333333 L9.10000542,1.73333333 L8.23333875,1.73333333 L8.23333875,0.433333333 C8.23333875,0.194025 8.03931375,0 7.80000542,0 L6.06667208,0 C5.82736375,0 5.63333875,0.194025 5.63333875,0.433333333 L5.63333875,1.73333333 L4.76667208,1.73333333 L4.76667208,0.433333333 C4.76667208,0.194025 4.57264708,0 4.33333875,0 L2.60000542,0 C2.36069708,0 2.16667208,0.194025 2.16667208,0.433333333 L2.16667208,4.76666667 C2.16786375,4.83367083 2.18498042,4.89948333 2.21650542,4.95863333 L2.21260542,4.95863333 L3.03333875,6.60226667 L3.03333875,8.90413333 C3.02970958,12.6664417 2.45998458,16.4068125 1.34333875,19.9996333 C0.662842917,20.2089875 0.280859583,20.9303792 0.49021375,21.610875 C0.53116375,21.7440708 0.593509583,21.8697375 0.674705417,21.983 L0.66083875,22.0215667 C0.601905417,22.1888333 0.542972083,22.3556667 0.47883875,22.5203333 L0.03423875,23.6639 L0.0299054167,23.6747333 C0.0132220833,23.7198542 0.00428458333,23.7674667 0.00347208333,23.8155667 C0.00347208333,23.8212 1.74379618e-06,23.8259667 1.74379618e-06,23.8316 L1.74379618e-06,25.5649333 C-0.000969583333,25.8042417 0.192297083,25.999025 0.431605417,26 L0.43333875,26 L13.4333388,26 C13.6726471,26 13.8666721,25.805975 13.8666721,25.5666667 L13.8666721,23.8333333 C13.8666721,23.8277 13.8636388,23.8229333 13.8632054,23.8173 C13.8623929,23.7692 13.8534554,23.7216417 13.8367721,23.6764667 L13.8324388,23.6656333 L13.3900054,22.5207667 C13.3258721,22.3556667 13.2665054,22.1888333 13.2075721,22.022 L13.1937054,21.9834333 C13.4114554,21.6837292 13.4865846,21.303425 13.3991054,20.9434333 L13.8151054,20.5274333 L13.8684054,20.5495333 L13.8684054,21.2333333 C13.8684054,21.4726417 14.0624304,21.6666667 14.3017388,21.6666667 L16.0350721,21.6666667 C16.2743804,21.6666667 16.4684054,21.4726417 16.4684054,21.2333333 L16.4684054,20.5469333 L16.5217054,20.5248333 L17.0070388,21.0101667 C17.1762554,21.1793292 17.4505554,21.1793292 17.6197721,21.0101667 L18.8452388,19.7847 C19.0144013,19.6154833 19.0144013,19.3411833 18.8452388,19.1719667 L18.3599054,18.6866333 L18.3802721,18.6333333 L19.0666721,18.6333333 C19.3059804,18.6333333 19.5000017,18.4393083 19.5000017,18.2 L19.5000017,16.4666667 C19.5000017,16.2273583 19.3059804,16.0333333 19.0666721,16.0333333 L19.0666721,16.0333333 Z" id="Fill-1"></path>
                    <path d="M15.1666721,16.0333333 C14.4486929,16.0333333 13.8666721,16.6153542 13.8666721,17.3333333 C13.8666721,18.0513125 14.4486929,18.6333333 15.1666721,18.6333333 C15.8846513,18.6333333 16.4666721,18.0513125 16.4666721,17.3333333 C16.4666721,16.6153542 15.8846513,16.0333333 15.1666721,16.0333333" id="Fill-3"></path>
                    <path d="M21.6666721,7.36666667 C20.9486929,7.36666667 20.3666721,7.9486875 20.3666721,8.66666667 C20.3666721,9.38464583 20.9486929,9.96666667 21.6666721,9.96666667 C22.3846512,9.96666667 22.9666721,9.38464583 22.9666721,8.66666667 C22.9666721,7.9486875 22.3846512,7.36666667 21.6666721,7.36666667" id="Fill-5"></path>
                    <path d="M21.6666721,10.8333333 C20.4700762,10.8333333 19.5000054,9.8632625 19.5000054,8.66666667 C19.5000054,7.47007083 20.4700762,6.5 21.6666721,6.5 C22.8627262,6.50140833 23.8319304,7.47066667 23.8333387,8.66666667 C23.8333387,9.8632625 22.8632679,10.8333333 21.6666721,10.8333333 M25.5666721,7.36666667 L24.8802721,7.36666667 L24.8581721,7.31336667 L25.3435054,6.82846667 C25.5126679,6.65925 25.5126679,6.38495 25.3435054,6.21573333 L24.1180387,4.98983333 C23.9488221,4.82067083 23.6745221,4.82067083 23.5053054,4.98983333 L23.0199721,5.47516667 L22.9666721,5.45306667 L22.9666721,4.76666667 C22.9666721,4.52735833 22.7726471,4.33333333 22.5333387,4.33333333 L20.8000054,4.33333333 C20.5606971,4.33333333 20.3666721,4.52735833 20.3666721,4.76666667 L20.3666721,5.45306667 L20.3133721,5.47516667 L19.8280387,4.98983333 C19.6561137,4.82727917 19.3872304,4.82727917 19.2153054,4.98983333 L17.9898387,6.21573333 C17.8206762,6.38495 17.8206762,6.65925 17.9898387,6.82846667 L18.4751721,7.31336667 L18.4530721,7.36666667 L17.7666721,7.36666667 C17.5273637,7.36666667 17.3333387,7.56069167 17.3333387,7.8 L17.3333387,9.53333333 C17.3333387,9.77264167 17.5273637,9.96666667 17.7666721,9.96666667 L18.4530721,9.96666667 L18.4751721,10.0199667 L17.9898387,10.5053 C17.8206762,10.6745167 17.8206762,10.9488167 17.9898387,11.1180333 L19.2153054,12.3435 C19.3845221,12.5126625 19.6588221,12.5126625 19.8280387,12.3435 L20.3133721,11.8581667 L20.3666721,11.8802667 L20.3666721,12.5666667 C20.3666721,12.805975 20.5606971,13 20.8000054,13 L22.5333387,13 C22.7726471,13 22.9666721,12.805975 22.9666721,12.5666667 L22.9666721,11.8802667 L23.0199721,11.8581667 L23.5053054,12.3435 C23.6745221,12.5126625 23.9488221,12.5126625 24.1180387,12.3435 L25.3435054,11.1180333 C25.5126679,10.9488167 25.5126679,10.6745167 25.3435054,10.5053 L24.8581721,10.0199667 L24.8802721,9.96666667 L25.5666721,9.96666667 C25.8059804,9.96666667 26.0000054,9.77264167 26.0000054,9.53333333 L26.0000054,7.8 C26.0000054,7.56069167 25.8059804,7.36666667 25.5666721,7.36666667" id="Fill-7"></path>
                    <path d="M17.5972388,24.9235946 C17.3389179,24.9790612 17.0755054,25.0236946 16.8159388,25.0566279 L16.9251387,25.9163612 C17.2089721,25.8799612 17.4958388,25.8297487 17.7775054,25.7716279 L17.5972388,24.9235946 Z" id="Fill-9"></path>
                    <path d="M19.1125838,24.4655613 C18.8690504,24.5621946 18.6177171,24.6497279 18.3646504,24.7264279 L18.6159838,25.5558279 C18.8920713,25.4726279 19.1667504,25.3764279 19.4323838,25.2711279 L19.1125838,24.4655613 Z" id="Fill-11"></path>
                    <path d="M25.1294225,15.8790829 C25.1216225,16.1424954 25.1030433,16.4089954 25.07401,16.6702954 L25.9354225,16.7669829 C25.9670558,16.4818496 25.9874225,16.1915162 25.9960892,15.9046496 L25.1294225,15.8790829 Z" id="Fill-13"></path>
                    <path d="M21.8127217,22.8310388 C21.6133342,23.0022054 21.4040883,23.1673054 21.1900217,23.3228721 L21.6996217,24.0244388 C21.9323217,23.8550054 22.160255,23.6747388 22.377355,23.4888387 L21.8127217,22.8310388 Z" id="Fill-15"></path>
                    <path d="M25.9068496,14.1790783 L25.0466829,14.2965117 C25.0826496,14.5565658 25.1077829,14.822145 25.1216496,15.0852325 L25.9883163,15.0397325 C25.9727163,14.7523783 25.9449829,14.4629117 25.9068496,14.1790783" id="Fill-17"></path>
                    <path d="M24.9530612,17.4537783 C24.9019279,17.713345 24.8395279,17.9724783 24.7675946,18.2238658 L25.6004612,18.4625783 C25.6793279,18.1878992 25.7473612,17.9048783 25.8036946,17.6215325 L24.9530612,17.4537783 Z" id="Fill-19"></path>
                    <path d="M20.5304938,23.7609721 C20.3051604,23.8970388 20.0711604,24.0257388 19.8371063,24.1431721 L20.2241271,24.9192721 C20.4810938,24.7892721 20.7354063,24.6510388 20.9807271,24.5024054 L20.5304938,23.7609721 Z" id="Fill-21"></path>
                    <path d="M22.9233496,21.7026387 C22.7569496,21.9037054 22.5766829,22.1000054 22.3920288,22.2898054 L23.0100163,22.8964721 C23.2123829,22.6906387 23.4077621,22.4748387 23.5906288,22.2555721 L22.9233496,21.7026387 Z" id="Fill-23"></path>
                    <path d="M24.5167163,18.9765279 C24.4244163,19.2239613 24.3194954,19.4692279 24.2063954,19.7045279 L24.9864496,20.0793613 C25.1099496,19.8219613 25.2247288,19.5541613 25.3274829,19.2828946 L24.5167163,18.9765279 Z" id="Fill-25"></path>
                    <path d="M23.8333387,20.4065496 C23.7033388,20.6353496 23.5568721,20.8593288 23.4069387,21.0725829 L24.1154387,21.5717829 C24.2801054,21.3386496 24.4374054,21.0951163 24.5834387,20.8429163 L23.8333387,20.4065496 Z" id="Fill-27"></path>
                    <path d="M13.1282775,5.88509458 C13.0034775,6.14249458 12.8886442,6.41029458 12.7859442,6.68156125 L13.5966567,6.98792792 C13.6903108,6.74049458 13.7951775,6.49522792 13.9082233,6.25992792 L13.1282775,5.88509458 Z" id="Fill-29"></path>
                    <path d="M15.1042504,3.06800542 C14.9019379,3.27383875 14.7064504,3.48963875 14.5235838,3.70890542 L15.1896171,4.26313875 C15.3573171,4.06077208 15.5367171,3.86317208 15.7221838,3.67467208 L15.1042504,3.06800542 Z" id="Fill-31"></path>
                    <path d="M13.9992829,4.39271083 C13.8341829,4.62714417 13.6768829,4.8719775 13.5312288,5.1215775 L14.2796496,5.5583775 C14.4131162,5.33044417 14.5574162,5.1059775 14.7077829,4.89191083 L13.9992829,4.39271083 Z" id="Fill-33"></path>
                    <path d="M12.5142496,7.50229458 C12.4366829,7.77659458 12.3673496,8.05999458 12.3110162,8.34339458 L13.1616496,8.51109458 C13.2127829,8.25109458 13.2751829,7.99109458 13.3471163,7.74106125 L12.5142496,7.50229458 Z" id="Fill-35"></path>
                    <path d="M21.1900162,0.04766125 C20.9061829,0.08406125 20.6193162,0.134327917 20.3376496,0.192394583 L20.5174829,1.03999458 C20.7753162,0.985394583 21.0387829,0.94076125 21.2983496,0.907827917 L21.1900162,0.04766125 Z" id="Fill-37"></path>
                    <path d="M12.1797,9.19748917 C12.1476333,9.4826225 12.1272667,9.77295583 12.1190333,10.0598225 L12.9857,10.0853892 C12.9935,9.8219225 13.0121333,9.5554225 13.0411667,9.2941225 L12.1797,9.19748917 Z" id="Fill-39"></path>
                    <path d="M19.5000054,0.408627917 C19.2239721,0.491827917 18.9492388,0.588027917 18.6836054,0.693327917 L19.0034054,1.49889458 C19.2469388,1.40182792 19.4982721,1.31429458 19.7513388,1.23889458 L19.5000054,0.408627917 Z" id="Fill-41"></path>
                    <path d="M16.4150946,1.9404775 C16.1823946,2.10991083 15.9544612,2.2901775 15.7373612,2.4760775 L16.3006946,3.1338775 C16.5008946,2.96271083 16.7106279,2.7971775 16.9246946,2.64334417 L16.4150946,1.9404775 Z" id="Fill-43"></path>
                    <path d="M17.8932,1.0439 C17.6366667,1.17173333 17.3814333,1.3117 17.1357333,1.46076667 L17.5842333,2.2022 C17.81,2.06656667 18.044,1.93786667 18.2793,1.82 L17.8932,1.0439 Z" id="Fill-45"></path>
                    <path d="M12.9943721,10.8792721 L12.1290054,10.9247721 C12.1446054,11.2120721 12.1723388,11.5015387 12.2104721,11.7853721 L13.0693388,11.6679387 C13.0333721,11.4079387 13.0082388,11.1423054 12.9943721,10.8792721" id="Fill-47"></path>
                </g>
            </g>
        </g>
    </g>
</svg>