<?xml version="1.0" encoding="UTF-8"?>
<svg width="17px" height="26px" viewBox="0 0 17 26" version="1.1" xmlns="http://www.w3.org/2000/svg" xmlns:xlink="http://www.w3.org/1999/xlink">
    <!-- Generator: Sketch 55.2 (78181) - https://sketchapp.com -->
    <title>蒙版</title>
    <desc>Created with Sketch.</desc>
    <g id="Symbols" stroke="none" stroke-width="1" fill="none" fill-rule="evenodd">
        <g id="icon/iot/对讲机" fill="#000000">
            <g id="矩形">
                <g id="蒙版" transform="translate(0.000000, 0.000000)">
                    <path d="M11.3642384,21.5231788 C10.9528185,21.5231788 10.6181015,21.1755881 10.6181015,20.7483444 C10.6181015,20.3211007 10.9528185,19.9735099 11.3642384,19.9735099 C11.7756583,19.9735099 12.1103753,20.3211007 12.1103753,20.7483444 C12.1103753,21.1755881 11.7756583,21.5231788 11.3642384,21.5231788 M11.3642384,18.4238411 C10.1300286,18.4238411 9.12582781,19.4666132 9.12582781,20.7483444 C9.12582781,22.0300755 10.1300286,23.0728477 11.3642384,23.0728477 C12.5984483,23.0728477 13.602649,22.0300755 13.602649,20.7483444 C13.602649,19.4666132 12.5984483,18.4238411 11.3642384,18.4238411" id="Fill-1"></path>
                    <path d="M8.35099338,6.02649007 C8.77890861,6.02649007 9.12582781,6.37340927 9.12582781,6.8013245 C9.12582781,7.22923974 8.77890861,7.57615894 8.35099338,7.57615894 C7.92307815,7.57615894 7.57615894,7.22923974 7.57615894,6.8013245 C7.57615894,6.37340927 7.92307815,6.02649007 8.35099338,6.02649007" id="Fill-3"></path>
                    <path d="M8.43708609,9.1602649 C7.18383788,9.1602649 6.16423841,8.14066543 6.16423841,6.88741722 C6.16423841,5.63416901 7.18383788,4.61456954 8.43708609,4.61456954 C9.6902838,4.61456954 10.7099338,5.63416901 10.7099338,6.88741722 C10.7099338,8.14066543 9.6902838,9.1602649 8.43708609,9.1602649 M8.43708609,3.09933775 C6.34833907,3.09933775 4.64900662,4.7986702 4.64900662,6.88741722 C4.64900662,8.97616424 6.34833907,10.6754967 8.43708609,10.6754967 C10.5258331,10.6754967 12.2251656,8.97616424 12.2251656,6.88741722 C12.2251656,4.7986702 10.5258331,3.09933775 8.43708609,3.09933775" id="Fill-5"></path>
                    <path d="M15.1836243,23.7148438 C15.1836243,24.1348555 14.8430556,24.4765625 14.4244431,24.4765625 L2.27754365,24.4765625 C1.85893113,24.4765625 1.51836243,24.1348555 1.51836243,23.7148438 L1.51836243,2.28515625 C1.51836243,1.86514453 1.85893113,1.5234375 2.27754365,1.5234375 L14.4244431,1.5234375 C14.8430556,1.5234375 15.1836243,1.86514453 15.1836243,2.28515625 L15.1836243,23.7148438 Z M14.4244431,0 L2.27754365,0 C1.02170608,0 0,1.02512109 0,2.28515625 L0,23.7148438 C0,24.9748281 1.02170608,26 2.27754365,26 L14.4244431,26 C15.6802807,26 16.7019868,24.9748281 16.7019868,23.7148438 L16.7019868,2.28515625 C16.7019868,1.02512109 15.6802807,0 14.4244431,0 L14.4244431,0 Z" id="Fill-7"></path>
                    <path d="M13.012299,12.2251656 L3.86187323,12.2251656 C3.4407503,12.2251656 3.09933775,12.5720848 3.09933775,13 C3.09933775,13.4279152 3.4407503,13.7748344 3.86187323,13.7748344 L13.012299,13.7748344 C13.4334219,13.7748344 13.7748344,13.4279152 13.7748344,13 C13.7748344,12.5720848 13.4334219,12.2251656 13.012299,12.2251656" id="Fill-9"></path>
                    <path d="M12.8278146,15.3245033 C13.2557298,15.3245033 13.602649,15.6714225 13.602649,16.0993377 C13.602649,16.527253 13.2557298,16.8741722 12.8278146,16.8741722 C12.3998993,16.8741722 12.0529801,16.527253 12.0529801,16.0993377 C12.0529801,15.6714225 12.3998993,15.3245033 12.8278146,15.3245033" id="Fill-11"></path>
                    <path d="M9.90066225,15.3245033 C10.3285775,15.3245033 10.6754967,15.6714225 10.6754967,16.0993377 C10.6754967,16.527253 10.3285775,16.8741722 9.90066225,16.8741722 C9.47274702,16.8741722 9.12582781,16.527253 9.12582781,16.0993377 C9.12582781,15.6714225 9.47274702,15.3245033 9.90066225,15.3245033" id="Fill-13"></path>
                    <path d="M6.8013245,15.3245033 C7.22923974,15.3245033 7.57615894,15.6714225 7.57615894,16.0993377 C7.57615894,16.527253 7.22923974,16.8741722 6.8013245,16.8741722 C6.37340927,16.8741722 6.02649007,16.527253 6.02649007,16.0993377 C6.02649007,15.6714225 6.37340927,15.3245033 6.8013245,15.3245033" id="Fill-15"></path>
                    <path d="M3.87417219,15.3245033 C4.30208742,15.3245033 4.64900662,15.6714225 4.64900662,16.0993377 C4.64900662,16.527253 4.30208742,16.8741722 3.87417219,16.8741722 C3.44625695,16.8741722 3.09933775,16.527253 3.09933775,16.0993377 C3.09933775,15.6714225 3.44625695,15.3245033 3.87417219,15.3245033" id="Fill-17"></path>
                    <path d="M3.87417219,18.4238411 C4.30208742,18.4238411 4.64900662,18.7707603 4.64900662,19.1986755 C4.64900662,19.6265907 4.30208742,19.9735099 3.87417219,19.9735099 C3.44625695,19.9735099 3.09933775,19.6265907 3.09933775,19.1986755 C3.09933775,18.7707603 3.44625695,18.4238411 3.87417219,18.4238411" id="Fill-19"></path>
                    <path d="M6.8013245,18.4238411 C7.22923974,18.4238411 7.57615894,18.7707603 7.57615894,19.1986755 C7.57615894,19.6265907 7.22923974,19.9735099 6.8013245,19.9735099 C6.37340927,19.9735099 6.02649007,19.6265907 6.02649007,19.1986755 C6.02649007,18.7707603 6.37340927,18.4238411 6.8013245,18.4238411" id="Fill-21"></path>
                    <path d="M6.8013245,21.3509934 C7.22923974,21.3509934 7.57615894,21.6979126 7.57615894,22.1258278 C7.57615894,22.553743 7.22923974,22.9006623 6.8013245,22.9006623 C6.37340927,22.9006623 6.02649007,22.553743 6.02649007,22.1258278 C6.02649007,21.6979126 6.37340927,21.3509934 6.8013245,21.3509934" id="Fill-23"></path>
                    <path d="M3.87417219,21.3509934 C4.30208742,21.3509934 4.64900662,21.6979126 4.64900662,22.1258278 C4.64900662,22.553743 4.30208742,22.9006623 3.87417219,22.9006623 C3.44625695,22.9006623 3.09933775,22.553743 3.09933775,22.1258278 C3.09933775,21.6979126 3.44625695,21.3509934 3.87417219,21.3509934" id="Fill-25"></path>
                </g>
            </g>
        </g>
    </g>
</svg>