<?xml version="1.0" encoding="UTF-8"?>
<svg width="17px" height="26px" viewBox="0 0 17 26" version="1.1" xmlns="http://www.w3.org/2000/svg" xmlns:xlink="http://www.w3.org/1999/xlink">
    <!-- Generator: Sketch 55.2 (78181) - https://sketchapp.com -->
    <title>蒙版</title>
    <desc>Created with Sketch.</desc>
    <g id="Symbols" stroke="none" stroke-width="1" fill="none" fill-rule="evenodd">
        <g id="icon/iot/执法记录仪" fill="#000000">
            <g id="矩形" transform="translate(-0.000000, 0.000000)">
                <g id="蒙版" transform="translate(0.000000, 0.000000)">
                    <path d="M8.44670051,4.57086599 C6.2731269,4.57086599 4.50492893,6.33906396 4.50492893,8.51263756 C4.50492893,10.6862772 6.2731269,12.4544751 8.44670051,12.4544751 C10.6202741,12.4544751 12.3884721,10.6862772 12.3884721,8.51263756 C12.3884721,6.33906396 10.6202741,4.57086599 8.44670051,4.57086599 M8.44670051,13.5806579 C5.65196447,13.5806579 3.3786802,11.3068457 3.3786802,8.51263756 C3.3786802,5.71849543 5.65196447,3.44468325 8.44670051,3.44468325 C11.2414365,3.44468325 13.5147208,5.71849543 13.5147208,8.51263756 C13.5147208,11.3068457 11.2414365,13.5806579 8.44670051,13.5806579" id="Fill-1"></path>
                    <path d="M8.44670051,11.3282198 C6.89422335,11.3282198 5.63111168,10.0651741 5.63111168,8.51263096 C5.63111168,6.96015381 6.89422335,5.69710812 8.44670051,5.69710812 C8.75751269,5.69710812 9.00979188,5.94938731 9.00979188,6.26019949 C9.00979188,6.57107766 8.75751269,6.82329086 8.44670051,6.82329086 C7.5153198,6.82329086 6.75736041,7.58125025 6.75736041,8.51263096 C6.75736041,9.44407766 7.5153198,10.2020371 8.44670051,10.2020371 C9.37808122,10.2020371 10.1360406,9.44407766 10.1360406,8.51263096 C10.1360406,8.20181878 10.3883198,7.94953959 10.699198,7.94953959 C11.0100102,7.94953959 11.2622893,8.20181878 11.2622893,8.51263096 C11.2622893,10.0651741 9.99917766,11.3282198 8.44670051,11.3282198" id="Fill-3"></path>
                    <g id="编组" transform="translate(0.000000, 0.035173)">
                        <path d="M8.44670051,1.15703299 C4.41029949,1.15703299 1.12624873,4.44108376 1.12624873,8.47748477 L1.12624873,17.4872766 C1.12624873,21.5236777 4.41029949,24.8077944 8.44670051,24.8077944 C12.4831015,24.8077944 15.7672183,21.5236777 15.7672183,17.4872766 L15.7672183,8.47748477 C15.7672183,4.44108376 12.4831015,1.15703299 8.44670051,1.15703299 M8.44670051,25.9339772 C3.78920305,25.9339772 0,22.1447741 0,17.4872766 L0,8.47748477 C0,3.81998731 3.78920305,0.030784264 8.44670051,0.030784264 C13.104198,0.030784264 16.893401,3.81998731 16.893401,8.47748477 L16.893401,17.4872766 C16.893401,22.1447741 13.104198,25.9339772 8.44670051,25.9339772" id="Fill-5"></path>
                    </g>
                    <path d="M7.88360914,19.2118223 L9.00979188,19.2118223 L9.00979188,18.0855736 L7.88360914,18.0855736 L7.88360914,19.2118223 Z M9.57288325,20.3380711 L7.32045178,20.3380711 C7.00963959,20.3380711 6.75736041,20.0857919 6.75736041,19.7749797 L6.75736041,17.5224822 C6.75736041,17.2116701 7.00963959,16.9593909 7.32045178,16.9593909 L9.57288325,16.9593909 C9.88376142,16.9593909 10.1360406,17.2116701 10.1360406,17.5224822 L10.1360406,19.7749797 C10.1360406,20.0857919 9.88376142,20.3380711 9.57288325,20.3380711 L9.57288325,20.3380711 Z" id="Fill-7"></path>
                    <path d="M10.6991848,22.5904827 L6.19425584,22.5904827 C5.88337766,22.5904827 5.63116447,22.3382695 5.63116447,22.0273914 C5.63116447,21.7165792 5.88337766,21.4643 6.19425584,21.4643 L10.6991848,21.4643 C11.009997,21.4643 11.2622761,21.7165792 11.2622761,22.0273914 C11.2622761,22.3382695 11.009997,22.5904827 10.6991848,22.5904827" id="Fill-9"></path>
                    <path d="M8.44670051,18.0855802 C8.13588832,18.0855802 7.88360914,17.833367 7.88360914,17.5224888 L7.88360914,13.0175599 C7.88360914,12.7067477 8.13588832,12.4544685 8.44670051,12.4544685 C8.75751269,12.4544685 9.00979188,12.7067477 9.00979188,13.0175599 L9.00979188,17.5224888 C9.00979188,17.833367 8.75751269,18.0855802 8.44670051,18.0855802" id="Fill-10"></path>
                </g>
            </g>
        </g>
    </g>
</svg>