<?xml version="1.0" encoding="utf-8"?>
<!-- Generator: Adobe Illustrator 22.1.0, SVG Export Plug-In . SVG Version: 6.00 Build 0)  -->
<svg version="1.1" id="图层_1" xmlns="http://www.w3.org/2000/svg" xmlns:xlink="http://www.w3.org/1999/xlink" x="0px" y="0px"
	 viewBox="0 0 23 23" style="enable-background:new 0 0 23 23;" xml:space="preserve">
<style type="text/css">
	.st0{filter:url(#Adobe_OpacityMaskFilter);}
	.st1{fill:#FFFFFF;}
	.st2{mask:url(#mask-2_1_);fill:#030104;}
	.st3{filter:url(#Adobe_OpacityMaskFilter_1_);}
	.st4{mask:url(#mask-4_1_);fill:#030104;}
	.st5{filter:url(#Adobe_OpacityMaskFilter_2_);}
	.st6{mask:url(#mask-6_1_);fill:#030104;}
	.st7{filter:url(#Adobe_OpacityMaskFilter_3_);}
	.st8{mask:url(#mask-8_1_);fill:#030104;}
	.st9{fill:#030104;}
	.st10{filter:url(#Adobe_OpacityMaskFilter_4_);}
	.st11{mask:url(#mask-10_1_);fill:#030104;}
	.st12{filter:url(#Adobe_OpacityMaskFilter_5_);}
	.st13{mask:url(#mask-12_1_);fill:#030104;}
	.st14{filter:url(#Adobe_OpacityMaskFilter_6_);}
	.st15{mask:url(#mask-14_1_);fill:#030104;}
	.st16{filter:url(#Adobe_OpacityMaskFilter_7_);}
	.st17{mask:url(#mask-16_1_);fill:#030104;}
	.st18{filter:url(#Adobe_OpacityMaskFilter_8_);}
	.st19{mask:url(#mask-18_1_);fill:#030104;}
	.st20{filter:url(#Adobe_OpacityMaskFilter_9_);}
	.st21{mask:url(#mask-20_1_);fill:#030104;}
	.st22{filter:url(#Adobe_OpacityMaskFilter_10_);}
	.st23{mask:url(#mask-22_1_);fill:#030104;}
</style>
<title>icon/iot/扬尘监测</title>
<desc>Created with Sketch.</desc>
<defs>
	<filter id="Adobe_OpacityMaskFilter" filterUnits="userSpaceOnUse" x="16.2" y="0.6" width="1.6" height="1.3">
		<feColorMatrix  type="matrix" values="1 0 0 0 0  0 1 0 0 0  0 0 1 0 0  0 0 0 1 0"/>
	</filter>
</defs>
<mask maskUnits="userSpaceOnUse" x="16.2" y="0.6" width="1.6" height="1.3" id="mask-2_1_">
	<g class="st0">
		<polygon id="path-1_1_" class="st1" points="16.2,0.6 17.8,0.6 17.8,2.1 16.2,2.1 		"/>
	</g>
</mask>
<path id="Fill-1" class="st2" d="M16.8,1.9h0.3c0.4,0,0.7-0.3,0.7-0.7s-0.3-0.7-0.7-0.7h-0.3c-0.4,0-0.6,0.3-0.6,0.7
	S16.5,1.9,16.8,1.9"/>
<defs>
	<filter id="Adobe_OpacityMaskFilter_1_" filterUnits="userSpaceOnUse" x="10.1" y="0.6" width="1.6" height="1.3">
		<feColorMatrix  type="matrix" values="1 0 0 0 0  0 1 0 0 0  0 0 1 0 0  0 0 0 1 0"/>
	</filter>
</defs>
<mask maskUnits="userSpaceOnUse" x="10.1" y="0.6" width="1.6" height="1.3" id="mask-4_1_">
	<g class="st3">
		<polygon id="path-3_1_" class="st1" points="10.1,0.6 11.8,0.6 11.8,2.1 10.1,2.1 		"/>
	</g>
</mask>
<path id="Fill-3" class="st4" d="M10.8,1.9h0.3c0.4,0,0.7-0.3,0.7-0.7s-0.3-0.7-0.7-0.7h-0.3c-0.4,0-0.7,0.3-0.7,0.7
	S10.4,1.9,10.8,1.9"/>
<defs>
	<filter id="Adobe_OpacityMaskFilter_2_" filterUnits="userSpaceOnUse" x="7.1" y="0.6" width="1.6" height="1.3">
		<feColorMatrix  type="matrix" values="1 0 0 0 0  0 1 0 0 0  0 0 1 0 0  0 0 0 1 0"/>
	</filter>
</defs>
<mask maskUnits="userSpaceOnUse" x="7.1" y="0.6" width="1.6" height="1.3" id="mask-6_1_">
	<g class="st5">
		<polygon id="path-5_1_" class="st1" points="7.1,0.6 8.7,0.6 8.7,2.1 7.1,2.1 		"/>
	</g>
</mask>
<path id="Fill-5" class="st6" d="M7.7,1.9h0.3c0.4,0,0.7-0.3,0.7-0.7S8.4,0.6,8.1,0.6H7.7c-0.4,0-0.7,0.3-0.7,0.7S7.4,1.9,7.7,1.9"
	/>
<defs>
	<filter id="Adobe_OpacityMaskFilter_3_" filterUnits="userSpaceOnUse" x="13.1" y="0.6" width="1.6" height="1.3">
		<feColorMatrix  type="matrix" values="1 0 0 0 0  0 1 0 0 0  0 0 1 0 0  0 0 0 1 0"/>
	</filter>
</defs>
<mask maskUnits="userSpaceOnUse" x="13.1" y="0.6" width="1.6" height="1.3" id="mask-8_1_">
	<g class="st7">
		<polygon id="path-7_1_" class="st1" points="13.1,0.6 14.8,0.6 14.8,2.1 13.1,2.1 		"/>
	</g>
</mask>
<path id="Fill-7" class="st8" d="M13.8,1.9h0.3c0.4,0,0.6-0.3,0.6-0.7s-0.3-0.7-0.6-0.7h-0.3c-0.4,0-0.7,0.3-0.7,0.7
	S13.4,1.9,13.8,1.9"/>
<path id="Fill-9" class="st9" d="M19.8,2.6h0.3c0.4,0,0.7-0.3,0.7-0.7s-0.3-0.7-0.7-0.7h-0.3c-0.4,0-0.7,0.3-0.7,0.7
	S19.4,2.6,19.8,2.6"/>
<defs>
	<filter id="Adobe_OpacityMaskFilter_4_" filterUnits="userSpaceOnUse" x="3.7" y="0.6" width="1.6" height="1.3">
		<feColorMatrix  type="matrix" values="1 0 0 0 0  0 1 0 0 0  0 0 1 0 0  0 0 0 1 0"/>
	</filter>
</defs>
<mask maskUnits="userSpaceOnUse" x="3.7" y="0.6" width="1.6" height="1.3" id="mask-10_1_">
	<g class="st10">
		<polygon id="path-9_1_" class="st1" points="3.7,0.6 5.4,0.6 5.4,2.1 3.7,2.1 		"/>
	</g>
</mask>
<path id="Fill-11" class="st11" d="M4.4,1.9h0.3c0.4,0,0.7-0.3,0.7-0.7S5.1,0.6,4.7,0.6H4.4C4,0.6,3.7,0.9,3.7,1.3S4,1.9,4.4,1.9"/>
<path id="Fill-13" class="st9" d="M14.2,4c0,0.4,0.3,0.7,0.7,0.7h0.3c0.4,0,0.7-0.3,0.7-0.7s-0.3-0.7-0.7-0.7h-0.3
	C14.5,3.3,14.2,3.6,14.2,4"/>
<path id="Fill-15" class="st9" d="M2.8,4.6h0.3c0.4,0,0.7-0.3,0.7-0.7c0-0.4-0.3-0.7-0.7-0.7H2.8C2.4,3.3,2.1,3.6,2.1,4
	C2.1,4.3,2.4,4.6,2.8,4.6"/>
<path id="Fill-17" class="st9" d="M17.3,4c0,0.4,0.3,0.7,0.7,0.7h0.3c0.4,0,0.7-0.3,0.7-0.7s-0.3-0.7-0.7-0.7h-0.3
	C17.5,3.3,17.3,3.6,17.3,4"/>
<path id="Fill-19" class="st9" d="M8.2,4c0,0.4,0.3,0.7,0.7,0.7h0.3c0.4,0,0.7-0.3,0.7-0.7S9.5,3.3,9.2,3.3H8.8
	C8.5,3.3,8.2,3.6,8.2,4"/>
<path id="Fill-21" class="st9" d="M11.2,4c0,0.4,0.3,0.7,0.7,0.7h0.3c0.4,0,0.7-0.3,0.7-0.7s-0.3-0.7-0.7-0.7h-0.3
	C11.5,3.3,11.2,3.6,11.2,4"/>
<path id="Fill-23" class="st9" d="M5.1,4c0,0.4,0.3,0.7,0.7,0.7h0.3c0.4,0,0.7-0.3,0.7-0.7S6.5,3.3,6.1,3.3H5.8
	C5.4,3.3,5.1,3.6,5.1,4"/>
<path id="Fill-25" class="st9" d="M20.3,4c0,0.4,0.3,0.7,0.7,0.7h0.3c0.4,0,0.7-0.3,0.7-0.7s-0.3-0.7-0.7-0.7h-0.3
	C20.6,3.3,20.3,3.6,20.3,4"/>
<path id="Fill-27" class="st9" d="M7.7,6.9c0-0.4-0.3-0.7-0.7-0.7H6.8c-0.4,0-0.7,0.3-0.7,0.7c0,0.4,0.3,0.7,0.7,0.7h0.3
	C7.5,7.6,7.7,7.3,7.7,6.9"/>
<path id="Fill-29" class="st9" d="M9.8,7.6h0.3c0.4,0,0.7-0.3,0.7-0.7s-0.3-0.7-0.7-0.7H9.8c-0.4,0-0.7,0.3-0.7,0.7S9.4,7.6,9.8,7.6
	"/>
<path id="Fill-31" class="st9" d="M15.8,7.6h0.3c0.4,0,0.7-0.3,0.7-0.7s-0.3-0.7-0.7-0.7h-0.3c-0.4,0-0.7,0.3-0.7,0.7
	S15.5,7.6,15.8,7.6"/>
<path id="Fill-33" class="st9" d="M12.8,7.6h0.3c0.4,0,0.7-0.3,0.7-0.7s-0.3-0.7-0.7-0.7h-0.3c-0.4,0-0.7,0.3-0.7,0.7
	S12.4,7.6,12.8,7.6"/>
<defs>
	<filter id="Adobe_OpacityMaskFilter_5_" filterUnits="userSpaceOnUse" x="21.2" y="6.3" width="1.6" height="1.3">
		<feColorMatrix  type="matrix" values="1 0 0 0 0  0 1 0 0 0  0 0 1 0 0  0 0 0 1 0"/>
	</filter>
</defs>
<mask maskUnits="userSpaceOnUse" x="21.2" y="6.3" width="1.6" height="1.3" id="mask-12_1_">
	<g class="st12">
		<polygon id="path-11_1_" class="st1" points="21.2,6.1 22.9,6.1 22.9,7.7 21.2,7.7 		"/>
	</g>
</mask>
<path id="Fill-35" class="st13" d="M21.2,6.9c0,0.4,0.3,0.7,0.7,0.7h0.3c0.4,0,0.7-0.3,0.7-0.7c0-0.4-0.3-0.7-0.7-0.7h-0.3
	C21.5,6.3,21.2,6.6,21.2,6.9"/>
<path id="Fill-37" class="st9" d="M18.9,7.6h0.3c0.4,0,0.6-0.3,0.6-0.7s-0.3-0.7-0.6-0.7h-0.3c-0.4,0-0.7,0.3-0.7,0.7
	S18.5,7.6,18.9,7.6"/>
<path id="Fill-39" class="st9" d="M4.7,6.9c0-0.4-0.3-0.7-0.7-0.7H3.7c-0.4,0-0.7,0.3-0.7,0.7c0,0.4,0.3,0.7,0.7,0.7h0.3
	C4.4,7.6,4.7,7.3,4.7,6.9"/>
<path id="Fill-41" class="st9" d="M0.7,7.6H1c0.4,0,0.7-0.3,0.7-0.7S1.4,6.3,1,6.3H0.7c-0.4,0-0.7,0.3-0.7,0.7S0.3,7.6,0.7,7.6"/>
<path id="Fill-43" class="st9" d="M2.7,9.7c0-0.4-0.3-0.7-0.7-0.7H1.7C1.3,9.1,1,9.4,1,9.7c0,0.4,0.3,0.7,0.7,0.7H2
	C2.4,10.4,2.7,10.1,2.7,9.7"/>
<path id="Fill-45" class="st9" d="M20.2,10.4c0.4,0,0.7-0.3,0.7-0.7s-0.3-0.7-0.7-0.7h-0.3c-0.4,0-0.7,0.3-0.7,0.7
	c0,0.4,0.3,0.7,0.7,0.7H20.2z"/>
<path id="Fill-47" class="st9" d="M14.1,10.4c0.4,0,0.6-0.3,0.6-0.7s-0.3-0.7-0.6-0.7h-0.3c-0.4,0-0.7,0.3-0.7,0.7
	c0,0.4,0.3,0.7,0.7,0.7H14.1z"/>
<path id="Fill-49" class="st9" d="M11.1,10.4c0.4,0,0.7-0.3,0.7-0.7s-0.3-0.7-0.7-0.7h-0.3c-0.4,0-0.7,0.3-0.7,0.7
	c0,0.4,0.3,0.7,0.7,0.7H11.1z"/>
<path id="Fill-51" class="st9" d="M7.7,10.4h0.3c0.4,0,0.7-0.3,0.7-0.7S8.4,9.1,8.1,9.1H7.7c-0.4,0-0.7,0.3-0.7,0.7
	C7.1,10.1,7.4,10.4,7.7,10.4"/>
<path id="Fill-53" class="st9" d="M17.2,10.4c0.4,0,0.7-0.3,0.7-0.7s-0.3-0.7-0.7-0.7h-0.3c-0.4,0-0.6,0.3-0.6,0.7
	c0,0.4,0.3,0.7,0.6,0.7H17.2z"/>
<path id="Fill-55" class="st9" d="M4.7,10.4h0.3c0.4,0,0.7-0.3,0.7-0.7S5.4,9.1,5.1,9.1H4.7c-0.4,0-0.7,0.3-0.7,0.7
	C4.1,10.1,4.4,10.4,4.7,10.4"/>
<path id="Fill-57" class="st9" d="M14.9,13.4h0.3c0.4,0,0.7-0.3,0.7-0.7c0-0.4-0.3-0.7-0.7-0.7h-0.3c-0.4,0-0.7,0.3-0.7,0.7
	C14.2,13.2,14.5,13.4,14.9,13.4"/>
<path id="Fill-59" class="st9" d="M6.8,12.8c0-0.4-0.3-0.7-0.7-0.7H5.8c-0.4,0-0.7,0.3-0.7,0.7c0,0.4,0.3,0.7,0.7,0.7h0.3
	C6.5,13.4,6.8,13.2,6.8,12.8"/>
<path id="Fill-61" class="st9" d="M17.9,13.4h0.3c0.4,0,0.7-0.3,0.7-0.7c0-0.4-0.3-0.7-0.7-0.7h-0.3c-0.4,0-0.7,0.3-0.7,0.7
	S17.5,13.4,17.9,13.4"/>
<path id="Fill-63" class="st9" d="M11.9,13.4h0.3c0.4,0,0.7-0.3,0.7-0.7c0-0.4-0.3-0.7-0.7-0.7h-0.3c-0.4,0-0.7,0.3-0.7,0.7
	S11.5,13.4,11.9,13.4"/>
<path id="Fill-65" class="st9" d="M8.8,13.4h0.3c0.4,0,0.7-0.3,0.7-0.7c0-0.4-0.3-0.7-0.7-0.7H8.8c-0.4,0-0.7,0.3-0.7,0.7
	S8.5,13.4,8.8,13.4"/>
<path id="Fill-67" class="st9" d="M3.8,12.8c0-0.4-0.3-0.7-0.7-0.7H2.8c-0.4,0-0.7,0.3-0.7,0.7c0,0.4,0.3,0.7,0.7,0.7h0.3
	C3.5,13.4,3.8,13.2,3.8,12.8"/>
<path id="Fill-69" class="st9" d="M21.9,12.8c0-0.4-0.3-0.7-0.7-0.7h-0.3c-0.4,0-0.7,0.3-0.7,0.7c0,0.4,0.3,0.7,0.7,0.7h0.3
	C21.6,13.4,21.9,13.2,21.9,12.8"/>
<path id="Fill-71" class="st9" d="M15.8,16.2h0.3c0.4,0,0.7-0.3,0.7-0.7c0-0.4-0.3-0.7-0.7-0.7h-0.3c-0.4,0-0.7,0.3-0.7,0.7
	C15.1,15.9,15.4,16.2,15.8,16.2"/>
<path id="Fill-73" class="st9" d="M12.8,16.2h0.3c0.4,0,0.7-0.3,0.7-0.7c0-0.4-0.3-0.7-0.7-0.7h-0.3c-0.4,0-0.7,0.3-0.7,0.7
	C12.1,15.9,12.4,16.2,12.8,16.2"/>
<path id="Fill-75" class="st9" d="M18.8,16.2h0.3c0.4,0,0.7-0.3,0.7-0.7c0-0.4-0.3-0.7-0.7-0.7h-0.3c-0.4,0-0.7,0.3-0.7,0.7
	C18.2,15.9,18.4,16.2,18.8,16.2"/>
<path id="Fill-77" class="st9" d="M22.2,14.9h-0.3c-0.4,0-0.6,0.3-0.6,0.7c0,0.4,0.3,0.7,0.6,0.7h0.3c0.4,0,0.7-0.3,0.7-0.7
	S22.5,14.9,22.2,14.9"/>
<path id="Fill-79" class="st9" d="M4.7,15.5c0-0.4-0.3-0.7-0.7-0.7H3.7c-0.4,0-0.7,0.3-0.7,0.7c0,0.4,0.3,0.7,0.7,0.7H4
	C4.4,16.2,4.7,15.9,4.7,15.5"/>
<path id="Fill-81" class="st9" d="M9.7,16.2h0.3c0.4,0,0.7-0.3,0.7-0.7c0-0.4-0.3-0.7-0.7-0.7H9.7c-0.4,0-0.7,0.3-0.7,0.7
	C9.1,15.9,9.4,16.2,9.7,16.2"/>
<defs>
	<filter id="Adobe_OpacityMaskFilter_6_" filterUnits="userSpaceOnUse" x="0" y="14.9" width="1.6" height="1.3">
		<feColorMatrix  type="matrix" values="1 0 0 0 0  0 1 0 0 0  0 0 1 0 0  0 0 0 1 0"/>
	</filter>
</defs>
<mask maskUnits="userSpaceOnUse" x="0" y="14.9" width="1.6" height="1.3" id="mask-14_1_">
	<g class="st14">
		<polygon id="path-13_1_" class="st1" points="0,14.7 1.6,14.7 1.6,16.4 0,16.4 		"/>
	</g>
</mask>
<path id="Fill-83" class="st15" d="M1,14.9H0.7c-0.4,0-0.7,0.3-0.7,0.7c0,0.4,0.3,0.7,0.7,0.7H1c0.4,0,0.7-0.3,0.7-0.7
	C1.6,15.2,1.4,14.9,1,14.9"/>
<path id="Fill-85" class="st9" d="M7.7,15.5c0-0.4-0.3-0.7-0.7-0.7H6.7c-0.4,0-0.7,0.3-0.7,0.7c0,0.4,0.3,0.7,0.7,0.7H7
	C7.4,16.2,7.7,15.9,7.7,15.5"/>
<path id="Fill-87" class="st9" d="M20.1,17.7h-0.3c-0.4,0-0.7,0.3-0.7,0.7c0,0.4,0.3,0.7,0.7,0.7h0.3c0.4,0,0.7-0.3,0.7-0.7
	C20.8,18,20.5,17.7,20.1,17.7"/>
<path id="Fill-89" class="st9" d="M11.7,18.4c0-0.4-0.3-0.7-0.7-0.7h-0.3c-0.4,0-0.7,0.3-0.7,0.7c0,0.4,0.3,0.6,0.7,0.6H11
	C11.4,19,11.7,18.7,11.7,18.4"/>
<path id="Fill-91" class="st9" d="M5,17.7H4.7C4.3,17.7,4,18,4,18.4C4,18.7,4.3,19,4.7,19H5c0.4,0,0.7-0.3,0.7-0.7
	C5.6,18,5.4,17.7,5,17.7"/>
<path id="Fill-93" class="st9" d="M17.8,18.4c0-0.4-0.3-0.7-0.7-0.7h-0.3c-0.4,0-0.7,0.3-0.7,0.7c0,0.4,0.3,0.6,0.7,0.6h0.3
	C17.5,19,17.8,18.7,17.8,18.4"/>
<path id="Fill-95" class="st9" d="M14.7,18.4c0-0.4-0.3-0.7-0.7-0.7h-0.3c-0.4,0-0.7,0.3-0.7,0.7c0,0.4,0.3,0.6,0.7,0.6h0.3
	C14.4,19,14.7,18.7,14.7,18.4"/>
<path id="Fill-97" class="st9" d="M8.7,18.4c0-0.4-0.3-0.7-0.7-0.7H7.7C7.3,17.7,7,18,7,18.4C7,18.7,7.3,19,7.7,19H8
	C8.4,19,8.7,18.7,8.7,18.4"/>
<defs>
	<filter id="Adobe_OpacityMaskFilter_7_" filterUnits="userSpaceOnUse" x="11.1" y="20.8" width="1.6" height="1.3">
		<feColorMatrix  type="matrix" values="1 0 0 0 0  0 1 0 0 0  0 0 1 0 0  0 0 0 1 0"/>
	</filter>
</defs>
<mask maskUnits="userSpaceOnUse" x="11.1" y="20.8" width="1.6" height="1.3" id="mask-16_1_">
	<g class="st16">
		<polygon id="path-15_1_" class="st1" points="11.1,20.6 12.8,20.6 12.8,22.1 11.1,22.1 		"/>
	</g>
</mask>
<path id="Fill-99" class="st17" d="M12.1,20.8h-0.3c-0.4,0-0.7,0.3-0.7,0.7s0.3,0.7,0.7,0.7h0.3c0.4,0,0.7-0.3,0.7-0.7
	S12.5,20.8,12.1,20.8"/>
<defs>
	<filter id="Adobe_OpacityMaskFilter_8_" filterUnits="userSpaceOnUse" x="17.2" y="20.8" width="1.6" height="1.3">
		<feColorMatrix  type="matrix" values="1 0 0 0 0  0 1 0 0 0  0 0 1 0 0  0 0 0 1 0"/>
	</filter>
</defs>
<mask maskUnits="userSpaceOnUse" x="17.2" y="20.8" width="1.6" height="1.3" id="mask-18_1_">
	<g class="st18">
		<polygon id="path-17_1_" class="st1" points="17.2,20.6 18.8,20.6 18.8,22.1 17.2,22.1 		"/>
	</g>
</mask>
<path id="Fill-101" class="st19" d="M18.2,20.8h-0.3c-0.4,0-0.7,0.3-0.7,0.7s0.3,0.7,0.7,0.7h0.3c0.4,0,0.6-0.3,0.6-0.7
	S18.5,20.8,18.2,20.8"/>
<defs>
	<filter id="Adobe_OpacityMaskFilter_9_" filterUnits="userSpaceOnUse" x="14.2" y="20.8" width="1.6" height="1.3">
		<feColorMatrix  type="matrix" values="1 0 0 0 0  0 1 0 0 0  0 0 1 0 0  0 0 0 1 0"/>
	</filter>
</defs>
<mask maskUnits="userSpaceOnUse" x="14.2" y="20.8" width="1.6" height="1.3" id="mask-20_1_">
	<g class="st20">
		<polygon id="path-19_1_" class="st1" points="14.2,20.6 15.8,20.6 15.8,22.1 14.2,22.1 		"/>
	</g>
</mask>
<path id="Fill-103" class="st21" d="M15.2,20.8h-0.3c-0.4,0-0.7,0.3-0.7,0.7s0.3,0.7,0.7,0.7h0.3c0.4,0,0.7-0.3,0.7-0.7
	S15.5,20.8,15.2,20.8"/>
<defs>
	<filter id="Adobe_OpacityMaskFilter_10_" filterUnits="userSpaceOnUse" x="8.1" y="20.8" width="1.6" height="1.3">
		<feColorMatrix  type="matrix" values="1 0 0 0 0  0 1 0 0 0  0 0 1 0 0  0 0 0 1 0"/>
	</filter>
</defs>
<mask maskUnits="userSpaceOnUse" x="8.1" y="20.8" width="1.6" height="1.3" id="mask-22_1_">
	<g class="st22">
		<polygon id="path-21_1_" class="st1" points="8.1,20.6 9.8,20.6 9.8,22.1 8.1,22.1 		"/>
	</g>
</mask>
<path id="Fill-105" class="st23" d="M9.1,20.8H8.8c-0.4,0-0.7,0.3-0.7,0.7s0.3,0.7,0.7,0.7h0.3c0.4,0,0.7-0.3,0.7-0.7
	S9.5,20.8,9.1,20.8"/>
</svg>
