<?xml version="1.0" encoding="UTF-8"?>
<svg width="23px" height="23px" viewBox="0 0 23 23" version="1.1" xmlns="http://www.w3.org/2000/svg" xmlns:xlink="http://www.w3.org/1999/xlink">
    <!-- Generator: Sketch 55.2 (78181) - https://sketchapp.com -->
    <title>蒙版</title>
    <desc>Created with Sketch.</desc>
    <defs>
        <polygon id="path-1" points="1.5400125 1.30325 3.1796375 1.30325 3.1796375 2.7691625 1.5400125 2.7691625"></polygon>
        <polygon id="path-3" points="0.362375 1.30325 2.002 1.30325 2.002 2.7691625 0.362375 2.7691625"></polygon>
        <polygon id="path-5" points="0.58695 1.30325 2.229825 1.30325 2.229825 2.7691625 0.58695 2.7691625"></polygon>
        <polygon id="path-7" points="0.1402375 1.30325 1.7782375 1.30325 1.7782375 2.7691625 0.1402375 2.7691625"></polygon>
        <polygon id="path-9" points="0.4678375 1.30325 2.1107125 1.30325 2.1107125 2.7691625 0.4678375 2.7691625"></polygon>
        <polygon id="path-11" points="0.11115 0.28275 1.75175 0.28275 1.75175 1.90775 0.11115 1.90775"></polygon>
        <polygon id="path-13" points="0 0.782925 1.6427125 0.782925 1.6427125 2.407925 0 2.407925"></polygon>
        <polygon id="path-15" points="1.39555 0.15925 3.0368 0.15925 3.0368 1.625 1.39555 1.625"></polygon>
        <polygon id="path-17" points="0.948025 0.15925 2.58765 0.15925 2.58765 1.625 0.948025 1.625"></polygon>
        <polygon id="path-19" points="1.1717875 0.15925 2.8114125 0.15925 2.8114125 1.625 1.1717875 1.625"></polygon>
        <polygon id="path-21" points="1.620125 0.15925 3.261375 0.15925 3.261375 1.625 1.620125 1.625"></polygon>
    </defs>
    <g id="Symbols" stroke="none" stroke-width="1" fill="none" fill-rule="evenodd">
        <g id="icon/iot/扬尘监测" transform="translate(0.000000, -1.000000)">
            <g id="矩形">
                <g id="蒙版">
                    <g id="编组" transform="translate(14.625000, 0.321750)">
                        <mask id="mask-2" fill="white">
                            <use xlink:href="#path-1"></use>
                        </mask>
                        <g id="Clip-2"></g>
                        <path d="M2.1900125,2.6099125 L2.5280125,2.6099125 C2.8903875,2.6099125 3.1796375,2.3174125 3.1796375,1.9566625 C3.1796375,1.5959125 2.8887625,1.3034125 2.5280125,1.3034125 L2.1900125,1.3034125 C1.8292625,1.3034125 1.5400125,1.5959125 1.5400125,1.9566625 C1.5400125,2.3174125 1.8292625,2.6099125 2.1900125,2.6099125" id="Fill-1" fill="#030104" mask="url(#mask-2)"></path>
                    </g>
                    <g id="编组" transform="translate(9.750000, 0.321750)">
                        <mask id="mask-4" fill="white">
                            <use xlink:href="#path-3"></use>
                        </mask>
                        <g id="Clip-4"></g>
                        <path d="M1.014,2.6099125 L1.350375,2.6099125 C1.711125,2.6099125 2.002,2.3174125 2.002,1.9566625 C2.002,1.5959125 1.7095,1.3034125 1.350375,1.3034125 L1.014,1.3034125 C0.65325,1.3034125 0.362375,1.5959125 0.362375,1.9566625 C0.362375,2.3174125 0.654875,2.6099125 1.014,2.6099125" id="Fill-3" fill="#030104" mask="url(#mask-4)"></path>
                    </g>
                    <g id="编组" transform="translate(6.500000, 0.321750)">
                        <mask id="mask-6" fill="white">
                            <use xlink:href="#path-5"></use>
                        </mask>
                        <g id="Clip-6"></g>
                        <path d="M1.2402,2.6099125 L1.576575,2.6099125 C1.93895,2.6099125 2.229825,2.3174125 2.229825,1.9566625 C2.229825,1.5959125 1.937325,1.3034125 1.576575,1.3034125 L1.2402,1.3034125 C0.87945,1.3034125 0.58695,1.5959125 0.58695,1.9566625 C0.58695,2.3174125 0.877825,2.6099125 1.2402,2.6099125" id="Fill-5" fill="#030104" mask="url(#mask-6)"></path>
                    </g>
                    <g id="编组" transform="translate(13.000000, 0.321750)">
                        <mask id="mask-8" fill="white">
                            <use xlink:href="#path-7"></use>
                        </mask>
                        <g id="Clip-8"></g>
                        <path d="M0.7918625,2.6099125 L1.1282375,2.6099125 C1.4889875,2.6099125 1.7782375,2.3174125 1.7782375,1.9566625 C1.7782375,1.5959125 1.4873625,1.3034125 1.1282375,1.3034125 L0.7918625,1.3034125 C0.4294875,1.3034125 0.1402375,1.5959125 0.1402375,1.9566625 C0.1402375,2.3174125 0.4294875,2.6099125 0.7918625,2.6099125" id="Fill-7" fill="#030104" mask="url(#mask-8)"></path>
                    </g>
                    <path d="M19.7523625,3.58475 L20.0871125,3.58475 C20.4494875,3.58475 20.7387375,3.29225 20.7387375,2.9315 C20.7387375,2.57075 20.4478625,2.27825 20.0871125,2.27825 L19.7523625,2.27825 C19.3883625,2.27825 19.0991125,2.57075 19.0991125,2.9315 C19.0991125,3.29225 19.3883625,3.58475 19.7523625,3.58475" id="Fill-9" fill="#030104"></path>
                    <g id="编组" transform="translate(3.250000, 0.321750)">
                        <mask id="mask-10" fill="white">
                            <use xlink:href="#path-9"></use>
                        </mask>
                        <g id="Clip-12"></g>
                        <path d="M1.1210875,2.6099125 L1.4574625,2.6099125 C1.8182125,2.6099125 2.1107125,2.3174125 2.1107125,1.9566625 C2.1107125,1.5959125 1.8182125,1.3034125 1.4574625,1.3034125 L1.1210875,1.3034125 C0.7603375,1.3034125 0.4678375,1.5959125 0.4678375,1.9566625 C0.4678375,2.3174125 0.7603375,2.6099125 1.1210875,2.6099125" id="Fill-11" fill="#030104" mask="url(#mask-10)"></path>
                    </g>
                    <path d="M14.2250875,4.9788375 C14.2250875,5.3395875 14.5175875,5.6320875 14.8783375,5.6320875 L15.2130875,5.6320875 C15.5754625,5.6320875 15.8663375,5.3395875 15.8663375,4.9788375 C15.8663375,4.6180875 15.5738375,4.3255875 15.2130875,4.3255875 L14.8799625,4.3255875 C14.5175875,4.3255875 14.2250875,4.6180875 14.2250875,4.9788375" id="Fill-13" fill="#030104"></path>
                    <path d="M2.7755,5.631925 L3.111875,5.631925 C3.472625,5.631925 3.765125,5.339425 3.765125,4.978675 C3.765125,4.617925 3.472625,4.325425 3.111875,4.325425 L2.7755,4.325425 C2.41475,4.325425 2.12225,4.617925 2.12225,4.978675 C2.12225,5.339425 2.41475,5.631925 2.7755,5.631925" id="Fill-15" fill="#030104"></path>
                    <path d="M17.251325,4.9788375 C17.251325,5.3395875 17.543825,5.6320875 17.90295,5.6320875 L18.239325,5.6320875 C18.603325,5.6320875 18.8942,5.3395875 18.8942,4.9788375 C18.8942,4.6180875 18.6017,4.3255875 18.239325,4.3255875 L17.90295,4.3255875 C17.5422,4.3255875 17.251325,4.6180875 17.251325,4.9788375" id="Fill-17" fill="#030104"></path>
                    <path d="M8.17505,4.9788375 C8.17505,5.3395875 8.46755,5.6320875 8.826675,5.6320875 L9.16305,5.6320875 C9.5238,5.6320875 9.814675,5.3395875 9.814675,4.9788375 C9.814675,4.6180875 9.522175,4.3255875 9.16305,4.3255875 L8.826675,4.3255875 C8.465925,4.3255875 8.17505,4.6180875 8.17505,4.9788375" id="Fill-19" fill="#030104"></path>
                    <path d="M11.1996625,4.9788375 C11.1996625,5.3395875 11.4921625,5.6320875 11.8529125,5.6320875 L12.1892875,5.6320875 C12.5500375,5.6320875 12.8409125,5.3395875 12.8409125,4.9788375 C12.8409125,4.6180875 12.5484125,4.3255875 12.1892875,4.3255875 L11.8529125,4.3255875 C11.4921625,4.3255875 11.1996625,4.6180875 11.1996625,4.9788375" id="Fill-21" fill="#030104"></path>
                    <path d="M5.148,4.9788375 C5.148,5.3395875 5.4405,5.6320875 5.799625,5.6320875 L6.137625,5.6320875 C6.498375,5.6320875 6.790875,5.3395875 6.790875,4.9788375 C6.790875,4.6180875 6.498375,4.3255875 6.137625,4.3255875 L5.799625,4.3255875 C5.4405,4.3255875 5.148,4.6180875 5.148,4.9788375" id="Fill-23" fill="#030104"></path>
                    <path d="M20.2759375,4.9788375 C20.2759375,5.3395875 20.5700625,5.6320875 20.9291875,5.6320875 L21.2639375,5.6320875 C21.6263125,5.6320875 21.9188125,5.3395875 21.9188125,4.9788375 C21.9188125,4.6180875 21.6246875,4.3255875 21.2639375,4.3255875 L20.9291875,4.3255875 C20.5700625,4.3255875 20.2759375,4.6180875 20.2759375,4.9788375" id="Fill-25" fill="#030104"></path>
                    <path d="M7.7481625,7.917 C7.7481625,7.55625 7.4556625,7.26375 7.0949125,7.26375 L6.7585375,7.26375 C6.3977875,7.26375 6.1052875,7.55625 6.1052875,7.917 C6.1052875,8.27775 6.3977875,8.57025 6.7585375,8.57025 L7.0949125,8.57025 C7.4572875,8.57025 7.7481625,8.27775 7.7481625,7.917" id="Fill-27" fill="#030104"></path>
                    <path d="M9.78575,8.5700875 L10.122125,8.5700875 C10.482875,8.5700875 10.77375,8.2775875 10.77375,7.9168375 C10.77375,7.5560875 10.48125,7.2635875 10.122125,7.2635875 L9.78575,7.2635875 C9.425,7.2635875 9.1325,7.5560875 9.1325,7.9168375 C9.1325,8.2775875 9.425,8.5700875 9.78575,8.5700875" id="Fill-29" fill="#030104"></path>
                    <path d="M15.8357875,8.5700875 L16.1721625,8.5700875 C16.5345375,8.5700875 16.8237875,8.2775875 16.8237875,7.9168375 C16.8237875,7.5560875 16.5329125,7.2635875 16.1721625,7.2635875 L15.8357875,7.2635875 C15.4750375,7.2635875 15.1841625,7.5560875 15.1841625,7.9168375 C15.1841625,8.2775875 15.4766625,8.5700875 15.8357875,8.5700875" id="Fill-31" fill="#030104"></path>
                    <path d="M12.811175,8.5700875 L13.14755,8.5700875 C13.509925,8.5700875 13.799175,8.2775875 13.799175,7.9168375 C13.799175,7.5560875 13.506675,7.2635875 13.14755,7.2635875 L12.811175,7.2635875 C12.4488,7.2635875 12.157925,7.5560875 12.157925,7.9168375 C12.157925,8.2775875 12.4488,8.5700875 12.811175,8.5700875" id="Fill-33" fill="#030104"></path>
                    <g id="编组" transform="translate(21.125000, 6.821750)">
                        <mask id="mask-12" fill="white">
                            <use xlink:href="#path-11"></use>
                        </mask>
                        <g id="Clip-36"></g>
                        <path d="M0.11115,1.09525 C0.11115,1.456 0.40365,1.7485 0.762775,1.7485 L1.097525,1.7485 C1.461525,1.7485 1.7524,1.456 1.7524,1.09525 C1.7524,0.7345 1.4599,0.442 1.097525,0.442 L0.762775,0.442 C0.402025,0.442 0.11115,0.7345 0.11115,1.09525" id="Fill-35" fill="#030104" mask="url(#mask-12)"></path>
                    </g>
                    <path d="M18.86365,8.5700875 L19.200025,8.5700875 C19.560775,8.5700875 19.850025,8.2775875 19.850025,7.9168375 C19.850025,7.5560875 19.55915,7.2635875 19.200025,7.2635875 L18.86365,7.2635875 C18.49965,7.2635875 18.2104,7.5560875 18.2104,7.9168375 C18.2104,8.2775875 18.49965,8.5700875 18.86365,8.5700875" id="Fill-37" fill="#030104"></path>
                    <path d="M4.7242,7.917 C4.7242,7.55625 4.4317,7.26375 4.07095,7.26375 L3.734575,7.26375 C3.373825,7.26375 3.081325,7.55625 3.081325,7.917 C3.081325,8.27775 3.373825,8.57025 3.734575,8.57025 L4.07095,8.57025 C4.4317,8.57025 4.7242,8.27775 4.7242,7.917" id="Fill-39" fill="#030104"></path>
                    <path d="M0.7085,8.5700875 L1.044875,8.5700875 C1.405625,8.5700875 1.698125,8.2775875 1.698125,7.9168375 C1.698125,7.5560875 1.405625,7.2635875 1.044875,7.2635875 L0.7085,7.2635875 C0.34775,7.2635875 0.05525,7.5560875 0.05525,7.9168375 C0.05525,8.2775875 0.34775,8.5700875 0.7085,8.5700875" id="Fill-41" fill="#030104"></path>
                    <path d="M2.676375,10.74645 C2.676375,10.3857 2.383875,10.094825 2.023125,10.094825 L1.688375,10.094825 C1.327625,10.094825 1.035125,10.387325 1.035125,10.74645 C1.035125,11.108825 1.327625,11.3997 1.688375,11.3997 L2.02475,11.3997 C2.3855,11.3997 2.676375,11.108825 2.676375,10.74645" id="Fill-43" fill="#030104"></path>
                    <path d="M20.177625,11.3995375 C20.538375,11.3995375 20.82925,11.1070375 20.82925,10.7462875 C20.82925,10.3855375 20.53675,10.0946625 20.177625,10.0946625 L19.84125,10.0946625 C19.4805,10.0946625 19.189625,10.3871625 19.189625,10.7462875 C19.189625,11.1086625 19.482125,11.3995375 19.84125,11.3995375 L20.177625,11.3995375 Z" id="Fill-45" fill="#030104"></path>
                    <path d="M14.1282375,11.3995375 C14.4889875,11.3995375 14.7782375,11.1070375 14.7782375,10.7462875 C14.7782375,10.3855375 14.4873625,10.0946625 14.1282375,10.0946625 L13.7918625,10.0946625 C13.4294875,10.0946625 13.1402375,10.3871625 13.1402375,10.7462875 C13.1402375,11.1086625 13.4311125,11.3995375 13.7918625,11.3995375 L14.1282375,11.3995375 Z" id="Fill-47" fill="#030104"></path>
                    <path d="M11.1005375,11.3995375 C11.4612875,11.3995375 11.7521625,11.1070375 11.7521625,10.7462875 C11.7521625,10.3855375 11.4596625,10.0946625 11.1005375,10.0946625 L10.7641625,10.0946625 C10.4034125,10.0946625 10.1125375,10.3871625 10.1125375,10.7462875 C10.1125375,11.1086625 10.4050375,11.3995375 10.7641625,11.3995375 L11.1005375,11.3995375 Z" id="Fill-49" fill="#030104"></path>
                    <path d="M7.7402,11.3995375 L8.076575,11.3995375 C8.43895,11.3995375 8.729825,11.1070375 8.729825,10.7462875 C8.729825,10.3855375 8.437325,10.0946625 8.076575,10.0946625 L7.7402,10.0946625 C7.37945,10.0946625 7.08695,10.3871625 7.08695,10.7462875 C7.08695,11.1086625 7.377825,11.3995375 7.7402,11.3995375" id="Fill-51" fill="#030104"></path>
                    <path d="M17.1530125,11.3995375 C17.5153875,11.3995375 17.8046375,11.1070375 17.8046375,10.7462875 C17.8046375,10.3855375 17.5137625,10.0946625 17.1530125,10.0946625 L16.8150125,10.0946625 C16.4542625,10.0946625 16.1650125,10.3871625 16.1650125,10.7462875 C16.1650125,11.1086625 16.4558875,11.3995375 16.8150125,11.3995375 L17.1530125,11.3995375 Z" id="Fill-53" fill="#030104"></path>
                    <path d="M4.7123375,11.3995375 L5.0503375,11.3995375 C5.4110875,11.3995375 5.7035875,11.1070375 5.7035875,10.7462875 C5.7035875,10.3855375 5.4110875,10.0946625 5.0503375,10.0946625 L4.7123375,10.0946625 C4.3515875,10.0946625 4.0590875,10.3871625 4.0590875,10.7462875 C4.0590875,11.1086625 4.3515875,11.3995375 4.7123375,11.3995375" id="Fill-55" fill="#030104"></path>
                    <path d="M14.88045,14.4464125 L15.2152,14.4464125 C15.577575,14.4464125 15.866825,14.1539125 15.866825,13.7947875 C15.866825,13.4324125 15.57595,13.1415375 15.2152,13.1415375 L14.88045,13.1415375 C14.51645,13.1415375 14.2271932,13.4340375 14.2271932,13.7947875 C14.225575,14.1555375 14.51645,14.4464125 14.88045,14.4464125" id="Fill-57" fill="#030104"></path>
                    <path d="M6.7912,13.79495 C6.7912,13.432575 6.4987,13.1417 6.13795,13.1417 L5.79995,13.1417 C5.4392,13.1417 5.148325,13.4342 5.148325,13.79495 C5.148325,14.1557 5.440825,14.446575 5.79995,14.446575 L6.13795,14.446575 C6.4987,14.446575 6.7912,14.1557 6.7912,13.79495" id="Fill-59" fill="#030104"></path>
                    <path d="M17.9036,14.4464125 L18.239975,14.4464125 C18.603975,14.4464125 18.893225,14.1539125 18.893225,13.7947875 C18.893225,13.4324125 18.60235,13.1415375 18.239975,13.1415375 L17.9036,13.1415375 C17.541225,13.1415375 17.251975,13.4340375 17.251975,13.7947875 C17.251975,14.1555375 17.541225,14.4464125 17.9036,14.4464125" id="Fill-61" fill="#030104"></path>
                    <path d="M11.8525875,14.4464125 L12.1889625,14.4464125 C12.5497125,14.4464125 12.8405875,14.1539125 12.8405875,13.7947875 C12.8405875,13.4324125 12.5480875,13.1415375 12.1889625,13.1415375 L11.8525875,13.1415375 C11.4902125,13.1415375 11.1993375,13.4340375 11.1993375,13.7947875 C11.1993375,14.1555375 11.4918375,14.4464125 11.8525875,14.4464125" id="Fill-63" fill="#030104"></path>
                    <path d="M8.8271625,14.4464125 L9.1635375,14.4464125 C9.5242875,14.4464125 9.8151625,14.1539125 9.8151625,13.7947875 C9.8151625,13.4324125 9.5226625,13.1415375 9.1635375,13.1415375 L8.8271625,13.1415375 C8.4664125,13.1415375 8.1755375,13.4340375 8.1755375,13.7947875 C8.1755375,14.1555375 8.4664125,14.4464125 8.8271625,14.4464125" id="Fill-65" fill="#030104"></path>
                    <path d="M3.7649625,13.79495 C3.7649625,13.432575 3.4724625,13.1417 3.1117125,13.1417 L2.7753375,13.1417 C2.4145875,13.1417 2.1220875,13.4342 2.1220875,13.79495 C2.1220875,14.1557 2.4145875,14.446575 2.7753375,14.446575 L3.1117125,14.446575 C3.4724625,14.446575 3.7649625,14.1557 3.7649625,13.79495" id="Fill-67" fill="#030104"></path>
                    <path d="M21.9201125,13.79495 C21.9201125,13.432575 21.6259875,13.1417 21.2668625,13.1417 L20.9321125,13.1417 C20.5697375,13.1417 20.2772375,13.4342 20.2772375,13.79495 C20.2772375,14.1557 20.5713625,14.446575 20.9321125,14.446575 L21.2668625,14.446575 C21.6259875,14.446575 21.9201125,14.1557 21.9201125,13.79495" id="Fill-69" fill="#030104"></path>
                    <path d="M15.7818375,17.1965625 L16.1182125,17.1965625 C16.4789625,17.1965625 16.7698375,16.9024375 16.7698375,16.5449375 C16.7698375,16.1825625 16.4773375,15.8900625 16.1182125,15.8900625 L15.7818375,15.8900625 C15.4194625,15.8900625 15.1285875,16.1841875 15.1285875,16.5449375 C15.1285875,16.9024375 15.4210875,17.1965625 15.7818375,17.1965625" id="Fill-71" fill="#030104"></path>
                    <path d="M12.7564125,17.1965625 L13.0927875,17.1965625 C13.4535375,17.1965625 13.7460375,16.9024375 13.7460375,16.5449375 C13.7460375,16.1825625 13.4519125,15.8900625 13.0927875,15.8900625 L12.7564125,15.8900625 C12.3956625,15.8900625 12.1047875,16.1841875 12.1047875,16.5449375 C12.1047875,16.9024375 12.3956625,17.1965625 12.7564125,17.1965625" id="Fill-73" fill="#030104"></path>
                    <path d="M18.808075,17.1965625 L19.14445,17.1965625 C19.506825,17.1965625 19.796075,16.9024375 19.796075,16.5449375 C19.796075,16.1825625 19.5052,15.8900625 19.14445,15.8900625 L18.808075,15.8900625 C18.4457,15.8900625 18.1564432,16.1841875 18.1564432,16.5449375 C18.154825,16.9024375 18.4457,17.1965625 18.808075,17.1965625" id="Fill-75" fill="#030104"></path>
                    <path d="M22.169225,15.888925 L21.83285,15.888925 C21.4721,15.888925 21.18285,16.18305 21.18285,16.542175 C21.18285,16.902925 21.473725,17.195425 21.83285,17.195425 L22.169225,17.195425 C22.5316,17.195425 22.82085,16.9013 22.82085,16.542175 C22.82085,16.18305 22.5316,15.888925 22.169225,15.888925" id="Fill-77" fill="#030104"></path>
                    <path d="M4.668625,16.5442875 C4.668625,16.1819125 4.376125,15.8910375 4.015375,15.8910375 L3.679,15.8910375 C3.31825,15.8910375 3.02575,16.1835375 3.02575,16.5442875 C3.02575,16.9050375 3.31825,17.1959125 3.679,17.1959125 L4.015375,17.1959125 C4.376125,17.1959125 4.668625,16.9034125 4.668625,16.5442875" id="Fill-79" fill="#030104"></path>
                    <path d="M9.730175,17.1965625 L10.06655,17.1965625 C10.428925,17.1965625 10.7198,16.9024375 10.7198,16.5449375 C10.7198,16.1825625 10.4273,15.8900625 10.06655,15.8900625 L9.730175,15.8900625 C9.369425,15.8900625 9.07854326,16.1841875 9.07854326,16.5449375 C9.076925,16.9024375 9.369425,17.1965625 9.730175,17.1965625" id="Fill-81" fill="#030104"></path>
                    <g id="编组" transform="translate(0.000000, 14.946750)">
                        <mask id="mask-14" fill="white">
                            <use xlink:href="#path-13"></use>
                        </mask>
                        <g id="Clip-84"></g>
                        <path d="M0.9894625,0.942175 L0.6530875,0.942175 C0.2923375,0.942175 -0.0001625,1.2363 -0.0001625,1.595425 C-0.0001625,1.956175 0.2923375,2.248675 0.6530875,2.248675 L0.9894625,2.248675 C1.3502125,2.248675 1.6427125,1.95455 1.6427125,1.595425 C1.6427125,1.2363 1.3502125,0.942175 0.9894625,0.942175" id="Fill-83" fill="#030104" mask="url(#mask-14)"></path>
                    </g>
                    <path d="M7.6942125,16.5442875 C7.6942125,16.1819125 7.4017125,15.8910375 7.0409625,15.8910375 L6.7045875,15.8910375 C6.3438375,15.8910375 6.0513375,16.1835375 6.0513375,16.5442875 C6.0513375,16.9050375 6.3438375,17.1959125 6.7045875,17.1959125 L7.0409625,17.1959125 C7.4017125,17.1959125 7.6942125,16.9034125 7.6942125,16.5442875" id="Fill-85" fill="#030104"></path>
                    <path d="M20.12205,18.718375 L19.7873,18.718375 C19.424925,18.718375 19.135675,19.010875 19.135675,19.371625 C19.135675,19.732375 19.42655,20.02325 19.7873,20.02325 L20.12205,20.02325 C20.48605,20.02325 20.7753068,19.73075 20.7753068,19.371625 C20.776925,19.010875 20.48605,18.718375 20.12205,18.718375" id="Fill-87" fill="#030104"></path>
                    <path d="M11.700325,19.3737375 C11.700325,19.0097375 11.407825,18.7204875 11.047075,18.7204875 L10.712325,18.7204875 C10.34995,18.7204875 10.059075,19.0113625 10.059075,19.3737375 C10.059075,19.7344875 10.351575,20.0237375 10.712325,20.0237375 L11.047075,20.0237375 C11.407825,20.0237375 11.700325,19.7328625 11.700325,19.3737375" id="Fill-89" fill="#030104"></path>
                    <path d="M4.995575,18.718375 L4.6592,18.718375 C4.29845,18.718375 4.00595,19.010875 4.00595,19.371625 C4.00595,19.732375 4.29845,20.02325 4.6592,20.02325 L4.9972,20.02325 C5.35795,20.02325 5.65045,19.73075 5.65045,19.371625 C5.648825,19.010875 5.356325,18.718375 4.995575,18.718375" id="Fill-91" fill="#030104"></path>
                    <path d="M17.751175,19.3737375 C17.751175,19.0097375 17.45705,18.7204875 17.09955,18.7204875 L16.763175,18.7204875 C16.399175,18.7204875 16.1083,19.0113625 16.1083,19.3737375 C16.1083,19.7344875 16.4008,20.0237375 16.763175,20.0237375 L17.09955,20.0237375 C17.458675,20.0237375 17.751175,19.7328625 17.751175,19.3737375" id="Fill-93" fill="#030104"></path>
                    <path d="M14.7249375,19.3737375 C14.7249375,19.0097375 14.4324375,18.7204875 14.0733125,18.7204875 L13.7369375,18.7204875 C13.3761875,18.7204875 13.0836875,19.0113625 13.0836875,19.3737375 C13.0836875,19.7344875 13.3778125,20.0237375 13.7369375,20.0237375 L14.0733125,20.0237375 C14.4324375,20.0237375 14.7249375,19.7328625 14.7249375,19.3737375" id="Fill-95" fill="#030104"></path>
                    <path d="M8.6724625,19.3737375 C8.6724625,19.0097375 8.3799625,18.7204875 8.0208375,18.7204875 L7.6844625,18.7204875 C7.3237125,18.7204875 7.0312125,19.0113625 7.0312125,19.3737375 C7.0312125,19.7344875 7.3237125,20.0237375 7.6844625,20.0237375 L8.0208375,20.0237375 C8.3815875,20.0237375 8.6724625,19.7328625 8.6724625,19.3737375" id="Fill-97" fill="#030104"></path>
                    <g id="编组" transform="translate(9.750000, 21.446750)">
                        <mask id="mask-16" fill="white">
                            <use xlink:href="#path-15"></use>
                        </mask>
                        <g id="Clip-100"></g>
                        <path d="M2.38355,0.3185 L2.047175,0.3185 C1.686425,0.3185 1.39555,0.612625 1.39555,0.97175 C1.39555,1.330875 1.68805,1.625 2.047175,1.625 L2.38355,1.625 C2.7443,1.625 3.0368,1.330875 3.0368,0.97175 C3.0368,0.612625 2.7443,0.3185 2.38355,0.3185" id="Fill-99" fill="#030104" mask="url(#mask-16)"></path>
                    </g>
                    <g id="编组" transform="translate(16.250000, 21.446750)">
                        <mask id="mask-18" fill="white">
                            <use xlink:href="#path-17"></use>
                        </mask>
                        <g id="Clip-102"></g>
                        <path d="M1.93765,0.3185 L1.59965,0.3185 C1.237275,0.3185 0.948025,0.612625 0.948025,0.97175 C0.948025,1.330875 1.2389,1.625 1.59965,1.625 L1.93765,1.625 C2.2984,1.625 2.58765,1.330875 2.58765,0.97175 C2.58765,0.612625 2.296775,0.3185 1.93765,0.3185" id="Fill-101" fill="#030104" mask="url(#mask-18)"></path>
                    </g>
                    <g id="编组" transform="translate(13.000000, 21.446750)">
                        <mask id="mask-20" fill="white">
                            <use xlink:href="#path-19"></use>
                        </mask>
                        <g id="Clip-104"></g>
                        <path d="M2.1597875,0.3185 L1.8234125,0.3185 C1.4626625,0.3185 1.1717875,0.612625 1.1717875,0.97175 C1.1717875,1.330875 1.4642875,1.625 1.8234125,1.625 L2.1597875,1.625 C2.5205375,1.625 2.8114125,1.330875 2.8114125,0.97175 C2.8114125,0.612625 2.5205375,0.3185 2.1597875,0.3185" id="Fill-103" fill="#030104" mask="url(#mask-20)"></path>
                    </g>
                    <g id="编组" transform="translate(6.500000, 21.446750)">
                        <mask id="mask-22" fill="white">
                            <use xlink:href="#path-21"></use>
                        </mask>
                        <g id="Clip-106"></g>
                        <path d="M2.608125,0.3185 L2.27175,0.3185 C1.911,0.3185 1.620125,0.612625 1.620125,0.97175 C1.620125,1.330875 1.912625,1.625 2.27175,1.625 L2.608125,1.625 C2.9705,1.625 3.261375,1.330875 3.261375,0.97175 C3.261375,0.612625 2.9705,0.3185 2.608125,0.3185" id="Fill-105" fill="#030104" mask="url(#mask-22)"></path>
                    </g>
                </g>
            </g>
        </g>
    </g>
</svg>