<?xml version="1.0" encoding="UTF-8"?>
<svg width="46px" height="43px" viewBox="0 0 46 43" version="1.1" xmlns="http://www.w3.org/2000/svg" xmlns:xlink="http://www.w3.org/1999/xlink">
    <!-- Generator: Sketch 55.2 (78181) - https://sketchapp.com -->
    <title>蒙版</title>
    <desc>Created with Sketch.</desc>
    <g id="组件" stroke="none" stroke-width="1" fill="none" fill-rule="evenodd">
        <g id="icon/处置力量" fill="#000000">
            <g id="矩形">
                <g id="蒙版">
                    <path d="M22.6112,0.0002 C24.5722,0.0002 26.1632,1.5902 26.1632,3.5522 C26.1632,5.5142 24.5722,7.1042 22.6112,7.1042 C20.6502,7.1042 19.0592,5.5142 19.0592,3.5522 C19.0592,1.5902 20.6502,0.0002 22.6112,0.0002" id="Fill-1"></path>
                    <path d="M26.4359,11.2028 C26.0379,9.2028 24.1479,7.8298 22.0979,8.1038 C20.4009,8.3288 19.1069,9.6138 18.7889,11.2028 C19.8579,10.4108 21.1829,9.9408 22.6119,9.9408 C24.0419,9.9408 25.3649,10.4118 26.4359,11.2028" id="Fill-3"></path>
                    <path d="M35.2914,27.9294 C34.4774,27.2114 33.2344,27.2914 32.5194,28.1074 L29.7194,31.2864 C29.0024,32.1014 29.0824,33.3444 29.8974,34.0604 C30.2704,34.3884 30.7334,34.5504 31.1944,34.5504 C31.7394,34.5504 32.2814,34.3234 32.6704,33.8814 L35.4684,30.7004 C36.1864,29.8884 36.1064,28.6464 35.2914,27.9294" id="Fill-5"></path>
                    <path d="M32.6693,9.4391 C31.9513,8.6251 30.7103,8.5451 29.8983,9.2621 C29.0833,9.9791 29.0023,11.2211 29.7193,12.0351 L32.5193,15.2161 C32.9083,15.6571 33.4503,15.8831 33.9963,15.8831 C34.4573,15.8831 34.9193,15.7221 35.2933,15.3941 C36.1073,14.6771 36.1893,13.4351 35.4703,12.6211 L32.6693,9.4391 Z" id="Fill-7"></path>
                    <path d="M22.6292,22.0451 L22.5922,22.0451 C21.3412,22.0451 20.1482,22.6121 19.3142,23.5461 C18.4802,24.4811 18.0832,25.7411 18.2242,26.9851 L20.2432,40.0331 C20.3812,41.2621 21.3872,42.2771 22.6112,42.2771 C23.8372,42.2771 24.8402,41.2701 24.9822,40.0391 L26.9982,26.9831 C27.1402,25.7401 26.7422,24.4791 25.9082,23.5451 C25.0722,22.6131 23.8812,22.0451 22.6292,22.0451" id="Fill-9"></path>
                    <path d="M22.6102,12.276 C25.0012,12.276 26.9412,14.214 26.9412,16.606 C26.9412,18.997 25.0012,20.936 22.6102,20.936 C20.2192,20.936 18.2802,18.997 18.2802,16.606 C18.2802,14.214 20.2192,12.276 22.6102,12.276" id="Fill-11"></path>
                    <path d="M41.2191,16.0368 L41.1861,16.0368 C40.0461,16.0368 38.9601,16.5538 38.2021,17.4038 C37.4431,18.2538 37.0811,19.4018 37.2091,20.5348 L39.0461,32.4128 C39.1721,33.5328 40.0881,34.4558 41.2021,34.4558 C42.3181,34.4558 43.2331,33.5388 43.3601,32.4198 L45.1961,20.5328 C45.3231,19.4008 44.9621,18.2538 44.2031,17.4038 C43.4451,16.5538 42.3591,16.0368 41.2191,16.0368" id="Fill-13"></path>
                    <path d="M41.2025,7.1432 C43.3795,7.1432 45.1435,8.9082 45.1435,11.0852 C45.1435,13.2622 43.3795,15.0272 41.2025,15.0272 C39.0245,15.0272 37.2605,13.2622 37.2605,11.0852 C37.2605,8.9082 39.0245,7.1432 41.2025,7.1432" id="Fill-15"></path>
                    <path d="M9.9305,27.9294 C10.7455,27.2114 11.9875,27.2914 12.7035,28.1074 L15.5025,31.2864 C16.2195,32.1014 16.1395,33.3444 15.3255,34.0604 C14.9525,34.3884 14.4895,34.5504 14.0285,34.5504 C13.4835,34.5504 12.9415,34.3234 12.5525,33.8814 L9.7545,30.7004 C9.0365,29.8884 9.1145,28.6464 9.9305,27.9294" id="Fill-17"></path>
                    <path d="M12.5501,9.4391 C13.2681,8.6251 14.5091,8.5451 15.3231,9.2621 C16.1371,9.9791 16.2171,11.2211 15.5001,12.0351 L12.7011,15.2161 C12.3121,15.6571 11.7701,15.8831 11.2241,15.8831 C10.7631,15.8831 10.3011,15.7221 9.9271,15.3941 C9.1131,14.6771 9.0331,13.4351 9.7501,12.6211 L12.5501,9.4391 Z" id="Fill-19"></path>
                    <path d="M4.0013,16.0368 L4.0353,16.0368 C5.1743,16.0368 6.2603,16.5538 7.0193,17.4038 C7.7793,18.2538 8.1403,19.4018 8.0123,20.5348 L6.1743,32.4128 C6.0483,33.5328 5.1323,34.4558 4.0183,34.4558 C2.9033,34.4558 1.9883,33.5388 1.8613,32.4198 L0.0253,20.5328 C-0.1027,19.4008 0.2583,18.2538 1.0173,17.4038 C1.7763,16.5538 2.8613,16.0368 4.0013,16.0368" id="Fill-21"></path>
                    <path d="M4.0194,7.1432 C6.1964,7.1432 7.9614,8.9082 7.9614,11.0852 C7.9614,13.2622 6.1964,15.0272 4.0194,15.0272 C1.8424,15.0272 0.0774,13.2622 0.0774,11.0852 C0.0774,8.9082 1.8424,7.1432 4.0194,7.1432" id="Fill-23"></path>
                </g>
            </g>
        </g>
    </g>
</svg>