<?xml version="1.0" encoding="UTF-8"?>
<svg width="32px" height="26px" viewBox="0 0 32 26" version="1.1" xmlns="http://www.w3.org/2000/svg" xmlns:xlink="http://www.w3.org/1999/xlink">
    <!-- Generator: Sketch 55.2 (78181) - https://sketchapp.com -->
    <title>形状</title>
    <desc>Created with Sketch.</desc>
    <g id="Symbols" stroke="none" stroke-width="1" fill="none" fill-rule="evenodd">
        <g id="icon/wechat" fill="#000000" fill-rule="nonzero">
            <g id="矩形">
                <g id="蒙版" transform="translate(0.000000, 0.000000)">
                    <path d="M9.13341667,0.214666667 C-0.146583333,1.87216667 -3.23991667,12.35675 4.14166667,17.15575 C4.54641667,17.4159167 4.54641667,17.3870833 3.93925,19.19875 L3.41891667,20.7501667 L5.28841667,19.748 L7.15791667,18.7458333 L8.1505,18.98675 C9.19116667,19.2469167 10.5210833,19.43 11.4075833,19.43 L11.9376667,19.43 L11.7545,18.7265 C10.2994167,13.3685833 15.3296667,8.05883333 21.8729167,8.05883333 L22.7595,8.05883333 L22.5764167,7.42283333 C21.1405,2.40216667 15.0791667,-0.845333333 9.13341667,0.214666667 Z M8.32391667,4.90766667 C9.30683333,5.57266667 9.36466667,7.0085 8.42025,7.62525 C6.88808333,8.62741667 5.09566667,6.86391667 6.12675,5.36058333 C6.57966667,4.68608333 7.66866667,4.46441667 8.32391667,4.90766667 Z M16.2259167,4.90766667 C17.8448333,5.99666667 16.6306667,8.51175 14.8189167,7.81791667 C13.5084167,7.31683333 13.3541667,5.51483333 14.578,4.86916667 C15.0598333,4.609 15.8115,4.62825 16.2259167,4.90766667 Z M19.8010833,8.878 C15.2044167,9.71633333 12.01475,13.20475 12.1978333,17.2135833 C12.43875,22.5811667 18.7314167,26.2815833 24.7735,24.6240833 L25.4865833,24.4313333 L26.9899167,25.2408333 C27.8186667,25.69375 28.5125,26.0214167 28.53175,25.9828333 C28.5510833,25.9346667 28.38725,25.3565 28.17525,24.6915833 C27.6934167,23.2075 27.68375,23.3135 28.3294167,22.851 C35.5953333,17.6375833 29.216,7.17233333 19.8010833,8.878 Z M19.618,13.20475 C20.0226667,13.4745833 20.2346667,14.1491667 20.06125,14.6406667 C19.6950833,15.691 18.1243333,15.7680833 17.70025,14.75625 C17.2184167,13.59025 18.5483333,12.5109167 19.618,13.20475 Z M26.0551667,13.3204167 C26.6911667,13.9275 26.5851667,14.9586667 25.8431667,15.3440833 C24.7060833,15.92225 23.5111667,14.7659167 24.099,13.6576667 C24.4844167,12.9445833 25.477,12.7711667 26.0551667,13.3204167 Z" id="形状"></path>
                </g>
            </g>
        </g>
    </g>
</svg>