<?xml version="1.0" encoding="UTF-8"?>
<svg width="26px" height="26px" viewBox="0 0 26 26" version="1.1" xmlns="http://www.w3.org/2000/svg" xmlns:xlink="http://www.w3.org/1999/xlink">
    <!-- Generator: Sketch 55.2 (78181) - https://sketchapp.com -->
    <title>蒙版</title>
    <desc>Created with Sketch.</desc>
    <g id="Symbols" stroke="none" stroke-width="1" fill="none" fill-rule="evenodd">
        <g id="icon/iot/时间" fill="#000000">
            <g id="矩形">
                <g id="蒙版">
                    <path d="M13,23.2264933 C7.36666667,23.2264933 2.77333333,18.63316 2.77333333,12.9998267 C2.77333333,7.36649333 7.36666667,2.77316 13,2.77316 C18.6333333,2.77316 23.2266667,7.36649333 23.2266667,12.9998267 C23.2266667,18.63316 18.6333333,23.2264933 13,23.2264933 M13,-0.000173333333 C5.80666667,-0.000173333333 0,5.80649333 0,12.9998267 C0,20.19316 5.80666667,25.9998267 13,25.9998267 C20.1933333,25.9998267 26,20.19316 26,12.9998267 C26,5.80649333 20.1933333,-0.000173333333 13,-0.000173333333" id="Fill-1"></path>
                    <path d="M19.7598267,12.5666667 L13.95316,12.5666667 L13.95316,5.54666667 C13.95316,4.94 13.43316,4.50666667 12.91316,4.50666667 C12.3064933,4.50666667 11.87316,5.02666667 11.87316,5.54666667 L11.87316,13.6066667 C11.87316,14.2133333 12.39316,14.6466667 12.91316,14.6466667 L19.84736,14.6466667 C20.45316,14.6466667 20.8864933,14.1266667 20.8864933,13.6066667 C20.8864933,13.0866667 20.3664933,12.5666667 19.7598267,12.5666667" id="Fill-3"></path>
                </g>
            </g>
        </g>
    </g>
</svg>