<?xml version="1.0" encoding="utf-8"?>
<!-- Generator: Adobe Illustrator 22.1.0, SVG Export Plug-In . SVG Version: 6.00 Build 0)  -->
<svg version="1.1" id="图层_1" xmlns="http://www.w3.org/2000/svg" xmlns:xlink="http://www.w3.org/1999/xlink" x="0px" y="0px"
	 viewBox="0 0 18 26" style="enable-background:new 0 0 18 26;" xml:space="preserve">
<title>icon/iot/智能垃圾桶</title>
<desc>Created with Sketch.</desc>
<path id="path-1_1_" d="M3.2,8.9c0-0.4,0.4-0.8,0.8-0.8s0.8,0.4,0.8,0.8v13c0,0.4-0.4,0.8-0.8,0.8s-0.8-0.4-0.8-0.8V8.9z M8.1,8.9
	c0-0.4,0.4-0.8,0.8-0.8s0.8,0.4,0.8,0.8v13c0,0.4-0.4,0.8-0.8,0.8s-0.8-0.4-0.8-0.8V8.9z M13,8.9c0-0.4,0.4-0.8,0.8-0.8
	s0.8,0.4,0.8,0.8v13c0,0.4-0.4,0.8-0.8,0.8S13,22.4,13,21.9V8.9z M0,24.4C0,25.3,0.7,26,1.6,26h14.6c0.9,0,1.6-0.7,1.6-1.6V4.9H0
	V24.4z M16.2,1.6H13C13,0.7,12.3,0,11.4,0H6.5C5.6,0,4.9,0.7,4.9,1.6H1.6C0.7,1.6,0,2.4,0,3.2h17.9C17.9,2.4,17.1,1.6,16.2,1.6
	L16.2,1.6z"/>
</svg>
