<?xml version="1.0" encoding="utf-8"?>
<!-- Generator: Adobe Illustrator 22.1.0, SVG Export Plug-In . SVG Version: 6.00 Build 0)  -->
<svg version="1.1" id="图层_1" xmlns="http://www.w3.org/2000/svg" xmlns:xlink="http://www.w3.org/1999/xlink" x="0px" y="0px"
	 viewBox="0 0 23 26" style="enable-background:new 0 0 23 26;" xml:space="preserve">
<title>icon/iot/智能电表</title>
<desc>Created with Sketch.</desc>
<path id="形状结合" d="M19.1,0.1c1.1,0,2,0.9,2,2l0,0v6.1c0,0.2,0.2,0.4,0.4,0.4c0.7,0,1.2,0.5,1.2,1.2c0,0.7-0.5,1.2-1.2,1.2
	c-0.2,0-0.4,0.2-0.4,0.4l0,0v6.1c0,1-0.7,1.8-1.6,2l0,0v5.3c0,0.7-0.5,1.2-1.2,1.2l0,0H4.4c-0.7,0-1.2-0.5-1.2-1.2l0,0v-5.3
	c-0.9-0.2-1.6-1-1.6-2l0,0v-6.1c0-0.2-0.2-0.4-0.4-0.4C0.5,11,0,10.4,0,9.8s0.5-1.2,1.2-1.2c0.2,0,0.4-0.2,0.4-0.4l0,0V2.1
	c0-1.1,0.9-2,2-2l0,0H19.1z M7.3,19.5H5.6V22c0,0,0,0,0,0l0,0H17c0,0,0,0,0,0l0,0v-2.5h-1.7v1.2c0,0.2-0.2,0.4-0.4,0.4
	c-0.2,0-0.4-0.2-0.4-0.4l0,0v-1.2h-1.7v1.2c0,0.2-0.2,0.4-0.4,0.4s-0.4-0.2-0.4-0.4l0,0v-1.2h-1.7v1.2c0,0.2-0.2,0.4-0.4,0.4
	S9.8,21,9.8,20.7l0,0v-1.2H8.1v1.2c0,0.2-0.2,0.4-0.4,0.4c-0.2,0-0.4-0.2-0.4-0.4l0,0V19.5z M4,2.1L4,2.1L4,2.1
	c-0.2,0-0.4,0.2-0.4,0.4l0,0v14.6l0,0.1c0,0.2,0.2,0.3,0.4,0.3l0,0h0.8l0.1,0c0.2,0,0.3-0.2,0.3-0.4c0-0.2-0.2-0.4-0.4-0.4l0,0H4.4
	V2.8h11.8l0.1,0c0.2,0,0.3-0.2,0.3-0.4c0-0.2-0.2-0.4-0.4-0.4l0,0H4z M17.9,2.1L17.9,2.1L17.9,2.1c-0.2,0-0.4,0.2-0.4,0.4
	c0,0.2,0.2,0.4,0.4,0.4l0,0h0.4v13.9H6.5l-0.1,0c-0.2,0-0.3,0.2-0.3,0.4c0,0.2,0.2,0.4,0.4,0.4l0,0h12.2l0.1,0
	c0.2,0,0.3-0.2,0.3-0.4l0,0V2.5l0-0.1c0-0.2-0.2-0.3-0.4-0.3l0,0H17.9z M7.3,11c-0.7,0-1.2,0.5-1.2,1.2c0,0.7,0.5,1.2,1.2,1.2
	s1.2-0.5,1.2-1.2C8.5,11.6,7.9,11,7.3,11z M15.4,11c-0.7,0-1.2,0.5-1.2,1.2s0.5,1.2,1.2,1.2c0.7,0,1.2-0.5,1.2-1.2
	C16.6,11.6,16.1,11,15.4,11z M11.3,11c-0.7,0-1.2,0.5-1.2,1.2c0,0.7,0.5,1.2,1.2,1.2s1.2-0.5,1.2-1.2C12.5,11.6,12,11,11.3,11z
	 M7.3,11.8c0.2,0,0.4,0.2,0.4,0.4c0,0.2-0.2,0.4-0.4,0.4c-0.2,0-0.4-0.2-0.4-0.4C6.9,12,7,11.8,7.3,11.8z M15.4,11.8
	c0.2,0,0.4,0.2,0.4,0.4c0,0.2-0.2,0.4-0.4,0.4c-0.2,0-0.4-0.2-0.4-0.4C15,12,15.2,11.8,15.4,11.8z M11.3,11.8c0.2,0,0.4,0.2,0.4,0.4
	c0,0.2-0.2,0.4-0.4,0.4c-0.2,0-0.4-0.2-0.4-0.4C10.9,12,11.1,11.8,11.3,11.8z M21.1,9.3v1c0.1-0.1,0.3-0.1,0.4-0.1
	c0.2,0,0.4-0.2,0.4-0.4c0-0.2-0.2-0.4-0.4-0.4C21.4,9.3,21.2,9.3,21.1,9.3L21.1,9.3z M1.6,9.3C1.5,9.3,1.3,9.3,1.2,9.3
	C1,9.3,0.8,9.5,0.8,9.8c0,0.2,0.2,0.4,0.4,0.4c0.2,0,0.3,0,0.4,0.1l0,0V9.3z M6.9,6.6L6.9,6.6l-0.1,0C6.4,6.6,6.1,6.9,6.1,7.3l0,0V9
	l0,0.1c0.1,0.4,0.4,0.7,0.8,0.7l0,0h8.9l0.1,0c0.4-0.1,0.7-0.4,0.7-0.8l0,0V7.3l0-0.1c-0.1-0.4-0.4-0.7-0.8-0.7l0,0H6.9z M15.8,7.3
	C15.8,7.3,15.8,7.3,15.8,7.3L15.8,7.3l0,1.7l0,0c0,0,0,0,0,0l0,0H15V7.3H15.8z M14.2,7.3V9h-0.9V7.3H14.2z M12.6,7.3V9h-0.9V7.3
	H12.6z M11,7.3V9h-0.9V7.3H11z M9.3,7.3V9H8.5V7.3H9.3z M7.7,7.3V9H6.9l0,0c0,0,0,0,0,0l0,0V7.3l0,0c0,0,0,0,0,0l0,0H7.7z"/>
</svg>
