<?xml version="1.0" encoding="UTF-8"?>
<svg width="26px" height="26px" viewBox="0 0 26 26" version="1.1" xmlns="http://www.w3.org/2000/svg" xmlns:xlink="http://www.w3.org/1999/xlink">
    <!-- Generator: Sketch 55.2 (78181) - https://sketchapp.com -->
    <title>蒙版</title>
    <desc>Created with Sketch.</desc>
    <g id="Symbols" stroke="none" stroke-width="1" fill="none" fill-rule="evenodd">
        <g id="icon/iot/案件管理" fill="#000000">
            <g id="矩形">
                <g id="蒙版" transform="translate(0.000000, 0.000000)">
                    <g id="编组" transform="translate(2.164354, 0.000000)">
                        <path d="M21.6689772,0 L1.73563458,0 C0.778407257,0 0.00231974386,0.776087513 0.00231974386,1.73334258 L0.00231974386,12.1333426 L0.868977161,12.1333426 L0.868977161,1.73334258 C0.868977161,1.25460406 1.2569238,0.866657417 1.73563458,0.866657417 L21.6689772,0.866657417 C22.1477157,0.866657417 22.5356346,1.25460406 22.5356346,1.73334258 L22.5356346,19.0666852 C22.5356346,19.5453959 22.1477157,19.9333148 21.6689772,19.9333148 L12.5689772,19.9333148 L12.5689772,20.8 L21.6689772,20.8 C22.6262045,20.8 23.4023197,20.0239125 23.4023197,19.0666852 L23.4023197,1.73334258 C23.4023197,0.776087513 22.6262045,0 21.6689772,0" id="Fill-1"></path>
                    </g>
                    <polygon id="Fill-3" points="3.9 2.6 4.76665742 2.6 4.76665742 1.73334258 3.9 1.73334258"></polygon>
                    <polygon id="Fill-5" points="5.63334258 2.6 6.5 2.6 6.5 1.73334258 5.63334258 1.73334258"></polygon>
                    <polygon id="Fill-6" points="7.36668517 2.6 8.23334258 2.6 8.23334258 1.73334258 7.36668517 1.73334258"></polygon>
                    <polygon id="Fill-7" points="3.9 4.33331483 23.8333426 4.33331483 23.8333426 3.46665742 3.9 3.46665742"></polygon>
                    <path d="M3.89999723,10.3999945 C3.89999723,10.6394053 4.09390117,10.833337 4.33333981,10.833337 L9.53333981,10.833337 C9.77275069,10.833337 9.96665464,10.6394053 9.96665464,10.3999945 L9.96665464,6.93333703 C9.96665464,6.6938984 9.77275069,6.49999445 9.53333981,6.49999445 L7.54607407,6.49999445 L6.80636435,5.76028474 C6.72511782,5.67903821 6.61492999,5.63333703 6.49999723,5.63333703 L4.33333981,5.63333703 C4.09390117,5.63333703 3.89999723,5.82724098 3.89999723,6.06665187 L3.89999723,10.3999945 Z" id="Fill-8"></path>
                    <path d="M16.9000111,6.93333426 C16.9000111,6.69392337 16.7060794,6.49999168 16.4666685,6.49999168 L14.4794028,6.49999168 L13.7396931,5.76030971 C13.6584465,5.67903543 13.5482864,5.63333426 13.4333259,5.63333426 L11.2666685,5.63333426 C11.0272299,5.63333426 10.8333259,5.82723821 10.8333259,6.06667684 L10.8333259,10.3999917 C10.8333259,10.6394303 11.0272299,10.8333343 11.2666685,10.8333343 L16.4666685,10.8333343 C16.7060794,10.8333343 16.9000111,10.6394303 16.9000111,10.3999917 L16.9000111,6.93333426 Z" id="Fill-9"></path>
                    <path d="M23.8333315,6.93333426 C23.8333315,6.69392337 23.6394275,6.49999168 23.4000166,6.49999168 L21.4127509,6.49999168 L20.6730134,5.76030971 C20.5917947,5.67903543 20.4816068,5.63333426 20.3666463,5.63333426 L18.1999889,5.63333426 C17.960578,5.63333426 17.7666463,5.82723821 17.7666463,6.06667684 L17.7666463,10.3999917 C17.7666463,10.6394303 17.960578,10.8333343 18.1999889,10.8333343 L23.4000166,10.8333343 C23.6394275,10.8333343 23.8333315,10.6394303 23.8333315,10.3999917 L23.8333315,6.93333426 Z" id="Fill-10"></path>
                    <path d="M14.7333259,16.8999945 L14.7333259,17.7666519 L16.4666685,17.7666519 C16.7059962,17.7666519 16.9000111,17.5726647 16.9000111,17.333337 L16.9000111,13.8666796 C16.9000111,13.627352 16.7059962,13.4333093 16.4666685,13.4333093 L14.4794028,13.4333093 L13.7396931,12.6936273 C13.6584188,12.6123253 13.5481477,12.5666519 13.4331872,12.5666519 L12.1333259,12.5666519 L12.1333259,13.4333093 L13.6488457,15.1666519 L13.3330997,15.6499411 C13.4143462,15.7311876 13.662137,16.2742741 13.7770698,16.2742741 L14.130692,16.2855953 C14.2644935,16.289924 14.3875565,16.3598216 14.4597293,16.47259 L14.7333259,16.8999945 Z" id="Fill-11"></path>
                    <path d="M23.4000111,13.4333204 L21.4127454,13.4333204 L20.6730356,12.6936384 C20.5917891,12.6123919 20.4816013,12.566663 20.3666685,12.566663 L18.2000111,12.566663 C17.9606002,12.566663 17.7666408,12.7605669 17.7666408,13.0000055 L17.7666408,17.3333481 C17.7666408,17.572759 17.9606002,17.766663 18.2000111,17.766663 L23.4000111,17.766663 C23.639422,17.766663 23.8333259,17.572759 23.8333259,17.3333481 L23.8333259,13.866663 C23.8333259,13.6272521 23.639422,13.4333204 23.4000111,13.4333204" id="Fill-12"></path>
                    <path d="M6.93333703,22.1000055 C5.25893148,22.0980632 3.90193682,20.7410685 3.89999445,19.066663 C3.89999445,17.391314 5.2579603,16.0333204 6.93333703,16.0333204 C8.60871377,16.0333204 9.96665187,17.391314 9.96665187,19.066663 C9.96665187,20.7420674 8.60871377,22.1000055 6.93333703,22.1000055 M13.433337,17.3333481 L12.2880329,17.3333481 C12.1961588,17.0488465 12.081781,16.7720589 11.9457042,16.5056768 L12.7551727,15.6963193 C12.9241588,15.5269725 12.9241588,15.2527932 12.7551727,15.0834741 L10.9165259,13.2448273 C10.7472068,13.0758134 10.4729998,13.0758134 10.3036807,13.2448273 L9.49432316,14.0542958 C9.22794109,13.9182467 8.95115347,13.8038412 8.66665187,13.7119671 L8.66665187,12.566663 C8.66665187,12.3272521 8.47274792,12.1333204 8.23333703,12.1333204 L5.63333703,12.1333204 C5.3938984,12.1333204 5.19999445,12.3272521 5.19999445,12.566663 L5.19999445,13.7119671 C4.9155206,13.8038412 4.63873298,13.9182467 4.37232316,14.0542958 L3.56296564,13.2448273 C3.39364653,13.0758134 3.11946724,13.0758134 2.95012038,13.2448273 L1.11150139,15.0834741 C0.942515261,15.2527932 0.942515261,15.5269725 1.11150139,15.6963193 L1.9209699,16.5056768 C1.88498058,16.5758796 1.85032316,16.6474698 1.81727513,16.7191987 C1.72587279,16.9189575 1.64612465,17.124155 1.5786412,17.3333481 L0.433337033,17.3333481 C0.193926147,17.3333481 -5.54962647e-06,17.5272521 -5.54962647e-06,17.766663 L-5.54962647e-06,20.366663 C-5.54962647e-06,20.6060739 0.193926147,20.7999778 0.433337033,20.7999778 L1.5786412,20.7999778 C1.67048751,21.0844794 1.78489306,21.361267 1.9209699,21.6276768 L1.11150139,22.4370344 C0.942515261,22.6063535 0.942515261,22.8805328 1.11150139,23.0498519 L2.95012038,24.8884986 C3.11946724,25.0575125 3.39364653,25.0575125 3.56296564,24.8884986 L4.37232316,24.0790301 C4.63873298,24.2151069 4.9155206,24.3295125 5.19999445,24.4213588 L5.19999445,25.566663 C5.19999445,25.8061016 5.3938984,26.0000055 5.63333703,26.0000055 L8.23333703,26.0000055 C8.47274792,26.0000055 8.66665187,25.8061016 8.66665187,25.566663 L8.66665187,24.4213588 C8.95115347,24.3295125 9.22794109,24.2151069 9.49432316,24.0790301 L10.3036807,24.8884986 C10.4729998,25.0575125 10.7472068,25.0575125 10.9165259,24.8884986 L12.7551727,23.0498519 C12.9241588,22.8805328 12.9241588,22.6063535 12.7551727,22.4370344 L11.9457042,21.6276768 C12.081781,21.361267 12.1961588,21.0844794 12.2880329,20.7999778 L13.433337,20.7999778 C13.6727479,20.7999778 13.8666519,20.6060739 13.8666519,20.366663 L13.8666519,17.766663 C13.8666519,17.5272521 13.6727479,17.3333481 13.433337,17.3333481" id="Fill-13"></path>
                    <path d="M6.93333703,16.8999945 C5.73733703,16.9015206 4.76817801,17.8706519 4.76667962,19.0666519 C4.76667962,20.2632068 5.73678207,21.233337 6.93333703,21.233337 C8.12986425,21.233337 9.09999445,20.2632068 9.09999445,19.0666519 C9.09999445,17.8701247 8.12986425,16.8999945 6.93333703,16.8999945" id="Fill-14"></path>
                </g>
            </g>
        </g>
    </g>
</svg>