<?xml version="1.0" encoding="utf-8"?>
<!-- Generator: Adobe Illustrator 22.1.0, SVG Export Plug-In . SVG Version: 6.00 Build 0)  -->
<svg version="1.1" id="图层_1" xmlns="http://www.w3.org/2000/svg" xmlns:xlink="http://www.w3.org/1999/xlink" x="0px" y="0px"
	 viewBox="0 0 26 26" style="enable-background:new 0 0 26 26;" xml:space="preserve">
<style type="text/css">
	.st0{filter:url(#Adobe_OpacityMaskFilter);}
	.st1{fill:#FFFFFF;}
	.st2{mask:url(#mask-2_1_);fill:url(#Fill-1_1_);}
	.st3{fill:#231916;}
</style>
<title>icon/iot/水箱盖开关监测</title>
<desc>Created with Sketch.</desc>
<g id="Clip-2">
</g>
<defs>
	<filter id="Adobe_OpacityMaskFilter" filterUnits="userSpaceOnUse" x="17" y="12.8" width="4.6" height="7.1">
		<feColorMatrix  type="matrix" values="1 0 0 0 0  0 1 0 0 0  0 0 1 0 0  0 0 0 1 0"/>
	</filter>
</defs>
<mask maskUnits="userSpaceOnUse" x="17" y="12.8" width="4.6" height="7.1" id="mask-2_1_">
	<g class="st0">
		<path id="path-1_1_" class="st1" d="M17,18c0.1,1.3,1.4,1.9,2.4,1.9l0,0c1,0,2.2-1,2.2-2.1l0,0c0-1.1-2-4.2-2.3-5l0,0
			C18.8,13.8,16.9,16.8,17,18"/>
	</g>
</mask>
<linearGradient id="Fill-1_1_" gradientUnits="userSpaceOnUse" x1="-37.8822" y1="69.1191" x2="-37.8822" y2="70.1191" gradientTransform="matrix(4.6149 0 0 -7.1212 194.1619 512.1751)">
	<stop  offset="0" style="stop-color:#231916"/>
	<stop  offset="1" style="stop-color:#231916"/>
</linearGradient>
<path id="Fill-1" class="st2" d="M17,18c0.1,1.3,1.4,1.9,2.4,1.9l0,0c1,0,2.2-1,2.2-2.1l0,0c0-1.1-2-4.2-2.3-5l0,0
	C18.8,13.8,16.9,16.8,17,18"/>
<path id="Fill-3" class="st3" d="M12.6,0.3c0.1,0,0.2,0,0.3,0.1L24,5.3c0.6,0.3,0.6,1.2,0,1.4l-11,4.9c-0.1,0-0.2,0.1-0.3,0.1
	c-0.1,0-0.2,0-0.3-0.1L1.2,6.8c-0.6-0.3-0.6-1.2,0-1.4l11-4.9C12.4,0.3,12.5,0.3,12.6,0.3 M12.6,1.5L2.5,6l10.1,4.4L22.7,6L12.6,1.5
	 M24.5,8c0.4,0,0.8,0.3,0.8,0.8l0,11.6c0,0.3-0.2,0.6-0.5,0.7l-10.5,4.5c-0.1,0-0.2,0.1-0.3,0.1c-0.4,0-0.8-0.3-0.8-0.8l0-11.6
	c0-0.3,0.2-0.6,0.5-0.7l10.5-4.5C24.3,8.1,24.4,8,24.5,8 M24.1,9.4l-9.7,4.2l0,10.7l9.7-4.2L24.1,9.4 M0,20.4L0,8.9
	c0-0.6,0.6-1,1.1-0.7l10.5,4.5c0.3,0.1,0.5,0.4,0.5,0.7l0,11.6c0,0.6-0.6,1-1.1,0.7L0.5,21.2C0.2,21.1,0,20.8,0,20.4"/>
</svg>
