<?xml version="1.0" encoding="utf-8"?>
<!-- Generator: Adobe Illustrator 22.1.0, SVG Export Plug-In . SVG Version: 6.00 Build 0)  -->
<svg version="1.1" id="图层_1" xmlns="http://www.w3.org/2000/svg" xmlns:xlink="http://www.w3.org/1999/xlink" x="0px" y="0px"
	 viewBox="0 0 26 15" style="enable-background:new 0 0 26 15;" xml:space="preserve">
<title>icon/iot/井内水位</title>
<desc>Created with Sketch.</desc>
<path id="Fill-1" d="M24.8,14.3c0,0-1.8,0.1-2.6-0.7c-0.3-0.3-0.4-0.6-0.4-1c0-0.2-0.1-0.3-0.3-0.3c-0.2,0-0.3,0.1-0.3,0.3
	c0,0.4-0.1,0.8-0.4,1c-0.6,0.5-1.6,0.6-2.1,0.7c-0.6,0-1.7-0.1-2.3-0.7c-0.3-0.3-0.4-0.6-0.4-1c0-0.2-0.1-0.3-0.3-0.3
	c-0.2,0-0.3,0.1-0.3,0.3c0,0.4-0.1,0.8-0.4,1c-0.6,0.5-1.5,0.6-2.1,0.7c-0.6,0-1.7-0.1-2.3-0.7c-0.3-0.3-0.4-0.6-0.4-1
	c0-0.2-0.1-0.3-0.3-0.3c-0.2,0-0.3,0.1-0.3,0.3c0,0.4-0.1,0.8-0.4,1c-0.6,0.5-1.6,0.6-2.2,0.7c-0.5,0-1.7-0.1-2.4-0.7
	C4.2,13.4,4,13,4,12.6c0-0.2-0.1-0.3-0.3-0.3h0c-0.2,0-0.3,0.1-0.3,0.3c0,0.4-0.1,0.7-0.4,1c-0.8,0.8-2.5,0.7-2.6,0.7c0,0,0,0,0,0h0
	c-0.2,0-0.3,0.1-0.3,0.3c0,0,0,0,0,0h0c0,0,0,0,0,0c0,0,0,0,0,0c0,0.1,0.1,0.2,0.1,0.2c0,0,0.1,0,0.1,0c0,0,0,0,0.1,0
	c0.1,0,0.2,0,0.3,0c0.4,0,1.3,0,2-0.3c0.5-0.2,0.9-0.5,1.1-0.8c0.2,0.4,0.6,0.6,1.1,0.8c0.5,0.2,1.1,0.3,1.5,0.3c0.1,0,0.2,0,0.3,0
	h0.1h0.1c0.1,0,0.2,0,0.3,0c0,0,0.1,0,0.1,0c0,0,0,0,0.1,0c0.4,0,1-0.1,1.5-0.3c0.5-0.2,0.9-0.5,1.1-0.9c0.1,0.1,0.2,0.2,0.3,0.3
	c0.6,0.5,1.4,0.7,2,0.8c0.1,0,0.3,0,0.5,0c0.1,0,0.1,0,0.2,0c0.2,0,0.4,0,0.4,0c0,0,0.1,0,0.1,0c0.4,0,0.8-0.1,1.3-0.3
	c0.5-0.2,0.9-0.5,1.1-0.9c0.1,0.1,0.2,0.2,0.3,0.3c0.6,0.5,1.4,0.7,2.1,0.8c0.1,0,0.3,0,0.5,0c0.1,0,0.1,0,0.2,0c0.2,0,0.4,0,0.4,0
	c0,0,0.1,0,0.1,0c0.4,0,0.9-0.1,1.3-0.3c0.5-0.2,0.9-0.5,1.1-0.9c0.1,0.1,0.2,0.2,0.3,0.3c1,1,3,0.8,3.1,0.8c0.2,0,0.3-0.2,0.3-0.3
	C25.2,14.4,25,14.3,24.8,14.3 M0.3,11.2L0.3,11.2C0.3,11.1,0.3,11.1,0.3,11.2c0-0.2,0.2-0.3,0.3-0.3h0h0c0.1,0,1.8,0.1,2.6-0.7
	c0.3-0.3,0.4-0.6,0.4-1C3.7,9,3.9,8.9,4,8.9h0c0.2,0,0.3,0.1,0.3,0.3c0,0.4,0.1,0.7,0.4,1c0.6,0.6,1.9,0.7,2.4,0.7
	c0.6,0,1.6-0.1,2.2-0.7c0.3-0.3,0.4-0.6,0.4-1c0-0.2,0.1-0.3,0.3-0.3c0.2,0,0.3,0.1,0.3,0.3c0,0.4,0.1,0.7,0.4,1
	c0.6,0.6,1.7,0.7,2.3,0.7c0.6,0,1.6-0.1,2.1-0.7c0.3-0.3,0.4-0.6,0.4-1c0-0.2,0.1-0.3,0.3-0.3c0.2,0,0.3,0.1,0.3,0.3
	c0,0.4,0.1,0.7,0.4,1c0.6,0.6,1.7,0.7,2.3,0.7c0.6,0,1.6-0.1,2.1-0.7c0.3-0.3,0.4-0.6,0.4-1c0-0.2,0.1-0.3,0.3-0.3
	c0.2,0,0.3,0.1,0.3,0.3c0,0.4,0.1,0.7,0.4,1c0.8,0.8,2.6,0.7,2.6,0.7c0.2,0,0.3,0.1,0.3,0.3c0,0.2-0.1,0.3-0.3,0.3
	c-0.1,0-2.1,0.1-3.1-0.8c-0.1-0.1-0.2-0.2-0.3-0.3c-0.2,0.4-0.6,0.7-1.1,0.9c-0.4,0.2-0.9,0.3-1.3,0.3c0,0-0.1,0-0.1,0
	c0,0-0.2,0-0.4,0c-0.1,0-0.1,0-0.2,0c-0.2,0-0.3,0-0.5,0c-0.7-0.1-1.5-0.3-2.1-0.8c-0.1-0.1-0.2-0.2-0.3-0.3
	c-0.2,0.4-0.6,0.7-1.1,0.9c-0.4,0.2-0.9,0.3-1.3,0.3c0,0-0.1,0-0.1,0c0,0-0.2,0-0.4,0c-0.1,0-0.1,0-0.2,0c-0.2,0-0.3,0-0.5,0
	c-0.7-0.1-1.5-0.3-2-0.8c-0.1-0.1-0.2-0.2-0.3-0.3c-0.2,0.4-0.6,0.7-1.1,0.9c-0.5,0.2-1,0.3-1.5,0.3c0,0,0,0-0.1,0c0,0,0,0-0.1,0
	c-0.1,0-0.2,0-0.3,0c0,0,0,0-0.1,0c0,0,0,0-0.1,0c-0.1,0-0.2,0-0.3,0c-0.4,0-1-0.1-1.5-0.3c-0.5-0.2-0.9-0.5-1.1-0.8
	c-0.2,0.4-0.6,0.6-1.1,0.8c-0.7,0.3-1.5,0.3-2,0.3c-0.1,0-0.2,0-0.3,0c0,0-0.1,0-0.1,0c-0.1,0-0.1,0-0.1,0
	C0.4,11.4,0.4,11.3,0.3,11.2C0.3,11.2,0.3,11.2,0.3,11.2C0.3,11.2,0.3,11.2,0.3,11.2"/>
<path id="形状结合" d="M26,0v14.9h-1.1V3.3h-1.7V1.7h1.7V0H26z"/>
</svg>
