<?xml version="1.0" encoding="UTF-8"?>
<svg width="26px" height="26px" viewBox="0 0 26 26" version="1.1" xmlns="http://www.w3.org/2000/svg" xmlns:xlink="http://www.w3.org/1999/xlink">
    <!-- Generator: Sketch 55.2 (78181) - https://sketchapp.com -->
    <title>蒙版</title>
    <desc>Created with Sketch.</desc>
    <g id="Symbols" stroke="none" stroke-width="1" fill="none" fill-rule="evenodd">
        <g id="icon/iot/公司法人" fill="#000000">
            <g id="矩形">
                <g id="蒙版">
                    <path d="M8.07575758,15.9075091 L7.13818182,1.50508485 C7.10115152,1.09775152 6.75921212,0.786539394 6.35030303,0.788109194 L3.4430303,0.788109194 C3.04357576,0.798357576 2.71424242,1.10641818 2.67878788,1.50508485 L1.57575758,18.2396303 L0.590909091,18.2396303 C0.263151515,18.2435697 0,18.5106606 0,18.8384182 L0,25.2753879 C0.00393939394,25.5999939 0.26630303,25.8623576 0.590909091,25.866297 L1.70969697,25.866297 L1.70969697,25.5275091 C1.77745455,22.7975091 2.8749697,20.1935697 4.78242424,18.2396303 C5.72787879,17.2666 6.84430303,16.4755697 8.07575758,15.9075091" id="Fill-1"></path>
                    <path d="M15.1744139,15.2612121 L15.1744139,11.9442424 C15.1791152,11.0429091 14.5385697,10.2676364 13.6537818,10.1006061 C13.5356,10.1006061 13.5442667,10.1006061 13.6537818,10.1006061 C14.1989939,9.28672727 13.9799636,8.18606061 13.1668727,7.64163636 C12.3529939,7.09721212 11.2515394,7.31545455 10.7071152,8.12933333 C10.3084485,8.72575758 10.3084485,9.50418182 10.7071152,10.1006061 C9.81917576,10.2668485 9.17469091,11.0405455 9.17075152,11.9442424 L9.17075152,15.4747273 C10.2517212,15.1036364 11.3846909,14.9098182 12.5271152,14.8987879 C13.4213576,14.9098182 14.3100848,15.0311515 15.1744139,15.2612121" id="Fill-3"></path>
                    <path d="M20.3509879,14.5287212 C19.9901394,14.5287212 19.6970485,14.2356303 19.6970485,13.8747818 L19.6970485,12.3541758 C19.6970485,11.9925394 19.9901394,11.7002364 20.3509879,11.7002364 L21.8715939,11.7002364 C22.2340182,11.7002364 22.5294727,11.9917515 22.5334121,12.3541758 L22.5334121,13.8747818 C22.5294727,14.2372061 22.2340182,14.5287212 21.8715939,14.5287212 L20.3509879,14.5287212 Z M19.6970485,7.64266061 C19.7128061,7.30308485 19.9869879,7.03205455 20.3273515,7.02023636 L21.8479576,7.02023636 C22.2103818,7.02023636 22.5050485,7.31175152 22.5097758,7.67417576 L22.5097758,9.20266061 C22.5050485,9.56508485 22.2103818,9.8566 21.8479576,9.8566 L20.3273515,9.8566 C19.966503,9.8566 19.6734121,9.56350909 19.6734121,9.20266061 L19.6970485,7.64266061 Z M19.0982606,3.52993333 C17.9022606,3.52520606 16.9276545,4.49193333 16.9229273,5.68872121 C16.9229273,5.6966 16.9229273,5.70447879 16.9237152,5.71235758 L16.9237152,15.8681152 C18.8303818,16.7284788 20.4542,18.1143576 21.6037152,19.8626606 C22.7146242,21.5463576 23.3291697,23.5097515 23.3764424,25.5275091 L23.3764424,25.866297 L24.6134121,25.866297 C24.9380182,25.8623576 25.1995939,25.5999939 25.2043212,25.2753879 L25.2043212,5.57841818 C25.2043212,4.42969091 24.2730485,3.49841818 23.1243212,3.49841818 L19.0982606,3.52993333 Z" id="Fill-5"></path>
                    <path d="M13.8348364,23.5100667 C13.8269576,23.8638242 13.5425333,24.1482485 13.1895636,24.1561273 L11.7390788,24.1561273 C11.3845333,24.1482485 11.0977455,23.8646121 11.0851394,23.5100667 L11.0851394,19.6258242 C11.0977455,19.2728545 11.3861091,18.9923697 11.7390788,18.9884303 L13.1895636,18.9884303 C13.5409576,18.9923697 13.8261697,19.2744303 13.8348364,19.6258242 L13.8348364,23.5652182 L13.8348364,23.5100667 Z M12.4639273,16.8682428 C7.46089697,16.8627333 3.37259394,20.8635818 3.26938182,25.8658242 L21.6592606,25.8658242 C21.5473818,20.8675212 17.4645939,16.8714 12.4639273,16.8682428 L12.4639273,16.8682428 Z" id="Fill-7"></path>
                </g>
            </g>
        </g>
    </g>
</svg>