<?xml version="1.0" encoding="utf-8"?>
<!-- Generator: Adobe Illustrator 22.1.0, SVG Export Plug-In . SVG Version: 6.00 Build 0)  -->
<svg version="1.1" id="图层_1" xmlns="http://www.w3.org/2000/svg" xmlns:xlink="http://www.w3.org/1999/xlink" x="0px" y="0px"
	 viewBox="0 0 26 19" style="enable-background:new 0 0 26 19;" xml:space="preserve">
<title>icon/iot/消防通道</title>
<desc>Created with Sketch.</desc>
<path id="Fill-1" d="M25.9,5.5c0-0.3-0.2-0.5-0.5-0.5h-2.8h-1H12c-0.3,0-0.5,0.2-0.5,0.5v1.2v8.5c0,0,0,0.1,0,0.1
	c0,0.2,0.3,0.4,0.5,0.4h5.7c0,0,0,0,0-0.1c0-0.8,0.3-1.6,0.9-2.2c0.6-0.6,1.4-0.9,2.2-0.9c0.8,0,1.6,0.3,2.2,0.9s0.9,1.4,0.9,2.2
	c0,0,0,0,0,0.1h1.5c0.3,0,0.5-0.2,0.5-0.5V5.5z M13.2,14h3.5V6.9h-3.5V14z M21.3,12c-0.7,0.1-1.4-0.1-2.1-0.5l0,0l-0.1,0.1
	c-0.1,0.1-0.2,0.2-0.4,0.1c-0.1-0.1-0.1-0.2-0.1-0.3l-0.9-1.1c0,0,0-0.1,0-0.1c0-0.1,0.1-0.1,0.2-0.1l1.2,0.6c0.1-0.1,0.2-0.1,0.3,0
	c0.1,0.1,0.2,0.2,0.1,0.4l0,0l0,0c0.5,0.4,1.2,0.5,1.7,0.4c0.5-0.1,1-0.3,1.3-0.8c0.3-0.5,0.4-1,0.2-1.5c-0.1-0.5-0.5-1.1-1-1.4
	c-0.4-0.3-0.8-0.4-1.2-0.3c-0.4,0-0.7,0.2-1,0.6c-0.2,0.3-0.3,0.7-0.2,1.1c0.1,0.4,0.4,0.8,0.8,1c0.2,0.2,0.5,0.2,0.8,0.2
	c0.2,0,0.4-0.1,0.6-0.3c0.1-0.2,0.2-0.4,0.1-0.7c-0.1-0.2-0.2-0.5-0.5-0.6c-0.1-0.1-0.2-0.1-0.3-0.1c-0.1,0-0.2,0-0.2,0.1
	c0,0.1-0.1,0.1,0,0.2c0,0.1,0.1,0.2,0.2,0.2c0.1,0.1,0.2,0.2,0.1,0.4c-0.1,0.1-0.2,0.2-0.4,0.1c-0.2-0.1-0.3-0.3-0.4-0.5
	c-0.1-0.2,0-0.5,0.1-0.7C20.3,8.2,20.6,8,20.8,8c0.2,0,0.4,0,0.7,0.2c0.4,0.2,0.6,0.6,0.7,0.9c0.1,0.4,0,0.8-0.2,1.1
	c-0.2,0.3-0.6,0.5-1,0.6c-0.4,0-0.8,0-1.1-0.3c-0.5-0.3-0.8-0.8-1-1.3c-0.1-0.5-0.1-1.1,0.2-1.5c0.3-0.5,0.8-0.7,1.3-0.8
	c0.5-0.1,1.1,0.1,1.6,0.4c0.6,0.4,1.1,1.1,1.3,1.7c0.2,0.7,0.1,1.4-0.3,2C22.6,11.5,22,11.9,21.3,12L21.3,12z"/>
<path id="Fill-3" d="M7.1,6H8C8,6,8.3,6,8.5,6c0.1,0,0.1,0,0.3,0v0c0.4,0,0.6,0.1,0.6,0.6v0.9v2.4H7.1V6z M3.3,6C3.3,6,3.3,6,3.3,6
	l1.3,0h1.9v3.9H3.3V6z M2.8,9.9H0.9c0.2-0.8,0.4-1.8,0.8-2.6c0.3-0.5,0.6-1,1-1.2V9.9z M7.7,15.7h2.2c0.1,0,0.3-0.1,0.3-0.3V6.6
	c0-0.3,0-1-0.3-1.2C9.7,5.2,9.1,5.2,8.8,5.2H8.7c-0.1,0-0.1,0-0.2,0c-0.2,0-0.3,0-0.5,0H3.3C2.3,5.2,1.5,6.1,1.1,7
	C0.9,7.4,0.7,7.9,0.5,8.3C0.4,8.8,0.2,9.4,0.1,10C0.1,10.4,0,10.9,0,11.3v4.1c0,0.1,0.1,0.3,0.3,0.3h1.2c0,0,0,0,0-0.1
	c0-0.8,0.3-1.6,0.9-2.2c0.6-0.6,1.4-0.9,2.2-0.9c0.8,0,1.6,0.3,2.2,0.9C7.4,14,7.7,14.8,7.7,15.7C7.7,15.7,7.7,15.7,7.7,15.7
	L7.7,15.7z"/>
<path id="Fill-5" d="M22.6,4.2v1.1c0,0.3-0.2,0.5-0.5,0.5c-0.3,0-0.5-0.2-0.5-0.5V4.1L22.6,4.2z"/>
<path id="Fill-7" d="M3.1,2.9c-0.3,0-0.5-0.3-0.5-0.5s0.3-0.5,0.5-0.5l21.8,0.8c0.3,0,0.5,0.3,0.5,0.5c0,0.3-0.3,0.5-0.5,0.5
	L3.1,2.9z"/>
<path id="Fill-9" d="M2.2,1C1.9,1,1.7,0.8,1.7,0.5C1.7,0.2,2,0,2.3,0l21.8,0.8c0.3,0,0.5,0.3,0.5,0.5c0,0.3-0.3,0.5-0.5,0.5L2.2,1z"
	/>
<path id="Fill-11" d="M3.5,0.8c-0.1-0.3,0-0.6,0.2-0.7s0.6,0,0.7,0.2l0.8,1.6c0.1,0.3,0,0.6-0.2,0.7c-0.3,0.1-0.6,0-0.7-0.2L3.5,0.8
	z"/>
<path id="Fill-13" d="M5.6,0.9c-0.1-0.3,0-0.6,0.2-0.7s0.6,0,0.7,0.2L7.3,2c0.1,0.3,0,0.6-0.2,0.7c-0.3,0.1-0.6,0-0.7-0.2L5.6,0.9z"
	/>
<path id="Fill-15" d="M7.7,1c-0.1-0.3,0-0.6,0.2-0.7s0.6,0,0.7,0.2l0.8,1.6c0.1,0.3,0,0.6-0.2,0.7s-0.6,0-0.7-0.2L7.7,1z"/>
<path id="Fill-17" d="M9.7,1.1c-0.1-0.3,0-0.6,0.2-0.7c0.3-0.1,0.6,0,0.7,0.2l0.8,1.6c0.1,0.3,0,0.6-0.2,0.7s-0.6,0-0.7-0.2L9.7,1.1
	z"/>
<path id="Fill-19" d="M11.8,1.1c-0.1-0.3,0-0.6,0.2-0.7s0.6,0,0.7,0.2l0.8,1.6c0.1,0.3,0,0.6-0.2,0.7c-0.3,0.1-0.6,0-0.7-0.2
	L11.8,1.1z"/>
<path id="Fill-21" d="M13.9,1.2c-0.1-0.3,0-0.6,0.2-0.7c0.3-0.1,0.6,0,0.7,0.2l0.8,1.6c0.1,0.3,0,0.6-0.2,0.7s-0.6,0-0.7-0.2
	L13.9,1.2z"/>
<path id="Fill-23" d="M15.9,1.3c-0.1-0.3,0-0.6,0.2-0.7c0.3-0.1,0.6,0,0.7,0.2l0.8,1.6c0.1,0.3,0,0.6-0.2,0.7s-0.6,0-0.7-0.2
	L15.9,1.3z"/>
<path id="Fill-25" d="M18,1.4c-0.1-0.3,0-0.6,0.2-0.7c0.3-0.1,0.6,0,0.7,0.2l0.8,1.6c0.1,0.3,0,0.6-0.2,0.7c-0.3,0.1-0.6,0-0.7-0.2
	L18,1.4z"/>
<path id="Fill-27" d="M20,1.5c-0.1-0.3,0-0.6,0.2-0.7c0.3-0.1,0.6,0,0.7,0.2l0.8,1.6c0.1,0.3,0,0.6-0.2,0.7c-0.3,0.1-0.6,0-0.7-0.2
	L20,1.5z"/>
<path id="Fill-29" d="M22.1,1.5c-0.1-0.3,0-0.6,0.2-0.7c0.3-0.1,0.6,0,0.7,0.2l0.8,1.6c0.1,0.3,0,0.6-0.2,0.7
	c-0.3,0.1-0.6,0-0.7-0.2L22.1,1.5z"/>
<path id="Fill-31" d="M8.1,3.6v1.6c0,0.1-0.1,0.3-0.3,0.3c-0.1,0-0.3-0.1-0.3-0.3V3.6L8.1,3.6z"/>
<path id="Fill-33" d="M4.1,4.5C4.1,4.2,4.3,4,4.6,4s0.5,0.2,0.5,0.5v0.8c0,0.3-0.2,0.5-0.5,0.5S4.1,5.6,4.1,5.3V4.5z"/>
<path id="Fill-35" d="M3.8,5c0-0.2,0.4-0.3,0.8-0.3C5,4.7,5.4,4.9,5.4,5v0.5c0,0.2-0.4,0.3-0.8,0.3c-0.4,0-0.8-0.1-0.8-0.3V5z"/>
<path id="Fill-37" d="M9.9,15.5c-0.3,0-0.5-1.9-0.5-4.3S9.6,7,9.9,7H12c0.3,0,0.5,1.9,0.5,4.3s-0.2,4.3-0.5,4.3H9.9z"/>
<path id="Fill-39" d="M5.2,15c-0.2-0.2-0.4-0.3-0.7-0.3c-0.3,0-0.5,0.1-0.7,0.3c-0.2,0.2-0.3,0.4-0.3,0.7c0,0.3,0.1,0.5,0.3,0.7
	c0.2,0.2,0.4,0.3,0.7,0.3c0.3,0,0.5-0.1,0.7-0.3c0.2-0.2,0.3-0.4,0.3-0.7C5.5,15.4,5.4,15.1,5.2,15 M4.6,13c0.7,0,1.4,0.3,1.8,0.8
	c0.5,0.5,0.8,1.1,0.8,1.8c0,0.7-0.3,1.4-0.8,1.8c-0.5,0.5-1.1,0.8-1.8,0.8c-0.7,0-1.4-0.3-1.8-0.8C2.3,17,2,16.3,2,15.6
	c0-0.7,0.3-1.4,0.8-1.8C3.2,13.3,3.9,13,4.6,13"/>
<path id="Fill-41" d="M21.5,15c-0.2-0.2-0.4-0.3-0.7-0.3c-0.3,0-0.5,0.1-0.7,0.3c-0.2,0.2-0.3,0.4-0.3,0.7c0,0.3,0.1,0.5,0.3,0.7
	c0.2,0.2,0.4,0.3,0.7,0.3c0.3,0,0.5-0.1,0.7-0.3c0.2-0.2,0.3-0.4,0.3-0.7C21.7,15.4,21.6,15.1,21.5,15 M20.8,13
	c0.7,0,1.4,0.3,1.8,0.8c0.5,0.5,0.8,1.1,0.8,1.8c0,0.7-0.3,1.4-0.8,1.8c-0.5,0.5-1.1,0.8-1.8,0.8c-0.7,0-1.4-0.3-1.8-0.8
	c-0.5-0.5-0.8-1.1-0.8-1.8c0-0.7,0.3-1.4,0.8-1.8C19.4,13.3,20.1,13,20.8,13"/>
<path id="Fill-43" d="M15.4,10.2v1c0,0.1,0.1,0.2,0.2,0.2s0.2-0.1,0.2-0.2v-1c0-0.1-0.1-0.2-0.2-0.2S15.4,10.1,15.4,10.2"/>
</svg>
