<?xml version="1.0" encoding="UTF-8"?>
<svg width="19px" height="32px" viewBox="0 0 19 32" version="1.1" xmlns="http://www.w3.org/2000/svg" xmlns:xlink="http://www.w3.org/1999/xlink">
    <!-- Generator: Sketch 55.2 (78181) - https://sketchapp.com -->
    <title>蒙版</title>
    <desc>Created with Sketch.</desc>
    <g id="组件" stroke="none" stroke-width="1" fill="none" fill-rule="evenodd">
        <g id="icon/温度" fill="#010101">
            <g id="温度">
                <g id="蒙版">
                    <path d="M11.1001,19.1678 L11.1001,10.7408 C11.1001,9.8568 10.3841,9.1408 9.5001,9.1408 C8.6161,9.1408 7.9001,9.8568 7.9001,10.7408 L7.9001,19.1668 C7.9001,19.2668 7.8251,19.3458 7.7261,19.3578 C6.4021,19.5318 5.3001,20.6028 5.3001,22.0408 L5.3001,23.5408 C5.3001,25.1428 6.5981,26.4398 8.2001,26.4398 L10.8001,26.4398 C12.4021,26.4398 13.7001,25.1428 13.7001,23.5408 L13.7001,22.0408 C13.6041,20.6038 12.5901,19.5328 11.2741,19.3578 C11.1751,19.3458 11.1001,19.2668 11.1001,19.1678" id="Fill-1"></path>
                    <path d="M9.4316,2.0004 C8.9766,2.0004 8.6016,2.0534 8.3176,2.1164 C6.5526,2.4384 5.2996,3.8334 5.2996,5.4404 L5.2996,16.0404 L4.8996,16.3404 C3.0836,17.7024 1.9996,19.9084 1.9996,22.2404 C1.9996,26.3214 5.3196,29.6404 9.3996,29.6404 C13.4806,29.6404 16.7996,26.3214 16.7996,22.2404 C16.8836,19.9684 15.8546,17.8254 13.9746,16.3214 L13.5996,16.0214 L13.5996,5.4404 C13.5996,3.9334 12.5496,2.6034 11.0456,2.2084 C10.4326,2.0544 9.8916,2.0004 9.4316,2.0004 M9.3996,31.6404 C4.2166,31.6404 -0.0004,27.4234 -0.0004,22.2404 C-0.0004,19.4564 1.2246,16.8094 3.2996,15.0584 L3.2996,5.4404 C3.2996,2.8654 5.2436,0.6434 7.9216,0.1564 C9.0036,-0.0846 10.2696,-0.0476 11.5426,0.2704 C13.9366,0.9004 15.5996,3.0244 15.5996,5.4404 L15.5996,15.0744 C17.7406,16.9584 18.9006,19.5584 18.7986,22.2774 C18.7996,27.4234 14.5826,31.6404 9.3996,31.6404" id="Fill-3"></path>
                </g>
            </g>
        </g>
    </g>
</svg>