<?xml version="1.0" encoding="utf-8"?>
<!-- Generator: Adobe Illustrator 22.1.0, SVG Export Plug-In . SVG Version: 6.00 Build 0)  -->
<svg version="1.1" id="图层_1" xmlns="http://www.w3.org/2000/svg" xmlns:xlink="http://www.w3.org/1999/xlink" x="0px" y="0px"
	 viewBox="0 0 26 15" style="enable-background:new 0 0 26 15;" xml:space="preserve">
<style type="text/css">
	.st0{fill:#050000;}
</style>
<title>icon/iot/烟感</title>
<desc>Created with Sketch.</desc>
<g id="蒙版">
	<g id="编组" transform="translate(4.316406, 11.475598)">
		<path id="Fill-1" class="st0" d="M17.4,0H0v1c1.3,1.1,4.7,1.9,8.7,1.9s7.4-0.8,8.7-1.9V0z"/>
	</g>
	<path id="Fill-5" class="st0" d="M25.5,6.3h-25l2.4,3.9h20.2L25.5,6.3z M24.6,6.8l-1.8,2.8H3.2L1.4,6.8H24.6z"/>
	<g id="编组_1_" transform="translate(0.000000, 0.049816)">
		<path id="Fill-7" class="st0" d="M25.5,0h-25C0.2,0,0,0.2,0,0.5v5.8c0,0.3,0.2,0.5,0.5,0.5h25c0.3,0,0.5-0.2,0.5-0.5V0.5
			C26,0.2,25.8,0,25.5,0L25.5,0z"/>
	</g>
	<polygon id="Fill-9" class="st0" points="3.9,9.6 4.8,9.6 4.8,6.8 3.9,6.8 	"/>
	<polygon id="Fill-11" class="st0" points="5.8,9.6 6.7,9.6 6.7,6.8 5.8,6.8 	"/>
	<polygon id="Fill-12" class="st0" points="7.7,9.6 8.7,9.6 8.7,6.8 7.7,6.8 	"/>
	<polygon id="Fill-13" class="st0" points="9.6,9.6 10.6,9.6 10.6,6.8 9.6,6.8 	"/>
	<polygon id="Fill-14" class="st0" points="11.6,9.6 12.5,9.6 12.5,6.8 11.6,6.8 	"/>
	<polygon id="Fill-15" class="st0" points="13.5,9.6 14.4,9.6 14.4,6.8 13.5,6.8 	"/>
	<polygon id="Fill-16" class="st0" points="15.4,9.6 16.4,9.6 16.4,6.8 15.4,6.8 	"/>
	<polygon id="Fill-17" class="st0" points="17.3,9.6 18.3,9.6 18.3,6.8 17.3,6.8 	"/>
	<polygon id="Fill-18" class="st0" points="19.3,9.6 20.2,9.6 20.2,6.8 19.3,6.8 	"/>
	<polygon id="Fill-19" class="st0" points="21.2,9.6 22.1,9.6 22.1,6.8 21.2,6.8 	"/>
</g>
</svg>
