<?xml version="1.0" encoding="utf-8"?>
<!-- Generator: Adobe Illustrator 22.1.0, SVG Export Plug-In . SVG Version: 6.00 Build 0)  -->
<svg version="1.1" id="图层_1" xmlns="http://www.w3.org/2000/svg" xmlns:xlink="http://www.w3.org/1999/xlink" x="0px" y="0px"
	 viewBox="0 0 23 26" style="enable-background:new 0 0 23 26;" xml:space="preserve">
<title>icon/iot/电梯安全</title>
<desc>Created with Sketch.</desc>
<g id="蒙版">
	<polygon id="Fill-1" points="4.6,24.5 9.1,24.5 9.1,9.2 4.6,9.2 	"/>
	<polygon id="Fill-2" points="10.7,24.5 15.2,24.5 15.2,9.2 10.7,9.2 	"/>
	<path id="Fill-3" d="M19.8,12.2c-0.4,0-0.8-0.3-0.8-0.8s0.3-0.8,0.8-0.8s0.8,0.3,0.8,0.8S20.2,12.2,19.8,12.2 M19.8,15.3
		c-0.4,0-0.8-0.3-0.8-0.8s0.3-0.8,0.8-0.8s0.8,0.3,0.8,0.8S20.2,15.3,19.8,15.3 M15,3.6l-1.5,1.5c-0.1,0.1-0.3,0.2-0.5,0.2
		s-0.4-0.1-0.5-0.2l-1.5-1.5c-0.3-0.3-0.3-0.8,0-1.1c0.3-0.3,0.8-0.3,1.1,0l1,1l1-1c0.3-0.3,0.8-0.3,1.1,0C15.3,2.9,15.3,3.3,15,3.6
		 M8.9,5.2c-0.3,0.3-0.8,0.3-1.1,0l-1-1l-1,1c-0.3,0.3-0.8,0.3-1.1,0c-0.3-0.3-0.3-0.8,0-1.1l1.5-1.5c0.3-0.3,0.8-0.3,1.1,0l1.5,1.5
		C9.2,4.4,9.2,4.9,8.9,5.2 M22.1,0H0.8C0.3,0,0,0.3,0,0.8v24.5C0,25.7,0.3,26,0.8,26H3V8.4C3,8,3.4,7.7,3.8,7.7H16
		c0.4,0,0.8,0.3,0.8,0.8V26h5.3c0.4,0,0.8-0.3,0.8-0.8V0.8C22.9,0.3,22.5,0,22.1,0"/>
</g>
</svg>
