<?xml version="1.0" encoding="utf-8"?>
<!-- Generator: Adobe Illustrator 22.1.0, SVG Export Plug-In . SVG Version: 6.00 Build 0)  -->
<svg version="1.1" id="图层_1" xmlns="http://www.w3.org/2000/svg" xmlns:xlink="http://www.w3.org/1999/xlink" x="0px" y="0px"
	 viewBox="0 0 26 26" style="enable-background:new 0 0 26 26;" xml:space="preserve">
<title>icon/iot/电箱门</title>
<desc>Created with Sketch.</desc>
<g id="蒙版">
	<path id="Fill-1" d="M26,21.9c0,2.2-1.8,4.1-4.1,4.1H4.1C1.8,26,0,24.2,0,21.9V4.1C0,1.8,1.8,0,4.1,0h17.9C24.2,0,26,1.8,26,4.1
		v12.7C26,19,26,19.7,26,21.9z M17.3,11.3L17,11.7c-0.4,0.4-0.3,1.1,0.1,1.4c0.4,0.4,1.1,0.3,1.4-0.1l0.3-0.4
		c0.5-0.6,0.7-1.5,0.3-2.2c-0.3-0.8-1.1-1.2-1.9-1.2h-1.7l1.8-3c0.2-0.3,0.2-0.7,0-1c-0.2-0.3-0.5-0.5-0.9-0.5h-5.3
		c-0.4,0-0.7,0.2-0.9,0.5l-3.5,6.2c-0.4,0.8-0.4,1.7,0,2.5c0.5,0.8,1.3,1.3,2.2,1.3h1.6l-1.5,4.2c-0.2,0.4-0.2,0.9,0.1,1.3
		c0.3,0.4,0.8,0.7,1.3,0.7h0c0.5,0,0.9-0.2,1.2-0.5c0,0,0,0,0,0l4.1-4.6c0.4-0.4,0.3-1.1-0.1-1.4c-0.4-0.4-1.1-0.3-1.4,0.1l-2.4,2.7
		l1.1-3.1c0.1-0.3,0.1-0.7-0.1-0.9c-0.2-0.3-0.5-0.4-0.8-0.4h-3c-0.3,0-0.4-0.2-0.4-0.3c0-0.1-0.1-0.3,0-0.5l3.2-5.7h2.9l-1.8,3
		c-0.2,0.3-0.2,0.7,0,1c0.2,0.3,0.5,0.5,0.9,0.5h3.5C17.3,11.2,17.4,11.2,17.3,11.3C17.4,11.3,17.4,11.3,17.3,11.3
		C17.3,11.3,17.3,11.3,17.3,11.3"/>
</g>
</svg>
