<?xml version="1.0" encoding="UTF-8"?>
<svg width="459px" height="424px" viewBox="0 0 459 424" version="1.1" xmlns="http://www.w3.org/2000/svg" xmlns:xlink="http://www.w3.org/1999/xlink">
    <!-- Generator: Sketch 55.2 (78181) - https://sketchapp.com -->
    <title>蒙版</title>
    <desc>Created with Sketch.</desc>
    <defs>
        <polygon id="path-1" points="0.5113 0.883 14.4873 0.883 14.4873 65.1366 0.5113 65.1366"></polygon>
    </defs>
    <g id="Symbols" stroke="none" stroke-width="1" fill="none" fill-rule="evenodd">
        <g id="icon/iot/紧急待办" transform="translate(0.000000, -1.000000)">
            <g id="矩形">
                <g id="蒙版">
                    <path d="M274.4512,251.3257 C274.4512,240.9377 266.0322,232.5147 255.6442,232.5147 C245.2572,232.5147 236.8382,240.9377 236.8382,251.3257 C236.8382,261.7097 245.2572,270.1327 255.6442,270.1327 C266.0242,270.1207 274.4392,261.7057 274.4512,251.3257" id="Fill-1" fill="#000000"></path>
                    <path d="M184.5479,251.3257 C184.5479,261.7097 192.9699,270.1327 203.3539,270.1327 C213.7419,270.1327 222.1649,261.7137 222.1649,251.3257 C222.1649,240.9377 213.7419,232.5187 203.3579,232.5187 C192.9739,232.5267 184.5599,240.9417 184.5479,251.3257" id="Fill-3" fill="#000000"></path>
                    <polygon id="Fill-5" fill="#000000" points="113.771 381.1929 96.735 381.1929 96.735 424.1169 362.264 424.1169 362.264 381.1929"></polygon>
                    <path d="M120.6924,241.3745 L120.6924,367.2185 L221.5134,367.2185 L221.5134,278.5985 C206.6564,288.4985 186.6104,284.6875 176.4214,270.0265 C166.2324,255.3695 169.6484,235.2485 184.1074,224.7745 C198.5624,214.3015 218.7454,217.3195 229.4994,231.5675 C237.5164,220.9375 251.1644,216.2085 264.0404,219.6015 C276.9194,222.9935 286.4644,233.8375 288.1964,247.0405 C289.9304,260.2395 283.5124,273.1815 271.9514,279.7865 C260.3894,286.3885 245.9814,285.3475 235.4884,277.1465 L235.4884,367.2185 L338.3064,367.2185 L338.3064,241.3745 C338.3064,182.4785 290.3254,134.6305 231.4294,134.6305 L227.5684,134.6305 C168.6734,134.6305 120.6924,182.4785 120.6924,241.3745" id="Fill-7" fill="#000000"></path>
                    <g id="编组" transform="translate(222.000000, 0.117000)">
                        <mask id="mask-2" fill="white">
                            <use xlink:href="#path-1"></use>
                        </mask>
                        <g id="Clip-10"></g>
                        <path d="M14.4873,58.1486 L14.4873,7.8706 C14.4873,4.0106 11.3593,0.8826 7.4993,0.8826 C3.6383,0.8826 0.5113,4.0106 0.5113,7.8706 L0.5113,58.1486 C0.5113,62.0086 3.6383,65.1366 7.4993,65.1366 C11.3593,65.1366 14.4873,62.0086 14.4873,58.1486" id="Fill-9" fill="#000000" mask="url(#mask-2)"></path>
                    </g>
                    <path d="M452.0107,208.4995 L403.7057,208.4995 C399.8457,208.4995 396.7187,211.6265 396.7187,215.4865 C396.7187,219.3475 399.8457,222.4745 403.7057,222.4745 L452.0107,222.4745 C455.8707,222.4745 458.9977,219.3475 458.9977,215.4865 C458.9977,211.6265 455.8707,208.4995 452.0107,208.4995" id="Fill-11" fill="#000000"></path>
                    <path d="M55.2964,208.4995 L6.9874,208.4995 C3.1274,208.4995 0.0004,211.6265 0.0004,215.4865 C0.0004,219.3475 3.1274,222.4745 6.9874,222.4745 L55.2964,222.4745 C59.1564,222.4745 62.2844,219.3475 62.2844,215.4865 C62.2844,211.6265 59.1564,208.4995 55.2964,208.4995" id="Fill-13" fill="#000000"></path>
                    <path d="M64.6509,57.9072 C61.9879,55.1152 57.5619,55.0062 54.7699,57.6692 C51.9739,60.3322 51.8689,64.7542 54.5319,67.5502 L82.5609,96.9742 C84.2799,98.7952 86.8419,99.5552 89.2759,98.9712 C91.7089,98.3862 93.6469,96.5412 94.3479,94.1362 C95.0499,91.7342 94.4149,89.1402 92.6789,87.3352 L64.6509,57.9072 Z" id="Fill-15" fill="#000000"></path>
                    <path d="M404.2285,57.6694 C401.4365,55.0024 397.0105,55.1114 394.3475,57.9074 L366.3195,87.3354 C364.5835,89.1404 363.9445,91.7334 364.6505,94.1354 C365.3525,96.5414 367.2865,98.3864 369.7195,98.9714 C372.1565,99.5554 374.7185,98.7954 376.4335,96.9744 L404.4695,67.5504 C407.1335,64.7544 407.0285,60.3284 404.2285,57.6694" id="Fill-17" fill="#000000"></path>
                </g>
            </g>
        </g>
    </g>
</svg>