<?xml version="1.0" encoding="UTF-8"?>
<svg width="26px" height="23px" viewBox="0 0 26 23" version="1.1" xmlns="http://www.w3.org/2000/svg" xmlns:xlink="http://www.w3.org/1999/xlink">
    <!-- Generator: Sketch 55.2 (78181) - https://sketchapp.com -->
    <title>蒙版</title>
    <desc>Created with Sketch.</desc>
    <g id="Symbols" stroke="none" stroke-width="1" fill="none" fill-rule="evenodd">
        <g id="icon/iot/人员考核" fill="#000000">
            <g id="矩形" transform="translate(0.000000, -0.000000)">
                <g id="蒙版">
                    <path d="M7.83843478,7.04492609 C7.83730435,7.04492609 1.50008696,7.04266522 1.04904348,7.04266522 L1.04565217,7.04266522 C0.469130435,7.04266522 -0.00169565218,7.52140435 -4.56577982e-06,8.0984913 L0.0226086957,14.6346652 C0.0248695652,15.2106217 0.49173913,15.6882304 1.06543478,15.6882304 L1.0693913,15.6882304 C1.39382609,15.6882304 1.68378261,15.526013 1.87426087,15.292013 L2.28630435,21.6535348 C2.32304348,22.2221435 2.795,22.6494478 3.36473913,22.6494478 L5.5153913,22.6494478 C6.08456522,22.6494478 6.55652174,22.2164913 6.59326087,21.6473174 L7.0036087,15.2744913 C7.19521739,15.5220565 7.48404348,15.6882304 7.8096087,15.6882304 L7.81356522,15.6882304 C8.38782609,15.6882304 8.85413043,15.201013 8.85752174,14.6307087 L8.87900461,8.1047087 C8.88069565,7.53327391 8.4143913,7.04492609 7.83843478,7.04492609" id="Fill-1"></path>
                    <path d="M4.4408,0.565330435 C6.03753913,0.565330435 7.33188696,1.85967826 7.33188696,3.45641739 C7.33188696,5.05315652 6.03753913,6.34750435 4.4408,6.34750435 C2.84406087,6.34750435 1.54971304,5.05315652 1.54971304,3.45641739 C1.54971304,1.85967826 2.84406087,0.565330435 4.4408,0.565330435" id="Fill-3"></path>
                    <path d="M23.1669609,20.0639739 C23.1669609,20.217713 23.0465696,20.3674957 22.8939609,20.3674957 L12.0785261,20.3674957 C11.9253522,20.3674957 11.7795261,20.217713 11.7795261,20.0639739 L11.7795261,5.89623478 L12.0977435,5.89623478 C13.5938739,5.89623478 14.8209609,4.66971304 14.8209609,3.17245217 L14.8209609,2.9361913 L22.8933957,2.9361913 C23.0460043,2.9361913 23.1663957,3.05884348 23.1663957,3.21258261 L23.1663957,20.0639739 L23.1669609,20.0639739 Z M22.9312652,0.5928 L14.4140043,0.5928 C13.825613,0.5928 13.2592652,0.820017391 12.8336565,1.22697391 C12.7714826,1.28632174 12.7313522,1.3241913 12.7313522,1.3241913 C11.8592217,2.19632174 10.9910478,3.06506087 10.1121348,3.93549565 C9.67861304,4.36506087 9.43613478,4.94949565 9.43613478,5.55936522 L9.43613478,20.0509739 C9.43613478,21.5092348 10.6383522,22.7120174 12.096613,22.7120174 L22.9312652,22.7120174 C24.3895261,22.7120174 25.5521783,21.5092348 25.5521783,20.0509739 L25.5521783,3.21258261 C25.551613,1.75488696 24.3895261,0.5928 22.9312652,0.5928 L22.9312652,0.5928 Z" id="Fill-5"></path>
                    <path d="M20.5020174,6.43115652 L14.2094522,6.43115652 C13.5571913,6.43115652 13.028713,6.97093913 13.028713,7.6232 C13.028713,8.27546087 13.5571913,8.81524348 14.2094522,8.81524348 L20.5020174,8.81524348 C21.1531478,8.81524348 21.6827565,8.27489565 21.6827565,7.6232 C21.6827565,6.97150435 21.1531478,6.43115652 20.5020174,6.43115652" id="Fill-7"></path>
                    <path d="M20.5020174,10.3984174 L14.2094522,10.3984174 C13.5571913,10.3984174 13.028713,10.9387652 13.028713,11.5904609 C13.028713,12.2427217 13.5571913,12.7825043 14.2094522,12.7825043 L20.5020174,12.7825043 C21.1531478,12.7825043 21.6827565,12.2421565 21.6827565,11.5904609 C21.6827565,10.9387652 21.1531478,10.3984174 20.5020174,10.3984174" id="Fill-9"></path>
                    <path d="M20.5020174,14.3653957 L14.2094522,14.3653957 C13.5571913,14.3653957 13.028713,14.9051783 13.028713,15.5574391 C13.028713,16.2102652 13.5571913,16.7494826 14.2094522,16.7494826 L20.5020174,16.7494826 C21.1531478,16.7494826 21.6827565,16.2097 21.6827565,15.5574391 C21.6827565,14.9057435 21.1531478,14.3653957 20.5020174,14.3653957" id="Fill-11"></path>
                </g>
            </g>
        </g>
    </g>
</svg>