<?xml version="1.0" encoding="utf-8"?>
<!-- Generator: Adobe Illustrator 22.1.0, SVG Export Plug-In . SVG Version: 6.00 Build 0)  -->
<svg version="1.1" id="图层_1" xmlns="http://www.w3.org/2000/svg" xmlns:xlink="http://www.w3.org/1999/xlink" x="0px" y="0px"
	 viewBox="0 0 32 32" style="enable-background:new 0 0 32 32;" xml:space="preserve">
<title>icon/iot/综合治理</title>
<desc>Created with Sketch.</desc>
<g id="蒙版">
	<path id="路径" d="M28.1,5.5c-0.1-0.1-0.2-0.2-0.4-0.2c-0.1,0-0.3,0.1-0.4,0.2L25,7.7c-0.2,0.2-0.2,0.5,0,0.7
		c1.8,2.1,2.7,4.8,2.7,7.5s-1,5.4-2.7,7.5c-0.2,0.2-0.2,0.5,0,0.7l2.3,2.3c0.1,0.1,0.2,0.2,0.4,0.2c0,0,0,0,0,0
		c0.1,0,0.3-0.1,0.4-0.2C30.6,23.6,32,19.9,32,16S30.6,8.4,28.1,5.5z"/>
	<path id="路径_1_" d="M7,23.5c-1.8-2.1-2.7-4.8-2.7-7.5s1-5.4,2.7-7.5c0.2-0.2,0.2-0.5,0-0.7L4.7,5.5C4.6,5.4,4.5,5.3,4.3,5.3
		C4.2,5.3,4,5.4,3.9,5.5C1.4,8.4,0,12.1,0,16s1.4,7.6,3.9,10.5c0.1,0.1,0.2,0.2,0.4,0.2c0,0,0,0,0,0c0.1,0,0.3-0.1,0.4-0.2L7,24.3
		C7.2,24.1,7.2,23.8,7,23.5z"/>
	<path id="路径_2_" d="M7.7,7c0.2,0.2,0.5,0.2,0.7,0c2.1-1.8,4.8-2.7,7.5-2.7s5.4,1,7.5,2.7c0.1,0.1,0.2,0.1,0.3,0.1
		c0.1,0,0.3-0.1,0.4-0.2l2.3-2.3c0.1-0.1,0.2-0.2,0.2-0.4c0-0.1-0.1-0.3-0.2-0.4C23.6,1.4,19.9,0,16,0S8.4,1.4,5.5,3.9
		C5.4,4,5.3,4.2,5.3,4.3c0,0.1,0.1,0.3,0.2,0.4L7.7,7z"/>
	<path id="路径_3_" d="M24.3,25c-0.2-0.2-0.5-0.2-0.7,0c-2.1,1.8-4.8,2.7-7.5,2.7s-5.4-1-7.5-2.7c-0.2-0.2-0.5-0.2-0.7,0l-2.3,2.3
		c-0.1,0.1-0.2,0.2-0.2,0.4c0,0.1,0.1,0.3,0.2,0.4C8.4,30.6,12.1,32,16,32s7.6-1.4,10.5-3.9c0.1-0.1,0.2-0.2,0.2-0.4
		c0-0.1-0.1-0.3-0.2-0.4L24.3,25z"/>
	<path id="形状" d="M16.5,7.2C16.4,7,16.2,6.9,16,6.9c-0.2,0-0.4,0.1-0.5,0.2c-0.1,0.1-1.9,3-6.5,3c-0.1,0-0.3,0.1-0.4,0.2
		c-0.1,0.1-0.2,0.2-0.2,0.4l0,5.2c0,2.7,0.9,5.2,2.5,7.1c1.4,1.7,3.1,2.6,5,2.6s3.5-0.9,5-2.6c1.6-1.9,2.5-4.4,2.5-7.1l0-5.2
		c0-0.1-0.1-0.3-0.2-0.4c-0.1-0.1-0.2-0.2-0.4-0.2C18.4,10.1,16.5,7.3,16.5,7.2z M19.7,14.2c-0.1,0.1-0.1,0.2-0.2,0.3
		c-1,1.6-2,3.2-3,4.8c-0.1,0.2-0.3,0.4-0.4,0.6c-0.1,0.2-0.2,0.4-0.5,0.4c-0.4,0.1-0.6-0.3-0.8-0.6c-0.2-0.3-0.5-0.6-0.7-1
		c-0.2-0.2-0.4-0.5-0.5-0.7c0,0,0,0,0,0c-0.2-0.2-0.1-0.6,0.1-0.7c0.2-0.2,0.6-0.1,0.7,0.1l1.1,1.5l3.3-5.2c0.2-0.2,0.5-0.3,0.7-0.2
		C19.7,13.6,19.8,13.9,19.7,14.2L19.7,14.2z"/>
</g>
</svg>
