<?xml version="1.0" encoding="UTF-8"?>
<svg width="26px" height="26px" viewBox="0 0 26 26" version="1.1" xmlns="http://www.w3.org/2000/svg" xmlns:xlink="http://www.w3.org/1999/xlink">
    <!-- Generator: Sketch 55.2 (78181) - https://sketchapp.com -->
    <title>蒙版</title>
    <desc>Created with Sketch.</desc>
    <g id="Symbols" stroke="none" stroke-width="1" fill="none" fill-rule="evenodd">
        <g id="icon/iot/综合治理" fill="#000000">
            <g id="矩形">
                <g id="蒙版">
                    <path d="M16.3056739,14.2698174 C16.2678043,13.4479913 15.9388478,12.6578174 15.3702391,12.0513391 C14.714587,11.3510348 13.7961087,10.9497304 12.8346739,10.9497304 L12.7815435,10.9497304 C11.8201087,10.9497304 10.9021957,11.3510348 10.2459783,12.0524696 C9.67793478,12.6583826 9.34954348,13.4468609 9.3111087,14.268687 C10.2651957,15.0469913 11.4843696,15.5149913 12.8086739,15.5149913 C14.1329783,15.5144261 15.3510217,15.0475565 16.3056739,14.2698174" id="Fill-1"></path>
                    <path d="M12.8078261,5.03201739 C14.3582174,5.03201739 15.6152609,6.28906087 15.6152609,7.83945217 C15.6152609,9.38984348 14.3582174,10.646887 12.8078261,10.646887 C11.2574348,10.646887 10.0003913,9.38984348 10.0003913,7.83945217 C10.0003913,6.28906087 11.2574348,5.03201739 12.8078261,5.03201739" id="Fill-3"></path>
                    <g id="编组" transform="translate(3.391304, 0.361174)">
                        <path d="M9.41652174,2.40833478 C13.3860435,2.40833478 16.6162609,5.63855217 16.6162609,9.60807391 C16.6162609,13.5781609 13.3860435,16.8083783 9.41652174,16.8083783 C5.44643478,16.8083783 2.21678261,13.5787261 2.21678261,9.60807391 C2.21678261,5.63855217 5.44643478,2.40833478 9.41652174,2.40833478 M9.41652174,19.0127261 C14.6018261,19.0127261 18.8217391,14.7945087 18.8217391,9.60807391 C18.8217391,4.42276957 14.6018261,0.203986957 9.41652174,0.203986957 C4.23065217,0.203986957 0.0113043478,4.42276957 0.0113043478,9.60807391 C0.0113043478,14.7945087 4.23065217,19.0127261 9.41652174,19.0127261" id="Fill-5"></path>
                    </g>
                    <g id="编组" transform="translate(10.739130, 20.709000)">
                        <path d="M2.66511304,0.725908696 C2.58485217,0.462517391 2.34406957,0.282778261 2.0688087,0.282778261 C1.79467826,0.282778261 1.55276522,0.461952174 1.47363478,0.725908696 L0.408765217,4.27208261 C0.352808696,4.4603 0.388417391,4.6716913 0.505982609,4.82938696 C0.622982609,4.98708261 0.807808696,5.08712609 1.00450435,5.08712609 L3.13311304,5.08712609 C3.3298087,5.08712609 3.51350435,4.98708261 3.6322,4.82938696 C3.74863478,4.67112609 3.78537391,4.4636913 3.72828696,4.27547391 L2.66511304,0.725908696 Z" id="Fill-7"></path>
                    </g>
                    <path d="M8.05316087,19.8651304 C7.8072913,19.7430435 7.51111739,19.7961739 7.32346522,19.9962609 L4.79016087,22.6968696 C4.65507391,22.841 4.59685652,23.0393913 4.6319,23.2326957 C4.66581304,23.4254348 4.78959565,23.5921739 4.96594348,23.6792174 L6.8712913,24.627087 C7.04763913,24.7146957 7.2545087,24.7141304 7.42972609,24.6253913 C7.60494348,24.5366522 7.72703043,24.369913 7.76037826,24.1766087 L8.38776957,20.5264348 C8.43581304,20.2562609 8.2979,19.9872174 8.05316087,19.8651304" id="Fill-9"></path>
                    <path d="M3.51344783,16.3888174 L0.309230435,18.2472522 C0.139665217,18.3467304 0.0260565217,18.519687 0.00401304348,18.714687 C-0.0180304348,18.909687 0.0531869565,19.104687 0.196186957,19.2380783 L1.7477087,20.6946435 C1.89127391,20.8291652 2.08966522,20.8879478 2.28353478,20.8534696 C2.47683913,20.8184261 2.64244783,20.6946435 2.73062174,20.5194261 L4.38105652,17.2044261 C4.5037087,16.9591217 4.45001304,16.6618174 4.24992609,16.4741652 C4.05040435,16.2853826 3.75027391,16.2514696 3.51344783,16.3888174" id="Fill-11"></path>
                    <path d="M18.4649739,20.0655 C18.2761913,19.865413 17.9811478,19.8128478 17.734713,19.9349348 C17.487713,20.0564565 17.3520609,20.3260652 17.3989739,20.5962391 L18.0274957,24.2458478 C18.0602783,24.4391522 18.1818,24.6058913 18.3581478,24.6940652 C18.5339304,24.7839348 18.7402348,24.7845 18.914887,24.6963261 L20.8213652,23.7484565 C20.9971478,23.6608478 21.1214957,23.4946739 21.1554087,23.3013696 C21.1910174,23.1086304 21.1322348,22.9096739 20.997713,22.7661087 L18.4649739,20.0655 Z" id="Fill-13"></path>
                    <path d="M25.7829565,18.7826826 C25.7614783,18.5876826 25.6478696,18.4147261 25.4788696,18.315813 L22.2752174,16.4573783 C22.0378261,16.3194652 21.7376957,16.3539435 21.5376087,16.5415957 C21.3375217,16.729813 21.2843913,17.0265522 21.4070435,17.2718565 L23.0574783,20.5862913 C23.1456522,20.7626391 23.3101304,20.8864217 23.5045652,20.9209 C23.6978696,20.9559435 23.8962609,20.8971609 24.0392609,20.7626391 L25.5907826,19.3060739 C25.7343478,19.1726826 25.8061304,18.9782478 25.7829565,18.7826826" id="Fill-15"></path>
                </g>
            </g>
        </g>
    </g>
</svg>