<?xml version="1.0" encoding="utf-8"?>
<!-- Generator: Adobe Illustrator 22.1.0, SVG Export Plug-In . SVG Version: 6.00 Build 0)  -->
<svg version="1.1" id="图层_1" xmlns="http://www.w3.org/2000/svg" xmlns:xlink="http://www.w3.org/1999/xlink" x="0px" y="0px"
	 viewBox="0 0 32 26" style="enable-background:new 0 0 32 26;" xml:space="preserve">
<title>icon/iot/今日事件</title>
<desc>Created with Sketch.</desc>
<path id="path-1_1_" d="M2.9,7.5H29v7.2h-5.8c-0.4,0-0.7,0.3-0.7,0.6l-0.6,3.4H10l-0.6-3.4c-0.1-0.4-0.4-0.6-0.7-0.6H2.9V7.5z
	 M31.1,14.6h-0.6V6.7c0-0.4-0.3-0.8-0.8-0.8h-0.6V3.7c0-0.4-0.3-0.8-0.8-0.8h-0.9V0.8c0-0.4-0.3-0.8-0.8-0.8H5.1
	C4.7,0,4.4,0.3,4.4,0.8V3H3.5C3.1,3,2.7,3.3,2.7,3.7V6H2.1C1.7,6,1.4,6.3,1.4,6.7v7.9H0.8C0.3,14.6,0,15,0,15.4v9.4
	c0,0.4,0.3,0.8,0.8,0.8h30.4c0.4,0,0.8-0.3,0.8-0.8v-9.4C31.9,15,31.6,14.6,31.1,14.6L31.1,14.6z"/>
<g>
	<rect x="4.2" y="4.5" width="23.4" height="1.5"/>
	<rect x="5.9" y="1.5" width="20.1" height="1.5"/>
</g>
</svg>
