<?xml version="1.0" encoding="utf-8"?>
<!-- Generator: Adobe Illustrator 22.1.0, SVG Export Plug-In . SVG Version: 6.00 Build 0)  -->
<svg version="1.1" id="图层_1" xmlns="http://www.w3.org/2000/svg" xmlns:xlink="http://www.w3.org/1999/xlink" x="0px" y="0px"
	 viewBox="0 0 21 21" style="enable-background:new 0 0 21 21;" xml:space="preserve">
<title>icon/iot/街面管理</title>
<desc>Created with Sketch.</desc>
<g id="组件">
	<g id="organisms_x2F_街面管理" transform="translate(-17.000000, 0.000000)">
		<g id="矩形">
			<g id="蒙版" transform="translate(0.000000, 0.000000)">
				<path id="形状" d="M28.2,0.8h-2.1V0h-4.3V21h4.3v-0.8h2.1V21h4.3V0h-4.3V0.8z M28.2,16.9h-2.1v-4.8h2.1V16.9z M28.2,8.9h-2.1
					V4.1h2.1V8.9z"/>
				<path id="路径" d="M37.2,10.4l-2.6-2.2c0,0-0.1,0-0.1,0c0,0,0,0-0.1,0c-0.1,0-0.1,0.1-0.1,0.1v4.3c0,0.1,0,0.1,0.1,0.1
					c0.1,0,0.1,0,0.2,0l2.6-2.2c0,0,0.1-0.1,0.1-0.1C37.2,10.5,37.2,10.4,37.2,10.4z"/>
				<path id="路径_1_" d="M19.8,8.2C19.8,8.2,19.8,8.2,19.8,8.2c-0.1,0-0.1,0-0.2,0l-2.6,2.2c0,0-0.1,0.1-0.1,0.1
					c0,0,0,0.1,0.1,0.1l2.6,2.2c0,0,0.1,0.1,0.2,0c0.1,0,0.1-0.1,0.1-0.1V8.3C19.9,8.3,19.9,8.2,19.8,8.2z"/>
			</g>
		</g>
	</g>
</g>
</svg>
