<?xml version="1.0" encoding="UTF-8"?>
<svg width="26px" height="26px" viewBox="0 0 26 26" version="1.1" xmlns="http://www.w3.org/2000/svg" xmlns:xlink="http://www.w3.org/1999/xlink">
    <!-- Generator: Sketch 55.2 (78181) - https://sketchapp.com -->
    <title>Fill 1</title>
    <desc>Created with Sketch.</desc>
    <g id="Symbols" stroke="none" stroke-width="1" fill="none" fill-rule="evenodd">
        <g id="icon/Phone" fill="#000000">
            <g id="矩形">
                <g id="蒙版">
                    <path d="M10.3047533,5.83301333 C9.97368667,2.02488 6.00088667,0.156346667 5.83275333,0.08008 C5.67502,0.00554666667 5.49822,-0.0169866667 5.32835333,0.01248 C0.741953333,0.773413333 0.0520866667,3.44274667 0.0243533333,3.55368 C-0.01378,3.70968 -0.00684666667,3.87088 0.0416866667,4.02168 C5.51208667,20.99448 16.88102,24.1413467 20.6180867,25.17528 C20.90582,25.2550133 21.1432867,25.3191467 21.3235533,25.37808 C21.41022,25.4075467 21.5003533,25.41968 21.5904867,25.41968 C21.7135533,25.41968 21.8374867,25.39368 21.9501533,25.34168 C22.0636867,25.28968 24.7650867,24.0174133 25.42462,19.8678133 C25.4540867,19.6875467 25.42462,19.5003467 25.3422867,19.33828 C25.2824867,19.2230133 23.86982,16.5346133 19.9524867,15.5847467 C19.67862,15.51368 19.39782,15.58648 19.1863533,15.7667467 C17.9504867,16.8223467 16.24402,17.94728 15.5064867,18.0634133 C10.56822,15.64888 7.81048667,11.01568 7.70648667,10.13688 C7.64582,9.64288 8.77768667,7.90781333 10.07942,6.49688 C10.2440867,6.31834667 10.3272867,6.07568 10.3047533,5.83301333" id="Fill-1"></path>
                </g>
            </g>
        </g>
    </g>
</svg>