<?xml version="1.0" encoding="UTF-8"?>
<svg width="26px" height="24px" viewBox="0 0 26 24" version="1.1" xmlns="http://www.w3.org/2000/svg" xmlns:xlink="http://www.w3.org/1999/xlink">
    <!-- Generator: Sketch 55.2 (78181) - https://sketchapp.com -->
    <title>蒙版</title>
    <desc>Created with Sketch.</desc>
    <g id="Symbols" stroke="none" stroke-width="1" fill="none" fill-rule="evenodd">
        <g id="icon/iot/严重超期" fill="#000000">
            <g id="矩形">
                <g id="蒙版">
                    <path d="M12.2382812,13.7617188 L12.2382812,17.621043 L13.7617188,17.621043 L13.7617188,13.7617188 C13.7617188,13.5530586 13.6757969,13.3627813 13.5373672,13.2243516 C13.0508828,12.737918 12.2382812,13.0980078 12.2382812,13.7617188" id="Fill-1"></path>
                    <path d="M10.7148438,17.6210938 L10.7148438,13.7617188 C10.7148438,12.5033086 11.7415898,11.4765625 13,11.4765625 C14.2583594,11.4765625 15.2851562,12.5034102 15.2851562,13.7617188 L15.2851562,17.6210938 L20.0087773,17.6210938 C19.4477461,14.319043 18.8865625,11.017043 18.3257344,7.71499219 C18.1375898,6.60796094 17.191332,5.80998438 16.0738906,5.80998438 L9.92529688,5.80998438 C8.80765234,5.80998438 7.86129297,6.60831641 7.67340234,7.71534766 C7.11287891,11.0172969 6.55205078,14.3191953 5.99117188,17.6210938 L10.7148438,17.6210938 L10.7148438,17.6210938 Z" id="Fill-3"></path>
                    <path d="M24.4765625,22.4452617 L22.8515625,22.4452617 L22.8515625,19.90625 C22.8515625,19.4855781 22.5105156,19.1445312 22.0898438,19.1445312 L3.91015625,19.1445312 C3.48948438,19.1445312 3.1484375,19.4855781 3.1484375,19.90625 L3.1484375,22.4452617 L1.5234375,22.4452617 C1.10276563,22.4452617 0.76171875,22.7863086 0.76171875,23.2069805 C0.76171875,23.6276523 1.10276563,23.9686992 1.5234375,23.9686992 L24.4765625,23.9686992 C24.8972344,23.9686992 25.2382812,23.6276523 25.2382812,23.2069805 C25.2382812,22.7863086 24.8972344,22.4452617 24.4765625,22.4452617" id="Fill-5"></path>
                    <path d="M2.640625,13.7662332 C3.06129688,13.7662332 3.40234375,13.4251863 3.40234375,13.0045145 C3.40234375,12.5838426 3.06129688,12.2427957 2.640625,12.2427957 L0.76171875,12.2427957 C0.341046875,12.2427957 0,12.5838426 0,13.0045145 C0,13.4251863 0.341046875,13.7662332 0.76171875,13.7662332 L2.640625,13.7662332 Z" id="Fill-7"></path>
                    <path d="M25.2382812,12.2337211 L23.359375,12.2337211 C22.9387031,12.2337211 22.5976562,12.574768 22.5976562,12.9954398 C22.5976562,13.4161117 22.9387031,13.7571586 23.359375,13.7571586 L25.2382812,13.7571586 C25.6589531,13.7571586 26,13.4161117 26,12.9954398 C26,12.574768 25.6589531,12.2337211 25.2382812,12.2337211" id="Fill-9"></path>
                    <path d="M13,3.40234375 C13.4206719,3.40234375 13.7617188,3.06129687 13.7617188,2.640625 L13.7617188,0.76171875 C13.7617188,0.341046875 13.4206719,0 13,0 C12.5793281,0 12.2382812,0.341046875 12.2382812,0.76171875 L12.2382812,2.640625 C12.2382812,3.06129687 12.5793281,3.40234375 13,3.40234375" id="Fill-11"></path>
                    <path d="M5.13302461,6.21663555 C5.28176289,6.36537383 5.47671211,6.43976836 5.67161055,6.43976836 C5.86650898,6.43976836 6.06150898,6.36537383 6.21019648,6.21663555 C6.50767305,5.91920977 6.50767305,5.43688945 6.21019648,5.13941289 L4.88160664,3.81082305 C4.58418086,3.51339727 4.10186055,3.51339727 3.80438398,3.81082305 C3.50690742,4.10824883 3.50690742,4.59056914 3.80438398,4.8880457 L5.13302461,6.21663555 Z" id="Fill-13"></path>
                    <path d="M20.3219199,6.43332422 C20.5169199,6.43332422 20.7118691,6.35892969 20.8605059,6.21019141 L22.1891465,4.88160156 C22.4865723,4.58417578 22.4865723,4.10185547 22.1891465,3.80437891 C21.8916699,3.50695313 21.4093496,3.50695313 21.1119238,3.80437891 L19.7833848,5.13296875 C19.4858574,5.43039453 19.4858574,5.91271484 19.7833848,6.21019141 C19.9320215,6.35892969 20.1269707,6.43332422 20.3219199,6.43332422" id="Fill-15"></path>
                </g>
            </g>
        </g>
    </g>
</svg>