<?xml version="1.0" encoding="utf-8"?>
<!-- Generator: Adobe Illustrator 22.1.0, SVG Export Plug-In . SVG Version: 6.00 Build 0)  -->
<svg version="1.1" id="图层_1" xmlns="http://www.w3.org/2000/svg" xmlns:xlink="http://www.w3.org/1999/xlink" x="0px" y="0px"
	 viewBox="0 0 26 26" style="enable-background:new 0 0 26 26;" xml:space="preserve">
<title>icon/iot/路面交通</title>
<desc>Created with Sketch.</desc>
<g id="蒙版">
	<path id="Fill-1" d="M15,21.1c-0.8,0-1.5-0.7-1.5-1.5c0,0,0,0,0,0c0-0.8,0.7-1.5,1.5-1.5c0.8,0,1.5,0.7,1.5,1.5
		C16.5,20.4,15.8,21.1,15,21.1 M13.2,13H9.8c-0.8,0-1.5,0.7-1.5,1.5l0,1.2H2.9c-0.1,0-0.2,0-0.2,0l0.9-5.1h6.7
		c-0.1,0.2-0.1,0.4-0.1,0.6c0,0.7,0.6,1.4,1.3,1.4s1.3-0.6,1.3-1.4c0-0.2,0-0.4-0.1-0.6h1.9l0.9,5.1c-0.2,0-0.2,0-0.8,0l0-1.2
		C14.7,13.7,14,13,13.2,13 M3.1,21.1c-0.8,0-1.5-0.7-1.5-1.5c0-0.8,0.7-1.5,1.5-1.5c0.8,0,1.5,0.7,1.5,1.5c0,0,0,0,0,0
		C4.6,20.4,4,21.1,3.1,21.1 M16.9,16.3l-1.2-6.4c-0.1-0.3-0.3-0.5-0.6-0.5H3c-0.3,0-0.6,0.2-0.6,0.5l-1.2,6.4
		C0.5,16.8,0,17.7,0,18.7v3.2C0,22.5,0.5,23,1.1,23h0.5v1.4c0,0.9,0.7,1.6,1.6,1.6s1.6-0.7,1.6-1.6V23h8.6v1.4
		c0,0.9,0.7,1.6,1.6,1.6c0.9,0,1.6-0.7,1.6-1.6V23h0.5c0.6,0,1.1-0.5,1.1-1.1v-3.2C18.2,17.7,17.7,16.8,16.9,16.3"/>
	<path id="Fill-3" d="M18.2,9.3l-0.3,0.2c-0.3,0.2-0.3,0.6-0.2,0.9l0.5,1.4l0-0.3c0-0.8,0.3-1.6,0.9-2.2L18.2,9.3z"/>
	<path id="Fill-5" d="M24,9.1c0.5,0.6,0.9,1.4,0.9,2.2L26,8.8c-0.2,0.1-0.4,0.2-0.7,0.2L24,9.1z"/>
	<path id="Fill-7" d="M21.3,0c0.7,0,1.2,0.5,1.2,1.2S22,2.5,21.3,2.5c-0.7,0-1.2-0.5-1.2-1.2S20.7,0,21.3,0"/>
	<path id="Fill-9" d="M21.3,12.8L21.3,12.8c-0.4,0-0.7,0.3-0.7,0.8l0,2.9c0,0.4,0.3,0.8,0.7,0.8h0c0.4,0,0.7-0.3,0.7-0.8l0-2.9
		C22.1,13.1,21.7,12.8,21.3,12.8"/>
	<g id="编组" transform="translate(16.679245, 2.943396)">
		<path id="Fill-11" d="M4.7,5.6L4.7,5.6C4.3,5.6,4,5.3,4,4.9c0-0.4,0.3-0.7,0.7-0.7c0.4,0,0.7,0.3,0.7,0.7C5.3,5.3,5,5.6,4.7,5.6
			 M3.3,4.5l-1.9,0c0.1-0.6,0.1-0.4,0.2-1.6l1.2-1.1l0,1.9c0.4-0.6,1.1-0.9,1.8-0.9h0h0c0.6,0,1.2,0.3,1.7,0.7l0-1.7l1.1,0.9
			c0.4,1.6,0.2,0.8,0.5,1.8L6,4.5c-0.2-0.6-0.7-1-1.4-1C4,3.5,3.5,3.9,3.3,4.5 M5.6,6C5.8,5.8,6,5.6,6,5.4l2.2,0
			c0.5,0.3,1.1-0.1,1-0.7C8.9,3.4,9.3,5,8.6,2.1c0-0.1-0.1-0.3-0.2-0.3L6.5,0.2C6.4,0.1,6.2,0.1,6.2,0C6,0,3.1,0,3,0
			c-0.2,0-0.2,0-0.4,0.2L0.6,2.1C0.4,2.2,0.4,2.3,0.4,2.5C0.1,4.4,0.2,3.7,0,4.8C0,5.4,0.7,5.8,1.1,5.4l2.2,0C3.4,5.6,3.5,5.9,3.7,6
			c-1,0.4-1.6,1.3-1.6,2.4l0,2.8c0,0.3,0.3,0.6,0.6,0.6h0l0.4,0l0-1.4c0-0.9,0.7-1.6,1.6-1.6h0c0.9,0,1.6,0.7,1.6,1.6l0,1.4l0.4,0h0
			c0.3,0,0.6-0.3,0.6-0.6v0l0-2.8C7.2,7.3,6.6,6.4,5.6,6"/>
	</g>
</g>
</svg>
