<?xml version="1.0" encoding="utf-8"?>
<!-- Generator: Adobe Illustrator 22.1.0, SVG Export Plug-In . SVG Version: 6.00 Build 0)  -->
<svg version="1.1" id="图层_1" xmlns="http://www.w3.org/2000/svg" xmlns:xlink="http://www.w3.org/1999/xlink" x="0px" y="0px"
	 viewBox="0 0 26 26" style="enable-background:new 0 0 26 26;" xml:space="preserve">
<title>icon/iot/道路积水</title>
<desc>Created with Sketch.</desc>
<g id="蒙版" transform="translate(0.000000, 0.000000)">
	<path id="Fill-3" d="M25.1,13c-0.4,0-0.8,0.4-0.8,0.8c0,1.3-1.5,2.4-3.2,2.4s-3.2-1.1-3.2-2.4c0-0.4-0.4-0.8-0.8-0.8
		s-0.8,0.4-0.8,0.8c0,1.3-1.5,2.4-3.2,2.4s-3.2-1.1-3.2-2.4c0-0.4-0.4-0.8-0.8-0.8c-0.4,0-0.8,0.4-0.8,0.8c0,1.3-1.5,2.4-3.2,2.4
		s-3.2-1.1-3.2-2.4c0-0.4-0.4-0.8-0.8-0.8S0,13.4,0,13.8v11.4C0,25.6,0.4,26,0.8,26h24.3c0.4,0,0.8-0.4,0.8-0.8V13.8
		C25.9,13.4,25.6,13,25.1,13"/>
	<path id="Fill-1" d="M17.6,4.3l-4.1-4.1c-0.3-0.3-0.8-0.3-1.1,0L8.3,4.3C8,4.7,8,5.2,8.3,5.5c0.3,0.3,0.8,0.3,1.1,0l2.7-2.7v7.8
		c0,0.4,0.4,0.8,0.8,0.8c0.4,0,0.8-0.4,0.8-0.8V2.8l2.7,2.7c0.2,0.2,0.4,0.2,0.6,0.2c0.2,0,0.4-0.1,0.6-0.2
		C17.9,5.2,17.9,4.7,17.6,4.3"/>
</g>
</svg>
