<?xml version="1.0" encoding="utf-8"?>
<!-- Generator: Adobe Illustrator 22.1.0, SVG Export Plug-In . SVG Version: 6.00 Build 0)  -->
<svg version="1.1" id="图层_1" xmlns="http://www.w3.org/2000/svg" xmlns:xlink="http://www.w3.org/1999/xlink" x="0px" y="0px"
	 viewBox="0 0 26 21" style="enable-background:new 0 0 26 21;" xml:space="preserve">
<title>蒙版</title>
<desc>Created with Sketch.</desc>
<path id="path-1_1_" d="M2.4,6.2h21.2V12h-4.7c-0.3,0-0.5,0.2-0.6,0.5l-0.5,2.7H8.2l-0.5-2.7C7.6,12.2,7.4,12,7.1,12H2.4V6.2z
	 M25.3,12h-0.5V5.6c0-0.3-0.3-0.6-0.6-0.6h-0.5V3.2c0-0.3-0.3-0.6-0.6-0.6h-0.7V0.8c0-0.3-0.3-0.6-0.6-0.6H4.2
	c-0.3,0-0.6,0.3-0.6,0.6v1.8H2.9c-0.3,0-0.6,0.3-0.6,0.6V5H1.8C1.4,5,1.2,5.3,1.2,5.6V12H0.7C0.3,12,0,12.3,0,12.6v7.6
	c0,0.3,0.3,0.6,0.6,0.6h24.7c0.3,0,0.6-0.3,0.6-0.6v-7.6C26,12.3,25.7,12,25.3,12L25.3,12z"/>
</svg>
