<?xml version="1.0" encoding="utf-8"?>
<!-- Generator: Adobe Illustrator 22.1.0, SVG Export Plug-In . SVG Version: 6.00 Build 0)  -->
<svg version="1.1" id="图层_1" xmlns="http://www.w3.org/2000/svg" xmlns:xlink="http://www.w3.org/1999/xlink" x="0px" y="0px"
	 viewBox="0 0 17 26" style="enable-background:new 0 0 17 26;" xml:space="preserve">
<title>icon/iot/门禁</title>
<desc>Created with Sketch.</desc>
<g id="蒙版" transform="translate(0.000000, 0.000000)">
	<path id="Fill-1" d="M0,11.5v9.7c0,0.3,0.3,0.6,0.6,0.6s0.6-0.3,0.6-0.6V9.6l0-8.4h13.9v0.4L8.8,6.3V26l6.4-4.6
		c0.1,0.2,0.3,0.4,0.6,0.4c0.3,0,0.6-0.3,0.6-0.6V0.6c0-0.3-0.3-0.6-0.6-0.6H0.6C0.3,0,0,0.3,0,0.6V11.5z M11.2,16.6
		c-0.3,0-0.5-0.4-0.6-0.8H9.9v-0.5h0.7c0.1-0.4,0.3-0.8,0.6-0.8c0.3,0,0.6,0.5,0.6,1.1C11.8,16.1,11.5,16.6,11.2,16.6L11.2,16.6z"/>
</g>
</svg>
