<?xml version="1.0" encoding="UTF-8"?>
<svg width="32px" height="27px" viewBox="0 0 32 27" version="1.1" xmlns="http://www.w3.org/2000/svg" xmlns:xlink="http://www.w3.org/1999/xlink">
    <!-- Generator: Sketch 55.2 (78181) - https://sketchapp.com -->
    <title>蒙版</title>
    <desc>Created with Sketch.</desc>
    <g id="Symbols" stroke="none" stroke-width="1" fill="none" fill-rule="evenodd">
        <g id="icon/iot/降雨量" fill="#000000">
            <g id="矩形">
                <g id="蒙版">
                    <path d="M20,22.9998 C19.447,22.9998 19,23.4428 19,24.0098 L19,25.9898 C19,26.5478 19.443,26.9998 20,26.9998 C20.553,26.9998 21,26.5578 21,25.9898 L21,24.0098 C21,23.4518 20.557,22.9998 20,22.9998" id="Fill-1"></path>
                    <path d="M12,22.9998 C11.447,22.9998 11,23.4428 11,24.0098 L11,25.9898 C11,26.5478 11.444,26.9998 12,26.9998 C12.553,26.9998 13,26.5578 13,25.9898 L13,24.0098 C13,23.4518 12.556,22.9998 12,22.9998" id="Fill-3"></path>
                    <path d="M24,20.9998 C23.447,20.9998 23,21.4428 23,22.0098 L23,23.9898 C23,24.5478 23.443,24.9998 24,24.9998 C24.553,24.9998 25,24.5578 25,23.9898 L25,22.0098 C25,21.4518 24.557,20.9998 24,20.9998" id="Fill-5"></path>
                    <path d="M16,20.9998 C15.447,20.9998 15,21.4428 15,22.0098 L15,23.9898 C15,24.5478 15.444,24.9998 16,24.9998 C16.553,24.9998 17,24.5578 17,23.9898 L17,22.0098 C17,21.4518 16.557,20.9998 16,20.9998" id="Fill-7"></path>
                    <path d="M8,20.9998 C7.447,20.9998 7,21.4428 7,22.0098 L7,23.9898 C7,24.5478 7.444,24.9998 8,24.9998 C8.553,24.9998 9,24.5578 9,23.9898 L9,22.0098 C9,21.4518 8.556,20.9998 8,20.9998" id="Fill-9"></path>
                    <g id="编组">
                        <path d="M26.0029,17.9998 L5.9969,17.9998 C3.7939,17.9998 1.9999,16.2088 1.9999,13.9998 C1.9999,12.1078 3.3169,10.5178 5.0869,10.1038 C5.0289,9.7448 4.9999,9.3758 4.9999,8.9998 C4.9999,5.1338 8.1339,1.9998 11.9999,1.9998 C15.1619,1.9998 17.8339,4.0968 18.7019,6.9748 C19.4709,6.3638 20.4409,5.9998 21.4999,5.9998 C23.8159,5.9998 25.7249,7.7498 25.9729,9.9998 L26.0029,9.9998 C28.2059,9.9998 29.9999,11.7908 29.9999,13.9998 C29.9999,16.2048 28.2109,17.9998 26.0029,17.9998 M27.5859,8.2118 C26.6599,5.7508 24.2839,3.9998 21.4999,3.9998 C20.8589,3.9998 20.2399,4.0928 19.6539,4.2658 C18.0679,1.7048 15.2329,-0.0002 11.9999,-0.0002 C7.0959,-0.0002 3.1059,3.9238 3.0019,8.8028 C1.2069,9.8418 -0.0001,11.7828 -0.0001,13.9998 C-0.0001,17.3128 2.6869,19.9998 5.9999,19.9998 L25.9999,19.9998 C29.3119,19.9998 31.9999,17.3078 31.9999,13.9998 C31.9999,11.2348 30.1299,8.9068 27.5859,8.2118" id="Fill-11"></path>
                    </g>
                </g>
            </g>
        </g>
    </g>
</svg>