<?xml version="1.0" encoding="UTF-8"?>
<svg width="23px" height="32px" viewBox="0 0 23 32" version="1.1" xmlns="http://www.w3.org/2000/svg" xmlns:xlink="http://www.w3.org/1999/xlink">
    <!-- Generator: Sketch 55.2 (78181) - https://sketchapp.com -->
    <title>蒙版</title>
    <desc>Created with Sketch.</desc>
    <g id="Symbols" stroke="none" stroke-width="1" fill="none" fill-rule="evenodd">
        <g id="icon/iot/风力" fill="#000000">
            <g id="矩形">
                <g id="蒙版">
                    <path d="M11.2913,11 C12.3953,11 13.2913,11.896 13.2913,13 C13.2913,14.104 12.3953,15 11.2913,15 C10.1873,15 9.2913,14.104 9.2913,13 C9.2913,11.896 10.1873,11 11.2913,11" id="Fill-1"></path>
                    <path d="M13.1711,10.6611 C12.8761,7.5321 12.0831,0.0001 11.2911,0.0001 C10.4991,0.0001 9.7061,7.5321 9.4111,10.6611 C9.9261,10.2481 10.5791,10.0001 11.2911,10.0001 C12.0031,10.0001 12.6561,10.2481 13.1711,10.6611" id="Fill-3"></path>
                    <path d="M14.259,12.5601 C14.28,12.7031 14.291,12.8511 14.291,13.0001 C14.291,14.6571 12.948,16.0001 11.291,16.0001 C9.634,16.0001 8.291,14.6571 8.291,13.0001 C8.291,12.8511 8.302,12.7031 8.324,12.5591 C5.768,14.3741 -0.378,18.8381 0.018,19.5251 C0.413,20.2121 7.322,17.1381 10.184,15.8261 L9.291,31.0001 C9.291,31.0001 9.791,32.0001 11.291,32.0001 C12.791,32.0001 13.291,31.0001 13.291,31.0001 L12.399,15.8271 C15.261,17.1391 22.169,20.2131 22.565,19.5271 C22.961,18.8391 16.815,14.3741 14.259,12.5601" id="Fill-5"></path>
                </g>
            </g>
        </g>
    </g>
</svg>