<?xml version="1.0" encoding="UTF-8"?>
<svg width="25px" height="19px" viewBox="0 0 25 19" version="1.1" xmlns="http://www.w3.org/2000/svg" xmlns:xlink="http://www.w3.org/1999/xlink">
    <!-- Generator: Sketch 55.2 (78181) - https://sketchapp.com -->
    <title>Fill 1</title>
    <desc>Created with Sketch.</desc>
    <g id="Symbols" stroke="none" stroke-width="1" fill="none" fill-rule="evenodd">
        <g id="icon/iot/风向" fill="#000000">
            <g id="矩形">
                <g id="蒙版">
                    <path d="M22.0497,15.0645 C21.4657,16.3155 20.7897,17.2355 20.5397,17.1185 L16.9617,16.2475 C17.6077,15.7435 18.3177,14.7845 18.8767,13.5855 C19.4367,12.3875 19.7137,11.2235 19.6867,10.4055 L22.6537,12.5865 C22.9037,12.7045 22.6327,13.8115 22.0497,15.0645 M14.3447,11.4725 C13.4117,13.4745 12.2487,14.9115 11.7477,14.6755 L7.1467,13.5535 C7.9577,12.7365 8.9507,11.2095 9.8137,9.3585 C10.6757,7.5085 11.2077,5.7665 11.3127,4.6205 L15.1287,7.4245 C15.6297,7.6585 15.2787,9.4715 14.3447,11.4725 M24.6767,12.9805 L6.4287,0.0575 L5.8597,1.2765 C6.0947,1.1445 6.2997,1.1005 6.4587,1.1735 C7.2097,1.5225 6.6837,4.2425 5.2827,7.2455 C3.8817,10.2485 2.1377,12.4005 1.3867,12.0485 C1.2267,11.9745 1.1367,11.7755 1.0887,11.5055 C0.9107,10.5115 1.4587,8.3425 2.5627,5.9785 C3.6667,3.6105 4.9817,1.7785 5.8587,1.2775 L6.4277,0.0575 C5.4277,-0.4115 3.2907,2.0515 1.6567,5.5555 C0.0227,9.0595 -0.4893,12.2775 0.5117,12.7445 L22.1387,18.4165 C22.6407,18.6495 23.6147,17.6215 24.3157,16.1195 C25.0167,14.6205 25.1767,13.2125 24.6767,12.9805" id="Fill-1"></path>
                </g>
            </g>
        </g>
    </g>
</svg>