<?xml version="1.0" standalone="no"?>
<!DOCTYPE svg PUBLIC "-//W3C//DTD SVG 1.1//EN" "http://www.w3.org/Graphics/SVG/1.1/DTD/svg11.dtd" >
<!--
2013-9-30: Created.
-->
<svg>
<metadata>
Created by iconfont
</metadata>
<defs>

<font id="iconfont" horiz-adv-x="1024" >
  <font-face
    font-family="iconfont"
    font-weight="500"
    font-stretch="normal"
    units-per-em="1024"
    ascent="896"
    descent="-128"
  />
    <missing-glyph />
    
    <glyph glyph-name="yijianshangbao1" unicode="&#59030;" d="M722.304 409.728c-118.656 0-214.848-103.232-214.848-230.656 0-127.36 96.192-230.656 214.848-230.656 118.72 0 214.912 103.296 214.912 230.656s-96.192 230.656-214.912 230.656z m136.448-248.704c-3.968-11.072-12.864-16-26.624-14.464h-54.592v-87.68c0-19.84-9.28-29.824-27.648-29.824h-54.016a27.52 27.52 0 0 0-18.752 9.536 31.808 31.808 0 0 0-8.96 20.224V146.56h-58.88a23.808 23.808 0 0 0-22.656 14.464 28.416 28.416 0 0 0-2.816 14.912 24.512 24.512 0 0 0 7.168 14.144l113.6 127.36a39.424 39.424 0 0 0 7.808 6.528 25.536 25.536 0 0 0 10.624 3.456c4.288 2.112 7.808 2.304 10.624 0.768a31.488 31.488 0 0 0 7.808-6.08l113.6-132.032c6.464-8.192 7.68-17.92 3.712-29.056z m-388.736 21.44C469.952 330.24 582.4 451.072 720.064 451.072c82.432 0 155.52-42.816 201.024-108.8 5.568-8.256 17.6-3.904 17.6 6.144v286.72a39.04 39.04 0 0 1-12.16 28.544L733.44 844.16a33.536 33.536 0 0 1-23.04 9.152H145.6C135.936 853.312 128 844.864 128 834.432v-900.864c0-10.432 7.936-18.88 17.6-18.88l472.384 1.024c10.688 0 13.632 15.616 3.84 20.16-89.152 40.832-151.68 135.872-151.808 246.592z"  horiz-adv-x="1024" />

    
    <glyph glyph-name="yonghumingbeifen" unicode="&#58920;" d="M512 774.107429a146.285714 146.285714 0 1 1 0-292.571429 146.285714 146.285714 0 0 1 0 292.571429z m0 97.499428A243.821714 243.821714 0 1 0 511.963429 384 243.821714 243.821714 0 0 0 512 871.606857z m195.035429-585.142857A243.821714 243.821714 0 0 0 950.857143 42.678857V-54.857143a48.749714 48.749714 0 0 0-97.536 0v97.536a146.285714 146.285714 0 0 1-146.285714 146.285714H316.964571a146.285714 146.285714 0 0 1-146.285714-146.285714V-54.857143A48.749714 48.749714 0 0 0 73.142857-54.857143v97.536a243.821714 243.821714 0 0 0 243.821714 243.785143h390.070858z"  horiz-adv-x="1024" />

    
    <glyph glyph-name="mima" unicode="&#58921;" d="M850.212571 584.704h-14.043428c-5.851429 76.068571-38.619429 146.870857-93.622857 201.874286C681.106286 847.433143 600.356571 881.371429 514.925714 881.371429 345.819429 881.371429 207.140571 750.299429 194.267429 585.289143h-14.043429a164.315429 164.315429 0 0 1-163.84-163.84V47.542857a164.315429 164.315429 0 0 1 163.84-163.84h669.988571a164.315429 164.315429 0 0 1 163.84 163.84V420.864c0 90.697143-73.728 163.84-163.84 163.84zM514.925714 787.748571c60.854857 0 117.613714-23.990857 160.914286-67.291428 37.449143-37.449143 60.269714-84.845714 65.536-135.753143h-453.485714c12.873143 114.102857 110.006857 203.044571 227.035428 203.044571zM920.429714 47.542857c0-38.619429-31.597714-70.217143-70.217143-70.217143H180.224a70.436571 70.436571 0 0 0-70.217143 70.217143V420.864c0 38.619429 31.597714 70.217143 70.217143 70.217143h670.573714c38.619429 0 70.217143-31.597714 70.217143-70.217143V47.542857h-0.585143zM514.925714 388.681143c-25.746286 0-46.811429-21.065143-46.811428-46.811429v-181.394285c0-25.746286 21.065143-46.811429 46.811428-46.811429 25.746286 0 46.811429 21.065143 46.811429 46.811429v181.394285c0 25.746286-21.065143 46.811429-46.811429 46.811429z"  horiz-adv-x="1024" />

    
    <glyph glyph-name="tiaozhuan" unicode="&#59029;" d="M802.56 704c30.805333 0 54.912-25.984 57.6-57.941333l0.298667-6.058667v-512c0-32.64-22.272-60.544-52.224-63.701333l-5.674667-0.298667H363.690667c-30.848 0-54.912 25.984-57.642667 57.941333L305.792 128v128a21.333333 21.333333 0 0 0 42.325333 3.84l0.341334-3.84v-128c0-11.093333 5.973333-19.328 12.714666-20.992l2.517334-0.341333H802.56c6.741333 0 13.525333 7.04 14.933333 17.322666l0.298667 4.010667V640c0 11.093333-6.016 19.328-12.714667 20.992l-2.56 0.341333H363.733333c-6.784 0-13.568-7.04-14.976-17.322666L348.458667 640v-128a21.333333 21.333333 0 0 0-42.325334-3.84L305.792 512V640c0 32.64 22.229333 60.544 52.181333 63.701333L363.690667 704H802.56zM610.56 376.87466700000004a21.333333 21.333333 0 0 1-17.493333 20.992l-3.84 0.341333h-384a21.333333 21.333333 0 0 1-3.84-42.325333l3.84-0.341334h384a21.333333 21.333333 0 0 1 21.333333 21.333334zM464 524.458667a21.333333 21.333333 0 0 0 27.008 4.266666l3.114667-2.261333 164.608-144.042667-164.608-144.042666a21.333333 21.333333 0 0 0-30.762667 29.312l2.645333 2.773333L593.92 382.421333 466.005333 494.378667a21.333333 21.333333 0 0 0-4.266666 26.965333l2.261333 3.114667z"  horiz-adv-x="1024" />

    
    <glyph glyph-name="jucunwei" unicode="&#58919;" d="M1101.745965 527.68961H1148.104409L1016.010771 881.801097l-132.093639-354.111487h46.544623l-46.544623-124.522379h46.544623l-46.544623-124.708559h105.99762v-301.547093H27.6202V-128h1094.357161v104.880549h-79.901602V278.489702H1148.104409l-46.358444 124.677529H1148.104409l-46.358444 124.522379zM83.970222 9.461785h702.730709V428.859862h61.159634c20.262426 0 30.595332 24.513501 16.383707 39.221602L454.496446 887.913958a26.561465 26.561465 0 0 1-38.16659 0L6.58203 468.081464c-14.211625-14.521922-3.878719-39.221602 16.383707-39.221602H84.094341V9.461785h-0.186178z m372.667277 419.398077h141.061236v-141.961098h-141.061236v141.961098z m0-185.682013h141.061236v-141.961099h-141.061236v141.961099z m-233.188558 185.682013h141.061235v-141.961098H223.417911v141.961098z m0-185.682013h141.061235v-141.961099H223.417911v141.961099z"  horiz-adv-x="1148" />

    
    <glyph glyph-name="xiazai" unicode="&#59171;" d="M489.6 105.6c3.2-3.2 6.4-6.4 9.6-6.4 3.2 0 6.4-3.2 12.8-3.2 3.2 0 9.6 0 12.8 3.2 3.2 3.2 6.4 3.2 9.6 6.4l272 272c12.8 12.8 12.8 32 0 44.8-12.8 12.8-32 12.8-44.8 0L544 204.8V800c0 19.2-12.8 32-32 32s-32-12.8-32-32v-595.2l-217.6 217.6c-12.8 12.8-32 12.8-44.8 0-12.8-12.8-12.8-32 0-44.8l272-272zM960 320c-19.2 0-32-12.8-32-32v-256c0-19.2-12.8-32-32-32H128c-19.2 0-32 12.8-32 32v256c0 19.2-12.8 32-32 32s-32-12.8-32-32v-256c0-54.4 41.6-96 96-96h768c54.4 0 96 41.6 96 96v256c0 19.2-12.8 32-32 32z"  horiz-adv-x="1024" />

    
    <glyph glyph-name="fasong" unicode="&#58934;" d="M392.021333-29.013333a34.133333 34.133333 0 0 0-34.133333 34.133333V316.757333c0 10.24 4.608 19.968 12.629333 26.453334l276.48 224.085333a34.0992 34.0992 0 0 0 43.008-52.906667L426.154667 300.544v-192.853333l82.944 110.592c10.069333 13.482667 28.672 17.578667 43.52 9.557333l137.557333-73.728L853.333333 739.84c3.242667 11.434667-3.413333 18.602667-6.485333 21.162667-3.072 2.56-11.093333 7.850667-21.845333 2.901333L206.336 473.6l80.213333-46.08c16.384-9.386667 22.016-30.208 12.629334-46.592s-30.208-22.016-46.592-12.629333l-137.045334 78.677333a33.979733 33.979733 0 0 0-17.066666 31.061333c0.512 12.8 8.021333 24.064 19.626666 29.525334L795.989333 825.685333c31.744 14.848 68.096 10.069333 94.890667-12.629333a87.790933 87.790933 0 0 0 28.16-91.477333L744.277333 94.72a34.082133 34.082133 0 0 0-48.981333-20.821333L546.133333 153.941333l-126.805333-169.301333c-6.656-8.704-16.896-13.653333-27.306667-13.653333z"  horiz-adv-x="1024" />

    
    <glyph glyph-name="paizhao" unicode="&#59027;" d="M813.812907 67.173145l-31.770588 0 0 0L241.960751 67.173145l-0.004093 0-31.766494 0c-35.092239 0-63.541175 28.369118-63.541175 63.365166L146.648988 558.256766c0 34.996049 28.448936 63.365166 63.541175 63.365166l31.766494 0 0.004093 0 0 0 103.249549 0 39.709397 63.365166c0 8.749268 22.99983 15.84078 31.774681 15.84078l190.614315 0c8.769734 0 31.770588-7.091512 31.770588-15.84078l39.712467-63.365166 103.250572 0 31.770588 0c35.092239 0 63.537082-28.369118 63.537082-63.365166l0-427.718455C877.349989 95.542262 848.905146 67.173145 813.812907 67.173145L813.812907 67.173145zM512.001023 558.256766c-114.046453 0-206.504214-92.201935-206.504214-205.940372 0-113.739461 92.457762-205.936279 206.504214-205.936279 114.043383 0 206.496028 92.196819 206.500121 205.928093l0 0.016373C718.497051 466.058924 626.044406 558.256766 512.001023 558.256766L512.001023 558.256766zM512.001023 209.745281c-78.958306 0-142.963039 63.828724-142.963039 142.571113 0 78.738295 64.004733 142.571113 142.963039 142.571113 78.955236 0 142.963039-63.832817 142.963039-142.571113C654.964062 273.574005 590.95626 209.745281 512.001023 209.745281L512.001023 209.745281zM512.001023 209.745281"  horiz-adv-x="1024" />

    
    <glyph glyph-name="zhongzhi" unicode="&#59028;" d="M567.342545 794.112c-67.537455 0-134.516364-16.802909-193.768727-48.546909a34.955636 34.955636 0 0 1 33.047273-61.579636 341.178182 341.178182 0 0 0 160.768 40.261818c187.624727 0 340.293818-152.622545 340.293818-340.293818s-152.622545-340.293818-340.293818-340.293819c-163.095273 0-299.613091 115.386182-332.567273 268.706909l46.545455-46.545454a34.816 34.816 0 0 1 49.338182 0 34.909091 34.909091 0 0 1 0 49.384727l-112.314182 112.314182a35.979636 35.979636 0 0 1-49.384728 0L56.785455 315.252364a34.909091 34.909091 0 1 1 49.384727-49.384728l56.273454 56.32c29.975273-196.840727 199.866182-348.299636 404.945455-348.299636 226.117818 0 410.065455 183.994182 410.065454 410.112 0 226.117818-183.947636 410.112-410.112 410.112z"  horiz-adv-x="1024" />

    
    <glyph glyph-name="AI" unicode="&#58888;" d="M0-128L477.797725 896h121.662162l481.842991-1024h-268.995039l-62.808091 133.828378H330.404016l-61.469807-133.828378z m435.520124 360.484985h208.863516l-103.747409 225.227077zM1217.077851 896h268.995039v-1024h-268.995039z"  horiz-adv-x="1486" />

    
    <glyph glyph-name="icon_jianduanjian" unicode="&#58885;" d="M450.779429 275.968c0-7.314286 0-14.628571 7.314285-21.942857 0-7.314286 7.314286-14.628571 14.628572-21.942857 7.314286-7.314286 14.628571-7.314286 21.942857-14.628572 7.314286 0 14.628571-7.314286 21.942857-7.314285 7.314286 0 14.628571 0 21.942857 7.314285 7.314286 0 14.628571 7.314286 21.942857 14.628572 7.314286 7.314286 7.314286 14.628571 14.628572 21.942857 0 7.314286 7.314286 14.628571 7.314285 21.942857 0 7.314286 0 14.628571-7.314285 21.942857 0 7.314286-7.314286 14.628571-14.628572 21.942857-14.628571 7.314286-21.942857 7.314286-29.257143 14.628572-7.314286 0-14.628571 7.314286-21.942857 7.314285-7.314286 0-14.628571 0-21.942857-7.314285-7.314286 0-14.628571-7.314286-21.942857-14.628572-7.314286-7.314286-7.314286-14.628571-14.628571-21.942857v-21.942857z m270.628571 14.628571s0 7.314286-51.2 58.514286c-73.142857 65.828571-146.285714 80.457143-190.171429 73.142857-51.2-7.314286-87.771429-36.571429-95.085714-36.571428-21.942857-14.628571-87.771429-87.771429-95.085714-95.085715-7.314286-21.942857 0-43.885714 0-43.885714s117.028571-117.028571 212.114286-117.028571c95.085714 0 146.285714 43.885714 168.228571 58.514285 14.628571 14.628571 43.885714 43.885714 51.2 65.828572 14.628571 21.942857 0 36.571429 0 36.571428z m-212.114286-117.028571c-58.514286 0-102.4 43.885714-102.4 102.4s43.885714 102.4 102.4 102.4 102.4-43.885714 102.4-102.4c0-58.514286-43.885714-102.4-102.4-102.4zM950.857143-128H73.142857c-43.885714 0-73.142857 29.257143-73.142857 73.142857V676.571429h950.857143c43.885714 0 73.142857-29.257143 73.142857-73.142858v-658.285714c0-43.885714-29.257143-73.142857-73.142857-73.142857zM73.142857 603.428571v-658.285714h877.714286V603.428571H73.142857zM0 822.857143h402.285714c21.942857 0 43.885714-14.628571 58.514286-29.257143L585.142857 603.428571H0V822.857143z"  horiz-adv-x="1024" />

    
    <glyph glyph-name="icon_shipinfaxiananjian" unicode="&#58886;" d="M599.625143 318.244571c0-7.314286 0-7.314286 0 0-7.314286-14.628571-14.628571-14.628571-14.628572-21.942857 0-7.314286-7.314286-7.314286-7.314285-14.628571s-7.314286-7.314286-7.314286-14.628572 0-7.314286 7.314286-14.628571c0 0 7.314286-7.314286 7.314285-14.628571s7.314286-7.314286 7.314286-7.314286l7.314286-7.314286v-36.571428c0-7.314286 0-7.314286-7.314286-14.628572 0-7.314286-7.314286-7.314286-14.628571-14.628571 0-7.314286-7.314286-7.314286-14.628572-14.628572-7.314286 0-14.628571-7.314286-14.628571-7.314285h-219.428572c-7.314286 0-14.628571 7.314286-14.628571 7.314285 0 14.628571-7.314286 21.942857-7.314286 29.257143 0 7.314286-7.314286 14.628571-7.314285 21.942857v153.6 14.628572c0 7.314286 7.314286 7.314286 7.314285 14.628571l14.628572 14.628572c7.314286 0 14.628571 7.314286 21.942857 7.314285h219.428571c7.314286 0 14.628571-7.314286 14.628572-7.314285 7.314286-14.628571 14.628571-21.942857 14.628571-29.257143s7.314286-14.628571 7.314286-14.628572v-29.257143z m124.342857 29.257143v-168.228571c0-7.314286 0-7.314286-7.314286-14.628572 0-7.314286-7.314286-7.314286-14.628571-7.314285h-7.314286s-7.314286 0-7.314286 7.314285l-7.314285 7.314286s-7.314286 0-7.314286 7.314286l-14.628571 14.628571c-14.628571 7.314286-21.942857 14.628571-29.257143 21.942857 0 7.314286-7.314286 14.628571-14.628572 21.942858-7.314286 14.628571-7.314286 21.942857-7.314285 29.257142 0 7.314286 0 14.628571 7.314285 21.942858 7.314286 7.314286 14.628571 21.942857 21.942857 29.257142l21.942858 21.942858c7.314286 7.314286 14.628571 14.628571 21.942857 14.628571 0 0 7.314286 0 7.314285 7.314286s7.314286 0 7.314286 0c7.314286 0 14.628571 0 14.628572-7.314286s14.628571 0 14.628571-7.314286zM950.857143-128H73.142857c-43.885714 0-73.142857 29.257143-73.142857 73.142857V676.571429h950.857143c43.885714 0 73.142857-29.257143 73.142857-73.142858v-658.285714c0-43.885714-29.257143-73.142857-73.142857-73.142857zM73.142857 603.428571v-658.285714h877.714286V603.428571H73.142857zM0 822.857143h402.285714c21.942857 0 43.885714-14.628571 58.514286-29.257143L585.142857 603.428571H0V822.857143z"  horiz-adv-x="1024" />

    
    <glyph glyph-name="icon_iotanjian" unicode="&#58887;" d="M950.857143-128H73.142857c-43.885714 0-73.142857 29.257143-73.142857 73.142857V676.571429h950.857143c43.885714 0 73.142857-29.257143 73.142857-73.142858v-658.285714c0-43.885714-29.257143-73.142857-73.142857-73.142857zM73.142857 603.428571v-658.285714h877.714286V603.428571H73.142857zM0 822.857143h402.285714c21.942857 0 43.885714-14.628571 58.514286-29.257143L585.142857 603.428571H0V822.857143zM314.514286 164.571429V376.685714h-43.885715V164.571429h43.885715z m248.685714 0V376.685714H387.657143V164.571429h175.542857z m-43.885714 43.885714H431.542857V340.114286h87.771429v-131.657143z m197.485714-43.885714V340.114286h65.828571v36.571428H607.085714v-43.885714h65.828572V164.571429h43.885714z"  horiz-adv-x="1024" />

    
    <glyph glyph-name="close" unicode="&#59062;" d="M633.423257 383.77478900000006L998.360663 748.706198A86.022145 86.022145 0 1 1 876.712195 870.360663L511.774789 505.413261 146.835384 870.360663A86.018147 86.018147 0 0 1 25.188915 748.7121950000001L390.128321 383.77478900000006 25.188915 18.841380999999956A86.020146 86.020146 0 0 1 146.835384-102.81108500000005L511.774789 262.134318 876.712195-102.81108500000005a86.020146 86.020146 0 0 1 121.648468 121.652466z"  horiz-adv-x="1024" />

    
    <glyph glyph-name="mapPin" unicode="&#58904;" d="M512 847.811765C325.270588 847.811765 174.682353 697.223529 174.682353 510.494118 174.682353 257.505882 512-115.952941 512-115.952941s337.317647 373.458824 337.317647 626.447059C849.317647 697.223529 698.729412 847.811765 512 847.811765z m0-457.788236c-66.258824 0-120.470588 54.211765-120.470588 120.470589s54.211765 120.470588 120.470588 120.470588 120.470588-54.211765 120.470588-120.470588c0-30.117647-12.047059-60.235294-36.141176-84.329412-24.094118-24.094118-54.211765-36.141176-84.329412-36.141177z"  horiz-adv-x="1024" />

    
    <glyph glyph-name="dianhua" unicode="&#58906;" d="M28.444444 867.555556h967.111112v-967.111112H28.444444zM443.733333 571.733333c-11.377778 102.4-113.777778 147.911111-119.466666 153.6h-11.377778C187.733333 702.577778 170.666667 634.311111 170.666667 634.311111v-11.377778c142.222222-443.733333 443.733333-529.066667 540.444444-557.511111 5.688889 0 11.377778-5.688889 17.066667-5.688889H745.244444c5.688889 0 73.955556 34.133333 91.022223 142.222223V213.333333c0 5.688889-39.822222 73.955556-142.222223 96.711111-5.688889 0-17.066667 0-22.755555-5.688888-34.133333-28.444444-79.644444-56.888889-96.711111-62.577778-130.844444 62.577778-204.8 187.733333-204.8 210.488889 0 11.377778 28.444444 56.888889 62.577778 96.711111 5.688889 11.377778 11.377778 17.066667 11.377777 22.755555"  horiz-adv-x="1024" />

    
    <glyph glyph-name="zongjiaoleibie" unicode="&#58907;" d="M1353.642667 79.872a499.2 499.2 0 0 1-61.44 52.309333 632.064 632.064 0 0 0-473.173334-218.026666c58.026667-23.381333 120.490667-35.669333 185.002667-35.669334a491.178667 491.178667 0 0 1 349.610667 144.810667 40.021333 40.021333 0 0 1 0 56.576zM73.216 132.181333a499.712 499.712 0 0 1-61.44-52.309333 40.106667 40.106667 0 0 1 0-56.576 491.178667 491.178667 0 0 1 349.525333-144.810667c64.512 0 127.061333 12.202667 185.088 35.669334A632.064 632.064 0 0 0 73.216 132.181333zM274.773333 68.010667c66.389333-38.4 143.701333-64.170667 226.133334-71.68a669.866667 669.866667 0 0 0-335.786667 473.6c-39.765333-1.706667-79.36-7.68-117.930667-17.92a40.106667 40.106667 0 0 1-29.269333-49.322667 551.253333 551.253333 0 0 1 256.853333-334.677333zM864.426667-3.669333a551.253333 551.253333 0 0 1 482.986666 406.272 39.936 39.936 0 0 1-29.269333 49.322666 551.253333 551.253333 0 0 1-117.930667 17.92 669.610667 669.610667 0 0 0-335.786666-473.514666zM499.456 90.794667a686.250667 686.250667 0 0 0-103.253333 362.410666 682.666667 682.666667 0 0 0 47.957333 252.074667 589.312 589.312 0 0 1-139.434667 57.429333 40.021333 40.021333 0 0 1-48.981333-28.330666 588.970667 588.970667 0 0 1 243.712-643.584zM865.792 90.794667a588.970667 588.970667 0 0 1 243.712 643.669333 40.021333 40.021333 0 0 1-48.896 28.16 589.226667 589.226667 0 0 1-139.434667-57.344 682.666667 682.666667 0 0 0 47.786667-252.074667 686.165333 686.165333 0 0 0-103.168-362.410666zM710.912 883.2a40.106667 40.106667 0 0 1-56.576 0 608 608 0 0 1 0-859.904 40.106667 40.106667 0 0 1 56.576 0 608 608 0 0 1 0 859.904z"  horiz-adv-x="1365" />

    
    <glyph glyph-name="shipin" unicode="&#58908;" d="M28.444444 867.555556h967.111112v-967.111112H28.444444zM221.866667 725.333333h580.266666v-682.666666H221.866667z"  horiz-adv-x="1024" />

    
    <glyph glyph-name="guapaiwangdian" unicode="&#58909;" d="M162.377143 791.003429h715.739428c26.843429 0 44.726857 16.859429 44.726858 42.166857S900.498286 875.337143 878.116571 875.337143H162.413714c-26.88 0-44.763429-21.101714-44.763428-42.166857 0-25.307429 17.92-42.166857 44.726857-42.166857z m491.410286-780.288a248.832 248.832 0 0 0-31.414858 285.001142c-44.982857 8.411429-84.224 39.68-102.107428 86.235429-21.101714-50.614857-71.68-88.576-126.537143-88.576-54.820571 0-105.435429 33.718857-126.537143 88.539429-21.065143-50.578286-71.68-88.539429-126.537143-88.539429-12.617143 0-25.270857 0-37.961143 4.205714v-286.756571c0-25.307429 29.513143-59.026286 54.820572-59.026286h551.387428l-51.017142 53.211429a25.965714 25.965714 0 0 0-4.096 5.705143zM267.190857 512.658286c0-46.372571 25.307429-88.576 63.268572-109.641143 37.924571-21.101714 88.539429-21.101714 126.537142 0 37.924571 21.065143 63.232 63.268571 63.232 109.641143 0-46.372571 21.065143-88.576 63.268572-113.846857 38.363429-25.307429 88.137143-25.307429 126.537143 0 37.924571 21.065143 58.953143 63.268571 63.232 105.435428 0-29.915429 12.726857-59.721143 33.645714-82.102857a247.698286 247.698286 0 0 0 151.990857-27.940571c2.816 1.462857 5.558857 2.998857 8.301714 4.608 37.961143 25.270857 58.989714 67.474286 58.989715 113.846857L937.764571 744.594286H102.765714L14.189714 512.658286c0-71.68 54.820571-126.537143 126.537143-126.537143 71.68 0 126.464 54.857143 126.464 126.537143z m745.654857-262.217143h0.109715a19.748571 19.748571 0 0 1-6.363429 11.556571 193.426286 193.426286 0 0 1-55.296 58.88 19.675429 19.675429 0 0 1-6.729143 4.388572 192.914286 192.914286 0 1 1-248.429714-290.340572 19.894857 19.894857 0 0 1 3.181714-4.461714s114.870857-119.771429 124.708572-130.194286a22.601143 22.601143 0 0 1 31.890285-1.938285 23.04 23.04 0 0 1 3.108572 3.364571c9.691429 11.776 123.172571 128.731429 123.172571 128.731429a20.114286 20.114286 0 0 1 2.925714 3.876571 191.890286 191.890286 0 0 1 27.721143 216.137143z m-171.812571-167.094857a78.006857 78.006857 0 0 0-0.219429 156.013714h0.109715a78.006857 78.006857 0 0 0 0.109714-156.013714z"  horiz-adv-x="1060" />

    
    <glyph glyph-name="warning" unicode="&#58910;" d="M0 896h1152v-1008H0z"  horiz-adv-x="1152" />

    
    <glyph glyph-name="zongjiaohuodongchangsuo" unicode="&#58911;" d="M132.130133 301.397333h132.096v-231.2192h-132.096zM452.266667 70.178133v89.326934c0 43.451733 34.2016 78.848 76.253866 78.848s76.253867-35.396267 76.253867-78.848v-89.326934h121.924267v231.253334H330.308267v-231.253334h121.9584zM759.739733 301.397333h132.130134v-231.2192h-132.096zM0 37.1712h1024V-128H0zM917.333333 367.479467c58.811733 0 106.666667 50.244267 106.666667 111.991466v14.097067h-60.0064v-14.097067c0-26.999467-20.923733-48.981333-46.660267-48.981333h-41.506133l-46.557867 97.962667V598.698667h-120.1152v-62.976H314.845867V598.698667H194.730667v-70.280534l-46.557867-97.962666H106.666667c-25.736533 0-46.660267 22.016-46.660267 49.015466v14.097067H0v-14.097067c0-61.7472 47.854933-111.957333 106.666667-111.957333h810.666666zM852.6848 664.7808c58.026667 0 105.2672 45.4656 105.2672 101.376v12.731733H898.730667v-12.731733c0-24.4736-20.650667-44.373333-46.045867-44.373333H809.642667L510.976 896 212.411733 721.783467H171.349333c-25.3952 0-46.08 19.899733-46.08 44.373333v12.731733H66.082133v-12.731733c0-55.9104 47.240533-101.376 105.2672-101.376H852.650667z"  horiz-adv-x="1024" />

    
    <glyph glyph-name="xiaocanyindian" unicode="&#58912;" d="M136.521143 896h750.957714v-62.573714H136.521143V896z m719.652571-638.281143c-68.827429 0-125.147429 31.268571-168.96 75.081143-50.066286-50.066286-112.64-75.081143-175.213714-75.081143-68.827429 0-125.147429 25.014857-168.96 75.081143-43.812571-43.812571-100.132571-75.081143-168.96-75.081143a259.401143 259.401143 0 0 0-100.132571 18.761143v-319.158857c-6.217143-25.014857 12.507429-56.32 37.558857-62.537143h775.972571c50.066286 0 62.537143 12.470857 62.537143 62.537143V276.48a251.099429 251.099429 0 0 0-93.842286-18.761143z m162.706286 256.548572l-37.558857 256.585142H42.678857L5.12 514.267429c-12.507429-100.132571 62.573714-193.974857 168.96-193.974858 87.625143 0 162.706286 68.827429 168.96 162.706286v18.761143c-6.253714-100.132571 68.827429-181.467429 168.96-181.467429 100.132571 0 175.213714 81.334857 168.96 175.177143v-18.724571c6.253714-87.625143 81.334857-162.742857 168.96-162.742857 106.386286 6.290286 187.721143 93.878857 168.96 200.265143z"  horiz-adv-x="1024" />

    
    <glyph glyph-name="zhankaiquanpingkuozhan" unicode="&#59312;" d="M858.112 830.336 545.664 830.336c-17.664 0-32-14.336-32-32s14.336-32 32-32l242.752 0L521.024 498.88c-12.032-12.032-12.032-31.36 0-43.392 11.968-11.968 31.36-11.968 43.328 0l269.376 269.376 0-246.592c0-17.664 14.336-32 32-32s32 14.336 32 32l0 320C897.664 819.648 878.016 830.336 858.112 830.336zM105.216-1.664l312.512 0c17.664 0 32 14.336 32 32s-14.336 32-32 32L174.912 62.336l267.456 267.456C454.4 341.76 454.4 361.152 442.368 373.12c-11.968 11.968-31.36 11.968-43.328 0l-269.376-269.376L129.664 350.336c0 17.664-14.336 32-32 32s-32-14.336-32-32l0-320C65.664 8 81.344-1.664 105.216-1.664z"  horiz-adv-x="1024" />

    
    <glyph glyph-name="qiehuan" unicode="&#59022;" d="M886.2 291.2H137.8c-22.1 0-40-17.9-40-40 0-8.4 2.6-16.2 7-22.6 1.9-4.5 4.8-8.7 8.4-12.4L289.5 40c7.8-7.8 18-11.7 28.3-11.7s20.5 3.9 28.3 11.7c15.6 15.6 15.6 40.9 0 56.6L231.3 211.2h654.8c22.1 0 40 17.9 40 40s-17.8 40-39.9 40zM137.8 476.8h748.4c22.1 0 40 17.9 40 40 0 8.4-2.6 16.2-7 22.6-1.4 3.3-3.4 6.5-5.8 9.5L769.2 725.1c-14 17.1-39.2 19.6-56.3 5.6-17.1-14-19.6-39.2-5.6-56.3l96.3-117.6H137.8c-22.1 0-40-17.9-40-40s17.9-40 40-40z"  horiz-adv-x="1024" />

    
    <glyph glyph-name="libao" unicode="&#59023;" d="M162.477981 671.386097H87.621592V858.047379c0 20.619184 16.756816 37.331262 37.43068 37.331262 20.668893 0 37.425709-16.712078 37.425709-37.331262v-186.656311zM1514.560621 671.386097H1439.704233V858.047379c0 20.619184 16.751845 37.331262 37.43068 37.331262 20.668893 0 37.425709-16.712078 37.425708-37.331262v-186.656311zM1243.712621 417.682641h233.780195V610.174757H1243.712621v-192.492116z m-279.457553 0h233.785165V610.174757h-233.780194v-192.492116z m-279.447612 0h233.780194V610.174757h-233.780194v-192.492116z m-279.452582 0h233.780194V610.174757h-233.780194v-192.492116z m-279.452583 0h233.780194V610.174757h-233.780194v-192.492116zM54.679612 349.203883h1486.291262V722.019417H54.679612v-372.815534zM1550.912621 374.058252H44.737864v-502.058252h43.346019v284.950369c0 70.834951 57.423534 128.263456 128.263457 128.263456 70.839922 0 128.273398-57.423534 128.273398-128.263456V-128h133.169709v284.950369c0 70.834951 57.433476 128.263456 128.278369 128.263456 70.834951 0 128.268427-57.423534 128.268427-128.263456V-128h133.169708v284.950369c0 70.834951 57.428505 128.263456 128.273399 128.263456 70.839922 0 128.268427-57.423534 128.268427-128.263456V-128h133.17965v284.950369c0 70.834951 57.423534 128.263456 128.268427 128.263456 70.844893 0 128.268427-57.423534 128.268428-128.263456V-128H1550.912621V374.058252zM84.504854-125.72334h258.485437v0.417554H84.504854zM477.203883-125.72334h258.485437v0.417554H477.203883zM864.932039-125.72334h258.485437v0.417554h-258.485437zM1257.631068-125.72334h258.485437v0.417554h-258.485437zM0 664.63068L86.821282 831.378641h1426.342524L1590.679612 664.63068c0-20.465087-33.319767-37.057864-74.413981-37.057864H74.413981C33.324738 627.572816 0 644.165592 0 664.63068M303.223301-128H124.271845v254.52365c0 18.66066 15.320233 33.787029 34.214524 33.78703h110.522408c18.894291 0 34.214524-15.126369 34.214524-33.78703V-128zM695.92233-128h-178.951456v254.52365c0 18.66066 15.320233 33.787029 34.219495 33.78703h110.512466c18.899262 0 34.219495-15.126369 34.219495-33.78703V-128zM1083.650485-128h-178.951456v254.52365c0 18.66066 15.320233 33.787029 34.219495 33.78703h110.512466c18.899262 0 34.219495-15.126369 34.219495-33.78703V-128zM1476.349515-128h-178.951457v254.52365c0 18.66066 15.320233 33.787029 34.219495 33.78703h110.512466c18.899262 0 34.219495-15.126369 34.219496-33.78703V-128z"  horiz-adv-x="1590" />

    
    <glyph glyph-name="shenjingyuan" unicode="&#58900;" d="M1021.952 582.813538c0 27.293538-22.173538 49.467077-49.467077 49.467077-5.671385 0-11.027692-1.181538-16.108308-2.914461l-73.846153 92.317538c4.726154 7.561846 7.561846 16.423385 7.561846 25.993846 0 27.254154-22.212923 49.427692-49.467077 49.427693-13.863385 0-26.348308-5.789538-35.328-14.966154l-129.969231 59.943385c0.157538 1.496615 0.472615 2.953846 0.472615 4.450461C675.84 873.826462 653.627077 896 626.372923 896c-21.464615 0-39.620923-13.824-46.434461-32.964923H392.546462A49.388308 49.388308 0 0 1 346.190769 896c-27.254154 0-49.467077-22.173538-49.467077-49.467077 0-2.008615 0.393846-3.977846 0.630154-5.986461L215.552 799.665231a49.230769 49.230769 0 0 1-34.264615 13.902769c-27.214769 0-49.427692-22.173538-49.427693-49.427692 0-9.570462 2.875077-18.432 7.561846-25.993846L65.575385 645.828923a48.915692 48.915692 0 0 1-16.147693 2.914462C22.252308 648.743385 0 626.609231 0 599.315692c0-21.464615 13.824-39.581538 32.964923-46.434461v-104.96A49.348923 49.348923 0 0 1 0 401.526154c0-27.293538 22.212923-49.467077 49.467077-49.467077 18.313846 0 34.107077 10.121846 42.692923 24.930461l89.954462-16.344615a49.388308 49.388308 0 0 1 48.64-41.550769c0.669538 0 1.299692 0.157538 1.96923 0.196923l31.428923-78.651077c-10.24-9.058462-16.935385-22.173538-16.935384-36.903385a49.348923 49.348923 0 1 1 89.6-28.632615l141.508923-40.448c1.260308-20.086154 14.454154-36.785231 32.689231-43.283692v-121.462154a49.388308 49.388308 0 0 1-33.004308-46.434462c0-27.254154 22.173538-49.427692 49.467077-49.427692 27.254154 0 49.427692 22.173538 49.427692 49.427692 0 21.464615-13.824 39.620923-32.964923 46.434462V91.372308c19.140923 6.813538 32.964923 24.969846 32.964923 46.395077 0 15.793231-7.561846 29.735385-19.140923 38.793846l19.692308 59.076923 147.889231-49.309539c0.393846-21.031385 14.020923-38.754462 32.886153-45.48923v-170.929231a49.388308 49.388308 0 0 1-32.964923-46.395077c0-27.254154 22.173538-49.467077 49.427693-49.467077s49.467077 22.212923 49.467077 49.467077c0 21.464615-13.824 39.581538-32.964924 46.395077v170.929231c19.140923 6.813538 32.964923 24.930462 32.964924 46.395077 0 6.025846-1.260308 11.736615-3.229539 17.053538l126.464 105.393231c7.364923-4.371692 15.911385-7.089231 25.088-7.089231 27.293538 0 49.467077 22.212923 49.467077 49.467077 0 21.464615-13.824 39.581538-32.964923 46.434461V536.418462c19.140923 6.813538 32.964923 24.930462 32.964923 46.395076z m-181.326769 181.32677a16.502154 16.502154 0 1 0 0-33.004308 16.502154 16.502154 0 0 0 0 33.004308z m-23.433846-59.746462c7.010462-3.820308 14.926769-6.183385 23.433846-6.183384 5.671385 0 11.027692 1.181538 16.147692 2.914461l73.846154-92.356923c-4.726154-7.561846-7.561846-16.384-7.561846-25.954462 0-2.638769 0.393846-5.198769 0.787692-7.758769l-116.775385-63.684923-85.031384 70.892308c1.969231 5.316923 3.229538 11.027692 3.229538 17.053538 0 6.695385-1.378462 13.075692-3.820307 18.904616l95.744 86.173538z m-207.320616-269.902769c-7.601231 0-14.729846-1.890462-21.188923-4.962462l-69.828923 69.828923 123.273846 63.921231c8.861538-8.270769 20.637538-13.390769 33.673846-13.390769 9.216 0 17.723077 2.638769 25.088 7.049846l75.067077-62.542769-133.238154-72.664615a48.994462 48.994462 0 0 1-32.846769 12.760615z m16.502154-49.467077a16.502154 16.502154 0 1 0-33.004308 0.039385 16.502154 16.502154 0 0 0 33.004308 0z m-249.225846 181.563077l27.687385-89.206154-140.406154-72.782769c-5.907692 5.474462-13.075692 9.452308-21.110154 11.579077l-22.843077 175.182769 112.955077 5.671385c7.168-17.368615 23.985231-29.696 43.716923-30.483693z m-14.532923 49.230769a16.502154 16.502154 0 1 0 33.004308-0.078769 16.502154 16.502154 0 0 0-33.004308 0.039385z m52.105846-170.456615l41.826462-134.695385-176.443077 58.801231c0 1.969231-0.315077 3.899077-0.59077 5.789538l135.207385 70.104616z m-0.118154 111.616l49.112616-49.073231-29.144616-15.123692-19.968 64.196923z m9.019077 37.651692a48.836923 48.836923 0 0 1 0.787692 40.881231l78.257231 73.058461 126.148923-94.601846a48.679385 48.679385 0 0 1-2.441846-14.651077c0-2.323692 0.393846-4.489846 0.669539-6.734769L494.395077 523.815385l-70.774154 70.813538z m235.716923 4.686769a16.502154 16.502154 0 1 0 33.004308-0.039384 16.502154 16.502154 0 0 0-33.004308 0z m143.832616-127.606154l118.114461-98.461538-255.881846 23.276308 137.767385 75.18523zM626.333538 863.035077a16.502154 16.502154 0 1 0 0-33.004308 16.502154 16.502154 0 0 0 0 33.004308z m-22.606769-60.179692c6.774154-3.544615 14.414769-5.750154 22.646154-5.750154 13.863385 0 26.348308 5.750154 35.328 14.966154L791.630769 752.128c-0.118154-1.496615-0.433231-2.953846-0.433231-4.489846 0-6.695385 1.339077-13.075692 3.780924-18.904616l-95.704616-86.173538a48.718769 48.718769 0 0 1-50.845538-2.126769l-121.304616 90.978461 76.603077 71.443693z m-23.788307 27.214769c0.393846-1.063385 0.669538-2.205538 1.142153-3.229539l-80.738461-75.342769-104.763077 78.572308h184.359385zM346.190769 863.035077a16.502154 16.502154 0 1 0 0-33.004308 16.502154 16.502154 0 0 0 0 33.004308z m-115.396923-98.894769c0 2.048-0.354462 4.017231-0.590769 5.986461L311.926154 811.008a49.270154 49.270154 0 0 1 61.597538-5.592615l102.360616-76.760616L401.723077 659.495385a48.836923 48.836923 0 0 1-22.646154 5.750153c-22.331077 0-40.999385-14.966154-47.143385-35.288615l-115.790769-5.789538-12.524307 96.098461c16.029538 8.192 27.096615 24.694154 27.096615 43.874462zM181.326769 780.603077a16.502154 16.502154 0 1 0-0.039384-32.964923 16.502154 16.502154 0 0 0 0 32.964923z m-16.147692-63.015385c1.969231-0.630154 3.820308-1.339077 5.789538-1.772307l12.209231-93.341539-88.024615-4.371692a49.112615 49.112615 0 0 1-3.820308 7.168L165.218462 717.587692zM49.506462 615.778462a16.502154 16.502154 0 1 0-0.039385-33.004308 16.502154 16.502154 0 0 0 0 33.004308z m0-230.754462a16.502154 16.502154 0 1 0 0 33.004308 16.502154 16.502154 0 0 0 0-33.004308z m138.633846 8.034462l-89.993846 16.344615a49.348923 49.348923 0 0 1-32.177231 38.518154V552.96c14.729846 5.238154 26.151385 17.211077 30.680615 32.256l90.860308 4.529231 22.961231-176.206769c-9.452308-4.292923-17.211077-11.500308-22.370462-20.440616z m42.653538-40.96a16.502154 16.502154 0 1 0 0.039385 32.964923 16.502154 16.502154 0 0 0 0-33.004308z m65.929846-164.864a16.502154 16.502154 0 1 0 0.039385 33.004307 16.502154 16.502154 0 0 0 0-33.004307z m190.621539-20.834462l-141.469539 40.448a49.388308 49.388308 0 0 1-49.152 46.316308c-0.630154 0-1.260308-0.157538-1.929846-0.196923l-31.428923 78.651077a50.806154 50.806154 0 0 1 6.262154 6.616615l199.010461-66.323692 29.380924-94.680616c-4.096-3.072-7.719385-6.695385-10.633847-10.830769z m40.172307-259.387077a16.502154 16.502154 0 1 0 0 33.004308 16.502154 16.502154 0 0 0 0-33.004308z m0 214.291692a16.502154 16.502154 0 1 0 0 33.004308 16.502154 16.502154 0 0 0 0-33.004308z m0.551385 70.301539l-20.952615 67.465846 39.108923-13.036308-18.156308-54.429538z m28.553846 85.700923l-61.518769 20.519385-50.569846 162.973538 43.677538 22.646154 77.193846-77.233231a48.64 48.64 0 0 1-4.923076-21.188923c0-15.753846 7.561846-29.735385 19.140923-38.793846l-23.000616-68.923077z m218.112-370.294154a16.502154 16.502154 0 1 0 0.039385 33.004308 16.502154 16.502154 0 0 0 0-33.004308z m0 263.758769a16.502154 16.502154 0 1 0 0.039385 32.964923 16.502154 16.502154 0 0 0 0-32.964923z m25.088 58.840616a49.073231 49.073231 0 0 1-25.088 7.08923c-15.753846 0-29.735385-7.601231-38.793846-19.180307l-148.046769 49.348923 22.961231 68.804923c19.456 0.393846 36.115692 12.051692 43.835077 28.750769l270.099692-24.576c0.393846-1.614769 0.905846-3.229538 1.496615-4.844308l-126.424615-105.39323z m34.540308 259.072l105.353846 57.501538c4.726154-4.292923 10.24-7.601231 16.344615-9.767384v-137.924924a49.624615 49.624615 0 0 1-8.62523-4.056615l-113.073231 94.247385z m138.161231-153.088a16.502154 16.502154 0 1 0 0.039384 32.964923 16.502154 16.502154 0 0 0 0-32.964923z m0 230.754461a16.502154 16.502154 0 1 0 0.039384 33.004308 16.502154 16.502154 0 0 0 0-33.004308zM32.964923 896h39.384615v-39.384615h-39.384615zM32.964923 830.070154h39.384615v-39.384616h-39.384615zM65.929846 863.035077h39.384616v-39.384615h-39.384616zM0 863.035077h39.384615v-39.384615H0zM857.127385 137.767385h39.384615v-39.384616h-39.384615zM857.127385 71.837538h39.384615v-39.384615h-39.384615zM890.092308 104.802462h39.384615v-39.384616h-39.384615zM824.162462 104.802462h39.384615v-39.384616h-39.384615zM956.022154 830.070154h39.384615v-39.384616h-39.384615zM956.022154 764.140308h39.384615v-39.384616h-39.384615zM988.987077 797.105231h39.384615v-39.384616h-39.384615zM923.057231 797.105231h39.384615v-39.384616h-39.384615zM197.789538 104.802462h39.384616v-39.384616h-39.384616zM197.789538 38.872615h39.384616v-39.384615h-39.384616zM230.754462 71.837538h39.384615v-39.384615h-39.384615zM164.824615 71.837538h39.384616v-39.384615h-39.384616zM98.894769 286.129231h39.384616v-39.384616h-39.384616zM98.894769 220.199385h39.384616v-39.384616h-39.384616zM131.859692 253.164308h39.384616v-39.384616h-39.384616zM65.929846 253.164308h39.384616v-39.384616h-39.384616z"  horiz-adv-x="1028" />

    
    <glyph glyph-name="xialijiao" unicode="&#59021;" d="M676.437333 400.327111h64.113778V688.184889C740.551111 802.759111 647.310222 896 532.707556 896h-56.888889C361.216 896 268.003556 802.759111 268.003556 688.184889v-287.857778h64.085333l-132.352-526.222222-0.312889-1.251556H457.102222l1.137778 28.472889h92.046222l1.137778-28.472889h257.706667L676.408889 400.327111zM548.124444-43.235556H460.430222l3.84 95.658667h80.014222l3.811556-95.658667z m-81.635555 151.096889l3.84 95.630223h67.953778l3.811555-95.630223H466.460444z m6.030222 151.068445l3.811556 95.658666h55.921777l3.811556-95.658666H472.462222z m6.030222 151.096889l3.811556 95.630222H526.222222l3.811556-95.630222h-51.484445zM348.928 688.184889c0 69.973333 56.917333 126.862222 126.862222 126.862222h56.917334c69.973333 0 126.862222-56.888889 126.862222-126.862222v-220.899556L629.048889 588.8l-0.199111 0.768h-105.984l1.137778-28.472889h-39.424l1.137777 28.472889H379.733333l-30.776889-122.311111V688.184889z"  horiz-adv-x="1024" />

    
    <glyph glyph-name="tiaojie" unicode="&#59024;" d="M516.183771-48.508343a446.229943 446.229943 0 0 0-47.104 41.603657c-1.170286 1.2288-155.2384 157.023086-238.211657 240.8448a31.5392 31.5392 0 0 1-50.029714-6.846171c-9.654857-17.2032-13.546057-32.914286-11.527314-46.665143 3.452343-23.610514 22.849829-47.338057 50.848914-75.5712l167.1168-169.837714c27.969829-28.233143 51.4048-47.747657 74.810514-51.229257 2.340571-0.351086 4.827429-0.526629 7.285029-0.526629 13.399771 0 28.437943 5.207771 44.675657 15.506286a32.124343 32.124343 0 0 1 2.135771 52.721371zM907.088457 342.016l-9.362286 11.0592a520.660114 520.660114 0 0 1-7.489828 8.8064l-0.292572 0.351086c-7.314286 8.074971-15.418514 16.647314-24.224914 25.453714l-3.072 3.042743a24.195657 24.195657 0 0 1-0.672914 0.672914c-75.073829 70.802286-141.955657 71.621486-212.7872 72.4992-45.348571 0.585143-88.181029 1.082514-133.997714 18.0224-44.880457 16.5888-86.4256 51.258514-113.956572 95.085714-25.8048 41.106286-35.108571 84.7872-24.839314 116.853029 0.380343 1.141029 0.848457 2.399086 1.375086 3.803429l44.090514 44.119771a64.073143 64.073143 0 0 1 0 90.433829L373.116343 881.078857a31.802514 31.802514 0 0 1-45.026743 0L9.362286 561.883429a31.890286 31.890286 0 0 1 0-45.056l48.7424-48.830172c12.053943-12.0832 28.086857-18.724571 45.173028-18.724571 17.056914 0 33.089829 6.641371 45.143772 18.724571l39.614171 39.643429c22.586514-40.989257 26.126629-80.252343 29.257143-115.0976 3.218286-35.810743 5.558857-61.674057 26.506971-82.592915 66.296686-66.413714 269.897143-270.716343 271.184458-272.003657 47.279543-47.3088 89.117257-70.334171 127.912228-70.334171 3.774171 0 7.548343 0.234057 11.264 0.672914 33.850514 3.978971 68.637257 25.482971 112.815543 69.719772l99.591314 99.708342c54.242743 54.301257 77.034057 88.824686 78.613943 119.076572 1.2288 23.464229-11.029943 51.082971-37.449143 84.436114a37.098057 37.098057 0 0 1-0.6144 0.760686zM1160.952686 568.261486L841.962057 886.696229a31.890286 31.890286 0 0 1-45.056 0l-48.771657-48.713143a63.780571 63.780571 0 0 1 0-90.229029l14.5408-14.511543c-49.152-30.778514-122.353371-65.3312-203.278629-65.3312a262.056229 262.056229 0 0 0-68.871314 9.069715 31.744 31.744 0 0 1-37.449143-44.032c13.253486-28.437943 44.558629-67.496229 89.117257-83.909486 34.816-12.814629 73.640229-13.312 111.2064-13.750857 77.531429-0.965486 173.992229-2.165029 275.924115-107.783315a31.890286 31.890286 0 0 1 54.623085 18.549029 267.995429 267.995429 0 0 0 11.322515 55.003429l26.506971-26.477715c12.0832-12.053943 28.116114-18.666057 45.202286-18.666057s33.119086 6.612114 45.202286 18.666057l48.771657 48.713143a31.744 31.744 0 0 1 0 44.968229z"  horiz-adv-x="1170" />

    
    <glyph glyph-name="xinfang" unicode="&#59025;" d="M721.754839 328.670968l-44.593549 44.593548-44.593548-44.593548zM693.677419 664.774194m-231.225806 0a231.225806 231.225806 0 1 1 462.451613 0 231.225806 231.225806 0 1 1-462.451613 0ZM1233.556645-77.130323h7.927742v127.108129L961.569032 401.507097a93.283097 93.283097 0 0 1-66.593032 32.04129v-89.517419h64.346839c14.534194 1.222194 28.903226-3.567484 39.638709-13.245936 10.735484-9.678452 16.846452-23.320774 16.780387-37.623742v-344.856774a50.043871 50.043871 0 0 0-6.771612-24.344774h-30.488775c6.738581 6.804645 10.405161 15.954581 10.173936 25.434839V281.005419c0 20.149677-16.68129 36.467613-37.260387 36.467613H401.771355c-20.546065 0-37.227355-16.317935-37.227355-36.467613v-331.643871c-0.231226-9.447226 3.435355-18.597161 10.140903-25.434838H0V-128h1354.322581v50.869677h-120.765936zM132.426323-56.980645a98.237935 98.237935 0 0 1 89.484387 14.369032l116.207484 110.195613V283.581935a49.548387 49.548387 0 0 0 17.242838 37.491613 55.296 55.296 0 0 0 40.860903 13.212904H462.451613v89.253161a91.961806 91.961806 0 0 1-63.917419-25.335742l-132.459355-128.957936v178.539355C266.074839 494.658065 226.00671 532.645161 176.557419 532.645161h-20.876387c-49.44929 0-89.517419-37.987097-89.517419-84.859871V34.51871c-2.147097-41.158194 24.972387-78.616774 66.26271-91.499355z"  horiz-adv-x="1354" />

    
    <glyph glyph-name="chaifangjidi" unicode="&#59026;" d="M554.410667 857.770667L0 504.917333h1108.821333zM957.610667 895.573333h-201.6v-113.237333l201.6-128.298667zM151.210667-112.469333h151.210666v365.397333h226.773334v-365.397333h428.373333v567.04h-806.4v-567.04z m503.978666 365.397333h201.6v-201.6h-201.6v201.6z"  horiz-adv-x="1109" />

    
    <glyph glyph-name="yingjidengji" unicode="&#59019;" d="M286.147765 812.724706L214.618353 884.284235A538.804706 538.804706 0 0 1 0 485.707294h102.189176c10.24 137.938824 76.649412 255.488 183.958589 327.017412z m684.754823-327.017412h102.189177c-10.24 163.538824-86.859294 306.597647-209.498353 398.576941l-71.55953-71.559529c102.219294-71.529412 168.658824-189.048471 178.868706-327.017412z m-102.219294-25.569882c0 158.418824-107.309176 286.177882-255.488 321.957647V817.814588c0 40.869647-35.779765 76.649412-76.649412 76.649412S459.896471 858.714353 459.896471 817.844706v-35.779765C311.717647 746.315294 204.408471 618.556235 204.408471 460.137412v-281.027765l-102.219295-102.219294v-51.079529h868.713412v51.079529l-102.219294 102.219294v281.027765zM536.545882-127.488h20.449883c35.749647 5.12 61.319529 30.659765 71.529411 61.319529 5.12 10.209882 10.24 25.539765 10.24 40.869647h-204.40847a102.490353 102.490353 0 0 1 102.189176-102.189176z"  horiz-adv-x="1084" />

    
    <glyph glyph-name="ditanshijiancha" unicode="&#59020;" d="M512 885.845333C235.27619 885.845333 10.154667 660.72381 10.154667 384 10.154667 107.27619 235.27619-117.845333 512-117.845333 788.72381-117.845333 1013.845333 107.27619 1013.845333 384 1013.845333 660.72381 788.72381 885.845333 512 885.845333z m0-967.119238C255.451429-81.273905 46.726095 127.451429 46.726095 384S255.451429 849.273905 512 849.273905 977.273905 640.548571 977.273905 384 768.548571-81.273905 512-81.273905zM848.481524 152.380952a18.285714 18.285714 0 1 0-36.559238-0.01219A18.285714 18.285714 0 0 0 848.481524 152.380952z m-542.476191 76.190477a18.285714 18.285714 0 1 0-36.559238-0.012191 18.285714 18.285714 0 0 0 36.559238 0.012191z m62.96381-18.285715a18.285714 18.285714 0 1 0-36.559238-0.01219 18.285714 18.285714 0 0 0 36.559238 0.01219z m-36.571429 71.619048a18.285714 18.285714 0 1 0-0.01219 36.559238 18.285714 18.285714 0 0 0 0.01219-36.559238z m-22.345143 295.131428a22.345143 22.345143 0 1 0 0 44.690286 22.345143 22.345143 0 0 0 0-44.690286z m203.105524-46.006857L512.609524 384h384.670476c0 213.211429-171.227429 386.072381-386.072381 386.072381l0.560762-44.617143c14.531048 0.658286 149.906286 2.925714 249.465905-126.793143l-19.346286-14.848c-95.488 124.416-229.656381 117.321143-231.009524 117.248l0.195048-54.576762c18.578286 3.547429 105.167238 12.982857 187.684571-94.72l-19.358476-14.835809c-81.298286 106.118095-167.814095 85.406476-168.630857 85.223619l0.207238-66.779429c14.140952 2.194286 80.505905 8.423619 129.901714-57.380571l-19.504762-14.640762c-44.8 59.684571-105.642667 48.201143-108.214857 47.676952z m328.301715-22.076952a10.666667 10.666667 0 1 0 0-21.333333 10.666667 10.666667 0 0 0 0 21.333333z"  horiz-adv-x="1024" />

    
    <glyph glyph-name="paishuixitong" unicode="&#59018;" d="M883.994483 503.984552a200.209655 200.209655 0 0 0-199.997793-199.997793h-131.990069v160.026482h112.004413c33.085793 0 59.992276 26.906483 59.992276 59.992276v292.016552h159.991173v-312.037517z m-524.005517-199.997793c-33.085793 0-59.992276-26.906483-59.992276-59.992276v-292.016552H140.005517v312.037517a200.209655 200.209655 0 0 0 199.997793 199.997793h131.990069v-160.026482h-112.004413zM1024 896H584.033103v-80.013241h59.956966v-271.995587h-91.983448v60.027587h-80.013242v-60.027587H340.038621c-154.376828 0-280.011034-125.598897-280.011035-280.011034v-311.966897H0V-128h439.966897v80.013241h-59.956966v271.995587h91.983448v-60.027587h80.013242v60.027587h131.990069c154.376828 0 280.011034 125.598897 280.011034 280.011034V815.951448H1024V896z"  horiz-adv-x="1024" />

    
    <glyph glyph-name="daolu" unicode="&#59017;" d="M867.230476 893.220571h-43.398095l324.949333-973.970285h117.418667L867.230476 893.220571M398.921143 893.220571L0-80.749714h117.418667L442.368 893.220571h-43.398095zM579.096381 121.027048l9.020952 224.694857h89.916953l9.069714-224.694857h-108.007619z m22.918095 570.416762h62.171429l9.020952-224.694858H592.944762l9.020952 224.694858zM656.042667 893.220571l3.267047-80.798476h-52.419047l3.218285 80.798476H482.54781l-256.48762-973.970285h344.941715l3.267047 80.798476h117.662477l3.267047-80.798476h344.892953L783.60381 893.220571h-127.561143z"  horiz-adv-x="1267" />

    
    <glyph glyph-name="dixiakongjian" unicode="&#59015;" d="M1009.593379 493.391448L537.6 886.74869c-14.830345 12.358621-36.369655 12.358621-51.2 0L14.406621 493.356138a40.006621 40.006621 0 0 1-14.406621-30.72v-550.664828C0-110.097655 17.902345-128 40.006621-128h943.986758c22.104276 0 40.006621 17.902345 40.006621 40.006621V462.671448c0 11.864276-5.296552 23.128276-14.406621 30.72z m-65.60662-148.056276H709.384828v156.001104h165.782069l68.855172-57.414621v-98.586483z m-863.973518-1.341793h77.329656v-117.336276c0-22.104276 17.902345-40.006621 40.00662-40.00662h117.336276v-117.300966c0-22.104276 17.902345-40.006621 39.97131-40.00662h117.336276v-77.329656H80.013241V343.993379z m471.99338-391.980138v117.336276c0 22.068966-17.902345 39.97131-40.006621 39.971311h-117.336276v117.336275c0 22.104276-17.902345 40.006621-40.006621 40.006621H237.320828V384c0 22.104276-17.902345 40.006621-39.971311 40.006621H80.013241v19.915034L512 803.945931l267.122759-222.596414h-109.815173c-22.068966 0-39.97131-17.937655-39.97131-40.00662v-236.014345c0-22.068966 17.902345-40.006621 40.006621-40.006621h274.643862v-313.30869H552.006621z"  horiz-adv-x="1024" />

    
    <glyph glyph-name="zaijiangongdi" unicode="&#59016;" d="M943.773538 776.546462l46.08 30.72v-30.72h-46.08z m-39.227076-819.2a17.053538 17.053538 0 1 0 0-34.146462 17.053538 17.053538 0 0 0 0 34.146462z m34.107076 68.253538a17.053538 17.053538 0 1 0 0-34.146462 17.053538 17.053538 0 0 0 0 34.146462z m34.146462-102.4a17.053538 17.053538 0 1 0 0 34.146462 17.053538 17.053538 0 0 0 0-34.146462z m-204.8 29.026462l30.72-46.08h-30.72v46.08z m-512 505.698461h102.4V486.4H256v-28.435692z m238.946462 28.475077v-146.786462l-39.266462 38.793847a17.092923 17.092923 0 0 1-11.933538 4.962461h-51.2V486.4h102.4z m34.107076-170.653538h102.4V486.4h-102.4v-170.653538z m238.946462 363.52v28.987076h19.298462l-19.298462-28.987076z m3.426462-56.32l30.72 46.08v-92.16l-30.72 46.08z m30.72-455.601231l-30.72 46.001231 30.72 46.08v-92.081231z m-34.146462-10.318769l30.72-46.08-30.72-46.08v92.16z m0 317.44v92.16l30.72-46.08-30.72-46.08z m0-112.64l30.72-46.08-30.72-46.08v92.16z m34.146462 10.24l-30.72 46.08 30.72 46.08v-92.16z m0-409.6l-30.72 46.08 30.72 46.08v-92.16zM619.52 776.546462l51.2 34.107076h11.933538v-34.107076H619.52zM34.146462 810.653538h11.933538l51.2-34.107076H34.146462v34.107076z m482.973538 0h92.16l-46.08-30.72-46.08 30.72z m-56.32-3.387076l46.08-30.72h-92.16l46.08 30.72z m-148.48 3.387076h92.16l-46.08-30.72-46.08 30.72z m-158.72-30.72l-46.08 30.72h92.16l-46.08-30.72z m102.4 27.332924l46.08-30.72H209.92l46.08 30.72z m460.8-13.666462h68.253538V861.853538H716.8V793.6z m216.733538 17.053538l-46.08-30.72v30.72h46.08zM93.853538 332.8l25.6-34.146462H51.2l25.6 34.146462h17.053538z m913.092924 512h-119.492924V878.946462A17.053538 17.053538 0 0 1 870.4 896h-170.653538a17.053538 17.053538 0 0 1-17.092924-17.053538V844.8H17.053538A17.053538 17.053538 0 0 1 0 827.746462v-68.292924c0-9.452308 7.640615-17.053538 17.053538-17.053538h51.2v-324.253538c0-9.452308 7.640615-17.092923 17.092924-17.092924a17.053538 17.053538 0 1 0-17.092924-17.053538H34.146462c0-12.484923 4.686769-24.536615 13.036307-33.831385L3.426462 291.84l0.196923-0.157538A16.699077 16.699077 0 0 1 0 281.6v-68.253538c0-4.529231 1.811692-8.861538 5.001846-12.091077l34.146462-34.107077a17.053538 17.053538 0 0 1 12.051692-5.001846h68.253538a17.053538 17.053538 0 0 1 12.091077 5.001846l34.107077 34.107077a17.053538 17.053538 0 0 1 5.001846 12.091077V281.6a16.699077 16.699077 0 0 1-3.623384 10.082462l0.236308 0.157538-43.795693 58.328615a50.884923 50.884923 0 0 1-21.070769 82.116923V742.4h580.253538v-17.053538c0-9.452308 7.640615-17.092923 17.092924-17.092924h34.107076v-802.107076H665.6V588.8h-34.146462v-68.253538h-102.4v34.107076h-34.107076v-34.107076h-102.4V537.6H358.4v-17.053538H256v51.2h221.853538v34.107076H256V674.146462h-34.146462v-768h-27.05723l-80.344616 80.344615a17.053538 17.053538 0 0 1-24.103384 0l-80.344616-80.344615H0V-128h1024v34.146462h-13.312a50.727385 50.727385 0 0 1-24.576 83.337846 51.2 51.2 0 1 1-94.916923 0 50.727385 50.727385 0 0 1-24.576-83.337846h-30.326154V708.253538h34.107077c9.452308 0 17.053538 7.640615 17.053538 17.092924V742.4h119.492924c9.412923 0 17.053538 7.640615 17.053538 17.053538V827.746462a17.092923 17.092923 0 0 1-17.053538 17.053538z"  horiz-adv-x="1024" />

    
    <glyph glyph-name="wuzizhuangbei" unicode="&#58903;" d="M687.988364 872.727273H138.24A91.694545 91.694545 0 0 1 46.545455 781.0792730000001V720.058182A91.694545 91.694545 0 0 1 138.193455 628.363636H779.636364V781.0792730000001A91.694545 91.694545 0 0 1 687.988364 872.727273M46.545455 261.818182h691.246545v106.309818c0 47.197091 14.149818 94.021818 41.844364 138.053818H46.545455v-244.363636zM44.032-13.079272999999944c0.093091-50.594909 40.215273-91.601455 89.786182-91.648h573.905454l-16.523636 33.745455a62.045091 62.045091 0 0 0 11.217455 70.562909l42.309818 43.147636V139.63636399999996H44.032v-152.715637zM1657.018182-25.73963600000002a60.788364 60.788364 0 0 0-18.152727 43.194181v350.673455c-0.139636 143.639273-117.76 260.096-263.028364 260.235636H1160.843636c-145.221818-0.139636-262.888727-116.596364-263.074909-260.235636v-350.673455c0-16.197818-6.516364-31.744-18.106182-43.194181l-30.254545-29.975273 24.762182-49.012364h788.293818l24.762182 49.012364-30.254546 29.975273zM1331.386182 733.090909l33.559273 139.636364h-174.545455l33.605818-139.636364z"  horiz-adv-x="1722" />

    
    <glyph glyph-name="qujiducha1" unicode="&#58902;" d="M650.979556-68.494222H72.704V791.438222h578.275556v-112.526222l44.316444 75.662222V835.441778H28.444444v-947.996445h666.851556v354.986667l-44.316444-61.155556zM149.504 716.942222h438.528v-176.099555H149.504zM827.050667 896l-86.328889-137.898667 0.227555-0.142222-267.52-427.235555-44.288-234.837334 204.202667 131.413334 270.136889 430.108444 0.284444-0.170667 86.357334 137.870223L827.050667 896z m-205.056-654.876444l-116.622223-74.951112-40.362666 24.974223 24.462222 131.584 12.231111 19.456 12.231111-71.509334 46.535111 23.324445 2.901334-53.873778 67.384889 15.075556-8.760889-14.08z m184.519111 554.837333l32 51.000889 102.314666-63.288889-31.971555-51.029333-102.343111 63.317333z"  horiz-adv-x="1024" />

    
    <glyph glyph-name="gaokonggouzhuwu" unicode="&#58901;" d="M825.540923 737.3587689999999V784.423385c44.268308 5.632 77.981538 27.372308 77.981539 54.626461C903.640615 870.478769 859.569231 896 804.982154 896c-54.390154 0-98.697846-25.521231-98.697846-56.950154 0-27.254154 33.870769-48.994462 77.981538-54.626461v-47.064616H240.836923V784.423385C285.144615 790.055385 319.015385 811.795692 319.015385 839.049846 319.015385 870.478769 274.786462 896 220.317538 896 165.809231 896 121.619692 870.478769 121.619692 839.049846c0-27.254154 33.870769-48.994462 77.981539-54.626461v-47.064616H0v-620.071384h152.418462V-128H232.369231v149.385846h559.143384V-128h79.95077v245.287385H1024V737.3587689999999h-198.459077zM787.692308 68.92307700000003H236.307692v39.384615h551.384616v-39.384615z m118.114461 157.538461H78.769231V659.692308h827.076923l-0.039385-433.23077z"  horiz-adv-x="1024" />

    
    <glyph glyph-name="table" unicode="&#59014;" d="M643.693819 90.313854h-263.387638a14.086852 14.086852 0 0 1-14.084264-14.084264v-145.074129a14.081676 14.081676 0 0 1 14.084264-14.084264h263.387638a14.086852 14.086852 0 0 1 14.084264 14.084264V76.22959a14.081676 14.081676 0 0 1-14.084264 14.084264zM277.471903 343.848719H14.084264A14.084264 14.084264 0 0 1 0 329.769632v-145.076717a14.086852 14.086852 0 0 1 14.084264-14.084264h263.387639a14.084264 14.084264 0 0 1 14.084264 14.084264v145.076717a14.079088 14.079088 0 0 1-14.084264 14.079087zM277.471903 597.391349H14.084264A14.086852 14.086852 0 0 1 0 583.304497v-145.074129a14.086852 14.086852 0 0 1 14.084264-14.084263h263.387639a14.084264 14.084264 0 0 1 14.084264 14.084263v145.074129a14.084264 14.084264 0 0 1-14.084264 14.086852zM277.471903 850.928803H14.084264A14.086852 14.086852 0 0 1 0 836.844539v-145.074129a14.08944 14.08944 0 0 1 14.084264-14.08944h263.387639a14.086852 14.086852 0 0 1 14.084264 14.08944V836.844539a14.084264 14.084264 0 0 1-14.084264 14.084264zM1009.915736 90.313854H746.528097a14.086852 14.086852 0 0 1-14.084264-14.084264v-145.074129a14.084264 14.084264 0 0 1 14.084264-14.084264h263.387639a14.086852 14.086852 0 0 1 14.084264 14.084264V76.22959a14.084264 14.084264 0 0 1-14.084264 14.084264zM1009.915736 343.848719H746.528097a14.081676 14.081676 0 0 1-14.084264-14.079087v-145.076717a14.086852 14.086852 0 0 1 14.084264-14.084264h263.387639a14.086852 14.086852 0 0 1 14.084264 14.084264v145.076717a14.079088 14.079088 0 0 1-14.084264 14.079087zM1009.915736 597.391349H746.528097a14.084264 14.084264 0 0 1-14.084264-14.086852v-145.074129a14.086852 14.086852 0 0 1 14.084264-14.084263h263.387639a14.086852 14.086852 0 0 1 14.084264 14.084263v145.074129a14.084264 14.084264 0 0 1-14.084264 14.086852zM643.693819 850.928803h-263.387638a14.084264 14.084264 0 0 1-14.084264-14.084264v-145.074129a14.086852 14.086852 0 0 1 14.084264-14.08944h263.387638a14.086852 14.086852 0 0 1 14.084264 14.08944V836.844539a14.084264 14.084264 0 0 1-14.084264 14.084264zM380.536519 170.65006h262.924374a14.08944 14.08944 0 0 1 14.086852 14.086852v398.381244a14.086852 14.086852 0 0 1-14.086852 14.084264H380.536519a14.086852 14.086852 0 0 1-14.084264-14.084264v-398.381244a14.08944 14.08944 0 0 1 14.084264-14.086852z m42.257967 370.212717h178.411028v-128.694249h-178.411028l-0.018116 128.694249h0.018116z m0-185.033893h178.411028v-128.831416h-178.411028l-0.018116 128.831416h0.018116z"  horiz-adv-x="1024" />

    
    <glyph glyph-name="yiyuan" unicode="&#58883;" d="M487.0656 25.2416h-14.592a14.592 14.592 0 0 1-14.5408-14.592v-19.9936a14.592 14.592 0 0 1 14.5664-14.6432h14.5664a14.592 14.592 0 0 1 14.592 14.6432v19.968a14.592 14.592 0 0 1-14.592 14.6176zM564.352 25.2416h-14.592a14.592 14.592 0 0 1-14.592-14.592v-19.9936a14.592 14.592 0 0 1 14.592-14.6432h14.592a14.592 14.592 0 0 1 14.592 14.6432v19.968a14.592 14.592 0 0 1-14.592 14.6176zM969.3696 882.7392H67.456c-32 0-56.32-25.9072-54.2464-57.856l56.4992-877.9264c2.048-31.9232 29.696-57.856 61.696-57.856h273.92l-15.616 157.8496c-3.1488 31.8464 20.2496 57.6768 52.2752 57.6768h156.7232c32.0256 0 55.424-25.856 52.2752-57.6768l-15.616-157.8496h270.08c32 0 59.648 25.9328 61.696 57.856l56.4736 877.952a53.6064 53.6064 0 0 1-54.2464 57.856zM741.2736 542.72a20.992 20.992 0 0 0 20.992 20.992h64.8448a20.992 20.992 0 0 0 20.992-20.992v-90.1632a20.992 20.992 0 0 0-20.992-21.0176h-64.8704a20.992 20.992 0 0 0-20.992 20.992V542.72z m-445.696-551.1936a20.992 20.992 0 0 0-20.992-20.992H209.664a20.9664 20.9664 0 0 0-20.992 20.992v90.2144a20.992 20.992 0 0 0 20.992 20.992h64.8704a20.992 20.992 0 0 0 20.992-20.992v-90.2144z m0 238.0032a20.992 20.992 0 0 0-20.992-20.992H209.664a20.9664 20.9664 0 0 0-20.992 20.992v90.1888a20.992 20.992 0 0 0 20.992 20.992h64.8704a20.992 20.992 0 0 0 20.992-20.992v-90.1888z m0 223.0272a20.992 20.992 0 0 0-20.992-21.0176H209.664a20.992 20.992 0 0 0-20.992 20.992V542.72a20.992 20.992 0 0 0 20.992 20.992h64.8704a20.992 20.992 0 0 0 20.992-20.992v-90.1632z m184.2432-223.0272c0-11.648-9.3696-20.992-20.992-20.992H393.984a20.9664 20.9664 0 0 0-20.992 20.992v90.1888a20.992 20.992 0 0 0 20.992 20.992h64.896a20.992 20.992 0 0 0 20.992-20.992v-90.1888z m0 223.0272a20.992 20.992 0 0 0-20.992-21.0176H393.984a20.992 20.992 0 0 0-20.992 20.992V542.72a20.992 20.992 0 0 0 20.992 20.992h64.896a20.992 20.992 0 0 0 20.992-20.992v-90.1632z m68.1472 245.0944v-54.9376a6.528 6.528 0 0 0-6.5792-6.5536h-45.9776a6.5536 6.5536 0 0 0-6.6048 6.5536V697.6512a6.5024 6.5024 0 0 1-6.5536 6.5536h-54.912a6.5536 6.5536 0 0 0-6.5536 6.5792V756.736c0 3.6352 2.9184 6.5536 6.5536 6.5536h54.912a6.5536 6.5536 0 0 1 6.5536 6.6048V824.832c0 3.6352 2.9184 6.5536 6.6048 6.5536h45.9776c3.6352 0 6.5792-2.9184 6.5792-6.5536v-54.9376c0-3.6352 2.8928-6.6048 6.5536-6.6048h54.9376c3.6352 0 6.5536-2.8928 6.5536-6.5536v-45.9776a6.5536 6.5536 0 0 0-6.5536-6.5792H554.496a6.5024 6.5024 0 0 1-6.5536-6.528z m115.8656-468.1216c0-11.648-9.3696-20.992-20.992-20.992h-64.896a20.9408 20.9408 0 0 0-20.992 20.992v90.1888a20.992 20.992 0 0 0 20.992 20.992h64.8704a20.992 20.992 0 0 0 21.0176-20.992v-90.1888z m0 223.0272a20.992 20.992 0 0 0-20.992-21.0176h-64.896a20.992 20.992 0 0 0-20.992 20.992V542.72a20.992 20.992 0 0 0 20.992 20.992h64.8704a20.992 20.992 0 0 0 21.0176-20.992v-90.1632z m77.4144-132.8384a20.992 20.992 0 0 0 20.992 20.992h64.8704a20.992 20.992 0 0 0 20.992-20.992v-90.1888c0-11.648-9.3952-20.992-20.992-20.992h-64.8704a20.9408 20.9408 0 0 0-20.992 20.992v90.1888z m106.9056-328.192a20.992 20.992 0 0 0-21.0432-20.992h-64.8448a20.9408 20.9408 0 0 0-20.992 20.992v90.2144c0 11.5968 9.3696 20.992 20.992 20.992h64.8448a20.992 20.992 0 0 0 21.0432-20.992v-90.2144z"  horiz-adv-x="1024" />

    
    <glyph glyph-name="xuexiao" unicode="&#58884;" d="M213.683892 272.688432h-53.414054c-9.40973 0-15.719784-6.310054-15.719784-15.719783v-75.416217c0-9.40973 6.282378-15.719784 15.719784-15.719783h53.414054c9.40973 0 15.719784 6.282378 15.719784 15.719783V256.968649c0 9.40973-6.282378 15.719784-15.719784 15.719783zM213.683892 128.110703h-53.414054c-9.40973 0-15.719784-6.282378-15.719784-15.692108v-75.416217c0-9.40973 6.282378-15.719784 15.719784-15.719783h53.414054c9.40973 0 15.719784 6.282378 15.719784 15.719783v75.416217c0 9.40973-6.282378 15.692108-15.719784 15.692108zM323.667027 272.688432h-53.414054c-9.40973 0-15.719784-6.310054-15.719784-15.719783v-75.416217c0-9.40973 6.282378-15.719784 15.719784-15.719783h53.414054c9.40973 0 15.719784 6.282378 15.719784 15.719783V256.968649c0 9.40973-6.282378 15.719784-15.719784 15.719783zM323.667027 128.110703h-53.414054c-9.40973 0-15.719784-6.282378-15.719784-15.692108v-75.416217c0-9.40973 6.282378-15.719784 15.719784-15.719783h53.414054c9.40973 0 15.719784 6.282378 15.719784 15.719783v75.416217c0 9.40973-6.282378 15.692108-15.719784 15.692108zM1058.982054 168.96h53.414054c9.437405 0 15.719784 6.310054 15.719784 15.719784v75.416216c0 9.40973-6.282378 15.719784-15.719784 15.719784h-53.414054c-9.40973 0-15.719784-6.282378-15.719784-15.719784v-75.416216c0-9.40973 6.310054-15.692108 15.719784-15.692108zM1058.982054 24.437622h53.414054c9.437405 0 15.719784 6.282378 15.719784 15.692108V115.545946c0 9.437405-6.282378 15.719784-15.719784 15.719784h-53.414054c-9.40973 0-15.719784-6.282378-15.719784-15.719784v-75.416216c0-9.40973 6.310054-15.692108 15.719784-15.692108zM1168.965189 168.96h53.414054c9.437405 0 15.719784 6.310054 15.719784 15.719784v75.416216c0 9.40973-6.282378 15.719784-15.692108 15.719784h-53.414054c-9.437405 0-15.747459-6.282378-15.74746-15.719784v-75.416216c0-9.40973 6.310054-15.692108 15.719784-15.692108zM1168.965189 24.437622h53.414054c9.437405 0 15.719784 6.282378 15.719784 15.692108V115.545946c0 9.437405-6.282378 15.719784-15.692108 15.719784h-53.414054c-9.437405 0-15.747459-6.282378-15.74746-15.719784v-75.416216c0-9.40973 6.310054-15.692108 15.719784-15.692108zM1335.517405 561.788541h-549.915675L738.470054 602.637838V659.179243h169.679568c25.129514 0 47.131676 22.002162 47.131675 47.159352V810.039351c0 25.129514-22.002162 47.131676-47.131675 47.131676h-169.679568C732.187676 879.117838 716.467892 894.865297 691.338378 894.865297c-25.157189 0-47.159351-22.002162-47.159351-47.131675V602.637838l-47.131676-40.849297H47.131676C22.002162 561.788541 0 539.786378 0 514.629189v-578.200216c0-25.129514 22.002162-47.131676 47.131676-47.131676h1288.385729c25.129514 0 47.131676 22.002162 47.131676 47.131676V514.629189c0 25.157189-22.002162 47.159351-47.131676 47.159352zM94.263351 319.792432h298.537514v-336.259459H94.263351v336.259459z m675.618595-31.439567h-157.114811c-25.129514 0-47.131676-22.002162-47.131676-47.131676v-260.815567h-78.571243V344.949622l204.246487 175.961946 204.246486-175.961946v-364.516325h-78.543567v260.815568c0 28.284541-21.974486 47.131676-47.131676 47.131676z m518.503784-307.947243H989.848216V319.820108h298.537514v-339.386811z"  horiz-adv-x="1383" />

    
    <glyph glyph-name="gougou" unicode="&#59043;" d="M479.287 134.883c-28.762-28.039-75.489-28.039-104.251 0l-234.739 229.703c-28.762 28.039-28.762 74.052 0 102.087s75.489 28.039 104.251 0l182.615-178.658 351.927 344.736c28.762 28.039 75.489 28.039 104.251 0s28.762-74.052 0-102.087l-404.048-395.781z"  horiz-adv-x="1024" />

    
    <glyph glyph-name="fangyililiang" unicode="&#58882;" d="M365.714 493.714a103.98 103.98 0 0 1-9.244 38.902 39.86 39.86 0 0 1-27.488 1.296 65.328 65.328 0 0 0-67.624 20.018c-17.448 17.446-31.214 31.214-60.214 31.214a18.286 18.286 0 0 0 0 36.572 113.26 113.26 0 0 0 86.07-41.93 30.132 30.132 0 0 1 34.964-9.946 140.326 140.326 0 0 0 14.48 2.152l-0.248 0.454A154.816 154.816 0 0 0 310.856 640a49.864 49.864 0 0 1-26.57 38.552 18.288 18.288 0 0 0 16.464 32.66 99.51 99.51 0 0 0 30.198-25.312c1.212 1.252 2.41 2.456 3.552 3.598 8.964 8.964 12.928 13.358 12.928 23.644a18.286 18.286 0 0 0 36.572 0 65.18 65.18 0 0 0-23.644-49.5c-8.964-8.964-12.928-13.358-12.928-23.644a142.07 142.07 0 0 1 21.018-49.91 208.088 208.088 0 0 0 33.84-96.376c0-42.086 38.7-96.712 90.526-132.004a916.824 916.824 0 0 1-14.044 110.736A1273.478 1273.478 0 0 0 457.142 713.14v3.428c0.014 4.98 0.02 10.416-0.176 16.044l-0.01 0.426a189.578 189.578 0 0 1-0.476 8.118l-0.05 0.74a137.464 137.464 0 0 1-0.928 8.036l-0.126 0.944a102.46 102.46 0 0 1-1.51 7.77c-0.088 0.38-0.166 0.762-0.258 1.14a78.642 78.642 0 0 1-2.208 7.32c-0.152 0.434-0.302 0.868-0.464 1.296a60.614 60.614 0 0 1-3.75 8.078 50.376 50.376 0 0 1-3.99 6.082 45.288 45.288 0 0 1-3.818 4.7 76.064 76.064 0 0 1-55.376 17.304 227.876 227.876 0 0 1-134.838-50.822 535.826 535.826 0 0 1-141.678-159.072L71.218 522.1a602.36 602.36 0 0 1-35.572-70.75C18.392 399.642 0 320.66 0 36.572 0-39.34 38.304-128 146.286-128c4.858 0 82.464 0.054 87.108 0.142 88.66 1.39 168.744 53.286 206.232 133.644a680.7 680.7 0 0 1 50.75 228.176c-42.708-13.404-89.778-60.364-111.732-82.32a413.254 413.254 0 0 0-16.43-15.492 17.288 17.288 0 0 0-1.856-2.794 181.478 181.478 0 0 1-31.214-96.786 97.184 97.184 0 0 0-46.678-89.5 18.288 18.288 0 0 0-16.356 32.714 62.14 62.14 0 0 1 26.464 56.786 220.668 220.668 0 0 0 9.556 57.654 136.066 136.066 0 0 0-125.246-1.86c-3.48 0.654-6.85 1.8-10.01 3.4a60.644 60.644 0 0 1-44.228-17.264 18.284 18.284 0 1 0-25.856 25.856 114.852 114.852 0 0 0 38.57 24.028c-2.358 3.914-4.28 7.43-5.428 9.724-4.488 9.024-0.828 19.976 8.184 24.49s19.974 0.884 24.512-8.114a91.69 91.69 0 0 1 17.48-24.176 67.634 67.634 0 0 0 9.306-3.56c0.844-0.284 1.664-0.634 2.452-1.048 50.624-24.848 100.272-8.87 160.924 51.8 28.14 28.14 83.544 83.398 139.666 94.628 0.05 1.216 0.148 2.362 0.194 3.584a209.552 209.552 0 0 0-61.478 20.386 18.12 18.12 0 0 0-6.148-2.99c-1.41-1.964-3.392-5.392-4.928-8.054a79.238 79.238 0 0 0-72.66-47.34c-29 0-42.768-13.768-60.214-31.214a18.284 18.284 0 1 0-25.856 25.856 199.84 199.84 0 0 0 27.202 23.756 224.008 224.008 0 0 0-8.668 6.762c-9.696 7.91-14.374 11.41-23.892 11.41a18.286 18.286 0 0 0 0 36.572 69.214 69.214 0 0 0 47.018-19.642 59.546 59.546 0 0 1 44.41-16.928c24.214 0 32.376 14.108 40.982 29.054a118.674 118.674 0 0 0 7.63 11.954 1497.3 1497.3 0 0 0-26.986 16.6 343.784 343.784 0 0 1-63.982 34.768 111.454 111.454 0 0 1-67.84 3.464 177.29 177.29 0 0 0-35.342-4.356l-0.158-0.036a71.286 71.286 0 0 1-20.82-26.5 18.282 18.282 0 0 0-24.512-8.114 18.284 18.284 0 0 0-8.184 24.49 145.422 145.422 0 0 0 10.844 17.992 81.424 81.424 0 0 0-25.7 15.758 18.284 18.284 0 0 0 25.856 25.856 63.634 63.634 0 0 1 41.93-12.928 141.992 141.992 0 0 1 28.928 3.714 147.084 147.084 0 0 0 86.572-4.66 363.662 363.662 0 0 0 71.858-38.482 328.632 328.632 0 0 1 104.934-50.06c0.022 1.862 0.08 3.67 0.094 5.544-72.452 40.374-127.826 115.458-127.826 175.37zM988.374 451.356a595.498 595.498 0 0 1-35.178 69.964l-36.982 73.93a535.62 535.62 0 0 1-141.376 158.5A227.902 227.902 0 0 1 640 804.572a76.066 76.066 0 0 1-55.374-17.302 45.288 45.288 0 0 1-3.818-4.7 50.076 50.076 0 0 1-4.716-7.426 60.732 60.732 0 0 1-3.02-6.73c-0.162-0.436-0.316-0.874-0.47-1.314a78.25 78.25 0 0 1-2.206-7.31c-0.092-0.378-0.172-0.76-0.258-1.14a102.46 102.46 0 0 1-1.51-7.77l-0.126-0.944a137.33 137.33 0 0 1-0.928-8.032l-0.052-0.786a189.602 189.602 0 0 1-0.474-8.052l-0.018-0.75c-0.186-5.52-0.184-10.858-0.17-15.748v-3.428a1273.3 1273.3 0 0 0-21.626-240.696 916.074 916.074 0 0 1-14.044-110.736c51.828 35.292 90.526 89.918 90.526 132.004a208.096 208.096 0 0 0 33.84 96.376 142.122 142.122 0 0 1 21.018 49.91c0 10.286-3.964 14.68-12.928 23.644a65.18 65.18 0 0 0-23.644 49.5 18.286 18.286 0 0 0 36.572 0c0-10.286 3.964-14.678 12.928-23.642 1.142-1.142 2.34-2.346 3.552-3.598a99.51 99.51 0 0 0 30.198 25.312 18.288 18.288 0 0 0 16.356-32.714A49.834 49.834 0 0 1 713.144 640a154.79 154.79 0 0 0-25.554-67.554l-0.248-0.454c4.862-0.466 9.694-1.184 14.482-2.152a30.144 30.144 0 0 1 34.964 9.946 113.262 113.262 0 0 0 86.07 41.93 18.286 18.286 0 0 0 0-36.572c-29 0-42.768-13.768-60.214-31.214a65.264 65.264 0 0 0-67.624-20.018 39.868 39.868 0 0 1-27.49-1.296 104 104 0 0 1-9.244-38.9c0-59.912-55.374-134.996-127.814-175.372 0.014-1.874 0.074-3.68 0.094-5.544a328.674 328.674 0 0 1 104.934 50.06 363.606 363.606 0 0 0 71.858 38.482 147.068 147.068 0 0 0 86.572 4.66 141.992 141.992 0 0 1 28.928-3.714 63.31 63.31 0 0 1 42.142 13.144 18.4 18.4 0 0 0 25.75-0.536 18.166 18.166 0 0 0-0.108-25.536 81.432 81.432 0 0 0-25.7-15.758 145.914 145.914 0 0 0 10.844-17.992 18.284 18.284 0 1 0-32.696-16.376 69.38 69.38 0 0 1-20.99 26.536 177.208 177.208 0 0 0-35.332 4.356 111.32 111.32 0 0 1-67.84-3.464 343.784 343.784 0 0 1-63.982-34.768c-8.748-5.49-17.792-11.1-26.986-16.6a118.224 118.224 0 0 0 7.63-11.954c8.608-14.946 16.768-29.054 40.982-29.054a59.542 59.542 0 0 1 44.41 16.928A69.214 69.214 0 0 0 768 310.856a18.286 18.286 0 0 0 0-36.572c-9.518 0-14.196-3.5-23.894-11.412a224.008 224.008 0 0 0-8.668-6.762 199.976 199.976 0 0 0 27.204-23.756 18.284 18.284 0 0 0-25.856-25.856c-17.446 17.446-31.214 31.214-60.214 31.214a79.236 79.236 0 0 0-72.662 47.338c-1.536 2.66-3.518 6.09-4.928 8.054a18.08 18.08 0 0 0-6.148 2.99 209.57 209.57 0 0 0-61.478-20.386c0.046-1.222 0.144-2.368 0.194-3.584 56.12-11.23 111.524-66.486 139.666-94.628 61.002-61 110.876-76.928 161.75-51.428 0.182 0.092 0.362 0.138 0.546 0.228l0.338 0.142a67.71 67.71 0 0 0 10.074 3.888 92.16 92.16 0 0 1 17.454 24.152 18.282 18.282 0 0 0 24.512 8.114 18.284 18.284 0 0 0 8.184-24.49c-1.144-2.286-3.058-5.788-5.406-9.684a114.646 114.646 0 0 0 38.548-24.066 18.284 18.284 0 0 0-25.856-25.856 60.41 60.41 0 0 1-44.112 17.318 37.582 37.582 0 0 0-10.128-3.454 136.066 136.066 0 0 0-125.246 1.86 236.424 236.424 0 0 0 9.046-48.464 83.666 83.666 0 0 1 37.136-9.19A18.284 18.284 0 1 0 768 0a135.358 135.358 0 0 0-30.016 4.036 53.626 53.626 0 0 1 20.142-24.374 18.398 18.398 0 0 0 7.678-24.59 18.136 18.136 0 0 0-24.268-8 97.18 97.18 0 0 0-46.678 89.5 181.478 181.478 0 0 1-31.214 96.786 17.466 17.466 0 0 0-1.856 2.794 413.254 413.254 0 0 0-16.43 15.492c-21.954 21.954-69.024 68.916-111.732 82.32a680.652 680.652 0 0 1 50.75-228.176c37.496-80.366 117.594-132.264 206.268-133.644 4.608-0.09 82.214-0.142 87.072-0.142C985.696-128 1024-39.34 1024 36.572c0 284.088-18.392 363.07-35.626 414.784zM530.876 740.874c0.162 2.55 0.374 5.114 0.646 7.744 0.144 1.402 0.324 2.794 0.506 4.218 0.338 2.614 0.764 5.23 1.248 7.882 0.28 1.542 0.566 3.062 0.902 4.612 0.54 2.466 1.216 4.92 1.918 7.388 0.492 1.742 0.946 3.474 1.526 5.208 0.678 2.002 1.54 3.964 2.348 5.944a91.262 91.262 0 0 0 8.598 16.66V877.714A18.298 18.298 0 0 1 530.282 896h-36.572a18.298 18.298 0 0 1-18.286-18.286v-77.188a91.262 91.262 0 0 0 8.598-16.66c0.81-1.98 1.67-3.942 2.348-5.944 0.58-1.734 1.034-3.466 1.526-5.208 0.704-2.466 1.378-4.92 1.918-7.388 0.338-1.55 0.622-3.07 0.902-4.612 0.484-2.65 0.912-5.268 1.248-7.882 0.184-1.422 0.362-2.814 0.506-4.218 0.272-2.628 0.484-5.194 0.646-7.744 0.088-1.36 0.192-2.702 0.254-4.03 0.114-2.482 0.178-4.854 0.226-7.22 0.024-1.244 0.074-2.502 0.086-3.7 0.03-3.058 0.03-5.974 0.024-8.748l0.002-0.424v-3.608c0-11.636 0.15-22.676 0.386-33.368 0.026-1.212 0.04-2.468 0.07-3.668 0.244-10.014 0.602-19.574 1.028-28.83 0.074-1.602 0.144-3.222 0.222-4.802 0.448-8.894 0.966-17.472 1.554-25.732 0.114-1.586 0.23-3.15 0.348-4.712 0.612-8.126 1.28-16.002 2.008-23.568 0.128-1.348 0.27-2.652 0.402-3.984 0.762-7.618 1.564-15.038 2.42-22.156 0.106-0.876 0.218-1.708 0.324-2.578 0.812-6.624 1.658-13.042 2.53-19.296 0.158-1.13 0.31-2.296 0.468-3.418 0.89-6.268 1.81-12.332 2.734-18.29 0.256-1.64 0.51-3.298 0.766-4.918 0.866-5.442 1.736-10.786 2.608-16.036l0.424-2.484 0.416 2.488c0.876 5.246 1.746 10.598 2.612 16.054 0.252 1.582 0.498 3.202 0.748 4.804 0.932 5.988 1.852 12.084 2.748 18.386 0.158 1.12 0.312 2.286 0.468 3.418 0.87 6.254 1.718 12.67 2.528 19.296 0.106 0.868 0.22 1.7 0.324 2.578 0.856 7.118 1.658 14.54 2.42 22.156 0.132 1.334 0.272 2.636 0.402 3.984 0.728 7.566 1.396 15.442 2.008 23.568a1173.892 1173.892 0 0 1 1.906 30.504c0.076 1.546 0.146 3.128 0.218 4.694 0.428 9.27 0.784 18.848 1.03 28.878 0.03 1.2 0.044 2.456 0.07 3.668 0.234 10.692 0.386 21.732 0.386 33.368v3.608l0.002 0.424a723.74 723.74 0 0 0 0.024 8.748c0.012 1.2 0.062 2.456 0.086 3.7 0.046 2.364 0.112 4.738 0.226 7.22 0.062 1.328 0.168 2.67 0.254 4.03z"  horiz-adv-x="1024" />

    
    <glyph glyph-name="light_bulb" unicode="&#59140;" d="M474.584615 842.830769A317.046154 317.046154 0 0 1 191.015385 561.230769a313.107692 313.107692 0 0 1 114.215384-267.815384 96.492308 96.492308 0 0 0 37.415385-76.8 78.769231 78.769231 0 0 1 80.738461-78.769231h177.23077a78.769231 78.769231 0 0 1 78.76923 78.769231 96.492308 96.492308 0 0 0 37.415385 76.8 313.107692 313.107692 0 0 1 116.184615 240.246153C834.953846 716.8 669.538462 862.523077 474.584615 842.830769zM649.846154 45.292308H374.153846a31.507692 31.507692 0 0 1-31.507692-29.538462 92.553846 92.553846 0 0 1 92.553846-92.553846h153.6a92.553846 92.553846 0 0 1 92.553846 92.553846 31.507692 31.507692 0 0 1-31.507692 29.538462z"  horiz-adv-x="1024" />

    
    <glyph glyph-name="video_on" unicode="&#59013;" d="M873.770667 581.077333c19.797333 12.202667 37.632 2.048 37.632-18.304v-335.232c0-24.362667-15.872-32.512-37.632-18.261333l-112.938667 67.029333c-19.797333 12.202667-37.632 26.453333-37.632 46.72V471.381333c0 18.261333 17.834667 30.464 37.632 42.666667l112.938667 67.029333zM207.232 608h391.936c43.562667 0 79.232-32 79.232-71.125333v-305.749334c0-39.125333-35.669333-71.125333-79.232-71.125333H207.232C163.669333 160 128 192 128 231.125333V536.874667C128 576 163.669333 608 207.232 608z"  horiz-adv-x="1024" />

    
    <glyph glyph-name="gongzuolujing" unicode="&#59010;" d="M113.777778 241.777778c-79.644444 125.155556-28.444444 170.666667 51.2 227.555555l-5.688889-68.266666h22.755555l5.688889 113.777777h-113.777777v-22.755555l79.644444-5.688889c-79.644444-56.888889-147.911111-113.777778-56.888889-250.311111-56.888889-5.688889-96.711111-45.511111-96.711111-96.711111 0-56.888889 51.2-102.4 108.088889-102.4s108.088889 45.511111 108.088889 102.4c0 51.2-45.511111 96.711111-102.4 102.4zM534.755556 105.244444c-45.511111 62.577778-147.911111 187.733333-119.466667 295.822223 17.066667 39.822222 56.888889 68.266667 91.022222 96.711111 51.2 39.822222 96.711111 73.955556 85.333333 147.911111l51.2-45.511111 11.377778 17.066666-79.644444 68.266667L512 605.866667l17.066667-17.066667 45.511111 56.888889c11.377778-56.888889-28.444444-91.022222-79.644445-130.844445-39.822222-28.444444-79.644444-56.888889-91.022222-108.088888-34.133333-113.777778 56.888889-233.244444 113.777778-301.511112-51.2-5.688889-85.333333-45.511111-85.333333-102.4s39.822222-102.4 96.711111-102.4c51.2 0 96.711111 45.511111 96.711111 102.4-11.377778 51.2-45.511111 91.022222-91.022222 102.4zM910.222222 241.777778c68.266667 119.466667-28.444444 233.244444-108.088889 329.955555-11.377778 11.377778-22.755556 28.444444-34.133333 39.822223l68.266667-22.755556 5.688889 22.755556-102.4 34.133333-34.133334-108.088889 22.755556-5.688889 22.755555 68.266667c11.377778-17.066667 22.755556-28.444444 39.822223-45.511111 79.644444-96.711111 176.355556-210.488889 96.711111-318.577778-45.511111-11.377778-85.333333-51.2-85.333334-102.4 0-56.888889 45.511111-102.4 102.4-102.4s102.4 45.511111 102.4 102.4-45.511111 102.4-96.711111 108.088889zM728.177778 429.511111l-51.2-51.2-45.511111 51.2-17.066667-17.066667 45.511111-51.2-45.511111-45.511111 17.066667-17.066666 45.511111 45.511111 51.2-45.511111 17.066666 17.066666-51.2 45.511111 51.2 51.2zM335.644444 691.2l-51.2-51.2-51.2 51.2-17.066666-17.066667 51.2-51.2-51.2-45.511111 17.066666-17.066666 51.2 45.511111 51.2-45.511111 17.066667 17.066666-51.2 45.511111 51.2 51.2zM540.444444 736.711111l51.2 45.511111 45.511112-45.511111 17.066666 17.066667-45.511111 45.511111 45.511111 51.2-17.066666 17.066667-45.511112-51.2-51.2 51.2-17.066666-17.066667 51.2-51.2-51.2-45.511111z"  horiz-adv-x="1024" />

    
    <glyph glyph-name="dangqianweizhi" unicode="&#59011;" d="M500.622222 896C301.511111 896 142.222222 736.711111 136.533333 537.6 136.533333 270.222222 500.622222-128 500.622222-128s358.4 398.222222 358.4 665.6C853.333333 736.711111 694.044444 896 500.622222 896z m0-489.244444c-68.266667 0-125.155556 56.888889-125.155555 125.155555s56.888889 125.155556 125.155555 125.155556S625.777778 605.866667 625.777778 537.6c0-34.133333-11.377778-68.266667-39.822222-91.022222-22.755556-22.755556-56.888889-39.822222-85.333334-39.822222z"  horiz-adv-x="1024" />

    
    <glyph glyph-name="xinguan" unicode="&#59012;" d="M581.337837 726.137036c-113.676503 112.848132-297.310175 112.178163-410.160904-1.49834s-112.178163-297.312772 1.498341-410.160904c100.939313-100.204425 259.646524-112.424857 374.735674-28.857981 12.030867 8.862799 23.370992 18.62668 33.924292 29.208546 5.359747 5.359747 10.387107 10.823366 15.289822 16.453178s9.493816 11.467367 13.981047 17.574985c83.634392 116.047361 71.263347 275.520621-29.268272 377.280516z m-4.258714-352.850039c-1.017937-1.391872-2.077421-2.659099-3.199229-4.009423a255.528036 255.528036 0 0 0-51.000697-50.169729c-99.511086-71.65546-236.205419-61.052821-323.475299 25.095251-97.355761 97.355761-97.355761 255.203439 0 352.5592s255.203439 97.355761 352.559199 0a252.978001 252.978001 0 0 0 45.703273-63.797614c42.021043-83.642182 34.08789-183.703785-20.587247-259.677685zM994.508405 48.52889a104.889011 104.889011 0 0 1-1.861889 1.861889l-220.352096 220.372871a21.376667 21.376667 0 0 1-29.37474 0l-14.68737-14.708144-48.071533 48.071533c119.849042 168.694415 80.250792 402.601686-88.443623 522.450729C423.02274 946.42681 189.115468 906.828559 69.266426 738.136742S-10.984366 335.535055 157.710049 215.686013c130.075149-92.411498 304.401973-92.307627 434.368057 0.257081l48.029985-48.00921-14.68737-14.68737a20.774215 20.774215 0 0 1 0-29.37474l220.331322-220.352097c40.044896-41.078413 105.805673-41.917172 146.884086-1.872276s41.914575 105.805673 1.872276 146.881489z m-398.192359 223.359165a374.468206 374.468206 0 0 0-14.853564-12.464529l-0.24929-0.186968c-132.277216-104.190478-321.590039-92.92566-440.579548 26.217059-129.823262 129.786907-129.854423 340.242687-0.067516 470.065949s340.242687 129.851826 470.065949 0.064919c119.168687-119.134928 130.334827-308.595768 25.983349-440.904145a313.576386 313.576386 0 0 0-25.92622-29.22932 321.93541 321.93541 0 0 0-14.37316-13.562965z m28.668416-30.060289c5.131231 4.611876 10.179365 9.389945 15.08208 14.313434s9.701558 9.950849 14.29266 15.08208l44.477594-44.477594-29.37474-29.37474-44.477594 44.45682z m350.336359-291.586879l-203.005627 203.005627a20.774215 20.774215 0 0 1-29.37474-0.508969 20.774215 20.774215 0 0 1 0-28.865771l202.777111-202.777111a63.94563 63.94563 0 0 0-70.590782 11.77898l-205.664727 205.664727 88.165768 88.144993 205.664727-205.664727a61.60074 61.60074 0 0 0 12.02827-70.777749zM376.400208 520.461922c-24.137041 24.539541-63.595065 24.864138-88.134606 0.727097-0.2415-0.236307-0.480404-0.47521-0.716711-0.71671l-58.749479-58.749479c-24.539541-24.137041-24.864138-63.595065-0.727098-88.134607s63.595065-24.864138 88.134607-0.727097c0.2415 0.236307 0.480404 0.47521 0.71671 0.71671l58.749479 58.74948c24.536944 24.137041 24.864138 63.595065 0.727098 88.134606z m-30.101837-58.739092l-58.791028-58.770254a21.187102 21.187102 0 0 0-29.353966 0 20.774215 20.774215 0 0 0-0.01558 29.379933l0.01558 0.015581 58.74948 58.749479a20.776812 20.776812 0 1 0 29.395514-29.374739zM554.518326 575.233139h-0.020774c-24.658993 23.537185-63.465226 23.537185-88.12422 0-24.336993-24.339589-24.334396-63.80021 0.007791-88.137203 24.339589-24.336993 63.80021-24.331799 88.137203 0.007791 24.331799 24.336993 24.331799 63.789823 0 88.129412z m-29.416288-58.749479a21.207877 21.207877 0 0 0-29.37474 0 20.774215 20.774215 0 1 0 29.37474 29.37474 20.774215 20.774215 0 0 0 0-29.37474zM364.995164 718.138963a20.774215 20.774215 0 0 1-20.774215-20.774215v-83.096859a20.774215 20.774215 0 0 1 41.54843 0v83.096859a20.774215 20.774215 0 0 1-20.774215 20.774215z"  horiz-adv-x="1024" />

    
    <glyph glyph-name="jinrigongzuo" unicode="&#59009;" d="M401.066667 833.422222c-79.644444-17.066667-150.755556-2.844444-187.733334 8.533334v19.911111H85.333333V-128h128V349.866667c142.222222-14.222222 261.688889 11.377778 392.533334 51.2 153.6 48.355556 312.888889 5.688889 327.111111-2.844445V876.088889c-190.577778 51.2-415.288889-17.066667-531.911111-42.666667z"  horiz-adv-x="1024" />

    
    <glyph glyph-name="shishibobao" unicode="&#59003;" d="M512-19.911111c-221.866667 0-403.911111 182.044444-403.911111 403.911111S290.133333 787.911111 512 787.911111 915.911111 605.866667 915.911111 384 733.866667-19.911111 512-19.911111M512 896C227.555556 896 0 668.444444 0 384s227.555556-512 512-512 512 227.555556 512 512S796.444444 896 512 896M779.377778 401.066667h-227.555556V676.977778c0 22.755556-19.911111 39.822222-39.822222 39.822222-22.755556 0-39.822222-19.911111-39.822222-39.822222v-318.577778c0-22.755556 19.911111-39.822222 39.822222-39.822222h273.066667c22.755556 0 39.822222 19.911111 39.822222 39.822222s-22.755556 42.666667-45.511111 42.666667"  horiz-adv-x="1024" />

    
    <glyph glyph-name="yanjieshangpu" unicode="&#59004;" d="M1064.96 563.52768c0 4.096 0 8.192-4.096 12.288L901.12 878.91968c-4.096 8.192-12.288 16.384-20.48 16.384h-696.32c-8.192 0-16.384-8.192-24.576-16.384l-155.648-299.008c-4.096-8.192-4.096-12.288-4.096-16.384 0-65.536 36.864-126.976 90.112-151.552v-495.616c0-16.384 12.288-28.672 24.576-28.672h823.296c16.384 0 24.576 12.288 24.576 28.672v491.52 4.096c61.44 24.576 102.4 86.016 102.4 151.552z m-143.36-618.496H491.52v303.104c0 53.248-40.96 98.304-90.112 98.304H323.584c-49.152 0-90.112-45.056-90.112-98.304v-303.104H143.36v454.656h8.192c53.248 0 98.304 28.672 126.976 73.728 28.672-45.056 73.728-73.728 126.976-73.728s98.304 28.672 126.976 73.728c28.672-45.056 73.728-73.728 126.976-73.728s98.304 28.672 126.976 73.728c28.672-45.056 73.728-73.728 126.976-73.728h8.192v-454.656zM774.144 149.83168c0-12.288-8.192-20.48-20.48-20.48h-143.36c-12.288 0-20.48 8.192-20.48 20.48v118.784c0 12.288 8.192 20.48 20.48 20.48h143.36c12.288 0 20.48-8.192 20.48-20.48v-118.784z"  horiz-adv-x="1064" />

    
    <glyph glyph-name="bangonglouyu" unicode="&#59005;" d="M319.015385 269.784615l-39.384616 567.138462c0 15.753846-15.753846 27.569231-31.507692 27.569231H133.907692c-15.753846 0-27.569231-11.815385-27.56923-27.569231L63.015385 179.2h-39.384616c-11.815385 0-23.630769-11.815385-23.630769-23.630769v-252.061539c0-11.815385 11.815385-23.630769 23.630769-23.630769h43.323077v11.815385c3.938462 106.338462 47.261538 208.738462 122.092308 287.507692 35.446154 35.446154 78.769231 66.953846 129.969231 90.584615M598.646154 293.415385V423.384615c0 35.446154-23.630769 66.953846-59.076923 70.892308-3.938462 0-3.938462 0 0 0 19.692308 31.507692 11.815385 74.830769-19.692308 98.461539-31.507692 19.692308-74.830769 11.815385-98.461538-19.692308-15.753846-23.630769-15.753846-55.138462 0-78.769231-35.446154-7.876923-59.076923-35.446154-59.076923-70.892308v-137.846153c43.323077 15.753846 86.646154 23.630769 133.907692 23.630769 31.507692 0 66.953846-3.938462 102.4-15.753846M803.446154 324.923077c-15.753846 0-27.569231 11.815385-27.569231 27.569231v59.076923c0 15.753846 11.815385 27.569231 27.569231 27.569231h59.076923c15.753846 0 27.569231-11.815385 27.569231-27.569231v-59.076923c0-15.753846-11.815385-27.569231-27.569231-27.569231h-59.076923z m-27.569231 271.753846c0 11.815385 11.815385 23.630769 23.630769 23.630769h59.076923c15.753846 0 27.569231-11.815385 27.569231-27.56923v-59.076924c0-15.753846-11.815385-27.569231-27.569231-27.56923h-59.076923c-15.753846 0-27.569231 11.815385-27.56923 27.56923l3.938461 63.015385z m-23.630769 161.476923c-47.261538 0-86.646154-39.384615-86.646154-86.646154v-401.723077c74.830769-35.446154 137.846154-86.646154 185.107692-157.538461 43.323077-66.953846 66.953846-141.784615 70.892308-224.492308v-11.815384h47.261538c11.815385 0 23.630769 11.815385 23.63077 23.630769V675.446154c0 43.323077-35.446154 82.707692-82.707693 82.707692h-157.538461zM543.507692-29.538462c0-15.753846-11.815385-23.630769-23.630769-23.630769h-59.076923c-15.753846 0-23.630769 11.815385-27.569231 23.630769v153.6c0 15.753846 11.815385 23.630769 27.569231 23.63077h59.076923c15.753846 0 23.630769-11.815385 23.630769-23.63077v-153.6z m-51.2 259.938462c-196.923077 0-358.4-157.538462-362.338461-354.461538h724.676923c-7.876923 196.923077-165.415385 354.461538-362.338462 354.461538z"  horiz-adv-x="1024" />

    
    <glyph glyph-name="juminxiaoqu" unicode="&#59006;" d="M393.846154 474.584615c15.753846 0 31.507692 11.815385 31.507692 31.507693s-15.753846 27.569231-31.507692 27.56923-31.507692-11.815385-31.507692-31.507692 11.815385-27.569231 31.507692-27.569231M421.415385 143.753846v-90.584615H362.338462v90.584615c0 15.753846 11.815385 31.507692 31.507692 31.507692s27.569231-15.753846 27.569231-31.507692zM393.846154 592.738462c51.2 0 90.584615-39.384615 90.584615-90.584616s-39.384615-90.584615-90.584615-90.584615-90.584615 39.384615-90.584616 90.584615 39.384615 90.584615 90.584616 90.584616z m330.830769-539.569231h59.076923v118.153846h-59.076923v-118.153846z m59.076923 539.569231c0 11.815385 0 31.507692 3.938462 51.2l55.138461-35.446154v-74.83077c-47.261538 3.938462-59.076923 19.692308-59.076923 59.076924z m31.507692 157.538461c7.876923 23.630769 19.692308 43.323077 27.569231 55.138462v-126.03077l-39.384615 27.569231c3.938462 15.753846 7.876923 27.569231 11.815384 43.323077zM905.846154 608.492308l55.138461 35.446154c3.938462-19.692308 3.938462-39.384615 3.938462-51.2 0-43.323077-11.815385-55.138462-59.076923-59.076924V608.492308z m0 196.923077c7.876923-11.815385 15.753846-31.507692 27.569231-55.138462 3.938462-15.753846 11.815385-27.569231 15.753846-43.323077l-39.384616-27.569231V805.415385z m86.646154-752.246154h-31.507693v181.169231h31.507693c11.815385 0 23.630769 7.876923 27.56923 19.692307 3.938462 11.815385 0 27.569231-11.815384 35.446154l-102.4 78.769231v106.338461c78.769231 3.938462 118.153846 39.384615 118.153846 118.153847 0 47.261538-15.753846 118.153846-35.446154 177.230769-31.507692 82.707692-70.892308 126.030769-114.215384 126.030769s-82.707692-43.323077-114.215385-126.030769c-23.630769-59.076923-35.446154-129.969231-35.446154-177.230769 0-78.769231 43.323077-114.215385 118.153846-118.153847v-59.076923l-70.892307 55.138462c-11.815385 7.876923-23.630769 7.876923-35.446154 0l-133.907693-98.461539V553.353846l11.815385-11.815384c11.815385-11.815385 31.507692-11.815385 43.323077 0 11.815385 11.815385 11.815385 31.507692 0 43.323076l-240.246154 240.246154c-11.815385 11.815385-31.507692 11.815385-43.323077 0L129.969231 584.861538c-11.815385-11.815385-11.815385-31.507692 0-43.323076 11.815385-11.815385 31.507692-11.815385 43.323077 0l7.876923 7.876923V462.769231L19.692308 407.630769c-11.815385 0-19.692308-11.815385-19.692308-23.630769v-480.492308c0-19.692308 11.815385-31.507692 31.507692-31.507692h964.923077c15.753846 0 31.507692 11.815385 31.507693 31.507692v122.092308c-3.938462 15.753846-15.753846 27.569231-35.446154 27.569231z"  horiz-adv-x="1027" />

    
    <glyph glyph-name="jianshegongdi" unicode="&#59007;" d="M945.230769 777.846154l47.261539 31.507692V777.846154H945.230769z m-90.584615-35.446154h-137.846154v15.753846h86.646154c7.876923 0 15.753846 7.876923 15.753846 15.753846V860.553846h35.446154v-118.153846zM905.846154-41.353846c7.876923 0 15.753846-7.876923 15.753846-15.753846s-7.876923-15.753846-15.753846-15.753846-15.753846 7.876923-15.753846 15.753846c-3.938462 7.876923 3.938462 15.753846 15.753846 15.753846z m31.507692 66.953846c7.876923 0 15.753846-7.876923 15.753846-15.753846s-7.876923-15.753846-15.753846-15.753846-15.753846 7.876923-15.753846 15.753846 7.876923 15.753846 15.753846 15.753846z m35.446154-102.4c-7.876923 0-15.753846 7.876923-15.753846 15.753846s7.876923 15.753846 15.753846 15.753846 15.753846-7.876923 15.753846-15.753846-7.876923-15.753846-15.753846-15.753846z m-204.8 27.569231l31.507692-47.261539h-31.507692V-49.230769z m-512-43.323077V423.384615h102.4v-59.076923c0-7.876923 7.876923-15.753846 15.753846-15.753846h63.015385l63.015384-63.015384c3.938462-3.938462 7.876923-3.938462 11.815385-3.938462h118.153846v-374.153846H256zM102.4-49.230769l43.323077-43.323077H59.076923L102.4-49.230769z m153.6 508.061538h102.4v27.569231H256v-27.569231z m240.246154 27.569231v-145.723077l-39.384616 39.384615c-3.938462 3.938462-7.876923 3.938462-11.815384 3.938462H393.846154v102.4h102.4z m31.507692-169.353846H630.153846v169.353846h-102.4v-169.353846z m240.246154 362.338461v27.569231h19.692308l-19.692308-27.569231z m3.938462-55.138461l31.507692 47.261538V580.923077l-31.507692 43.323077z m31.507692-456.861539l-31.507692 47.261539 31.507692 47.261538v-94.523077z m-35.446154-11.815384l31.507692-47.261539-31.507692-47.261538v94.523077z m0 319.015384V565.169231l31.507692-47.261539-31.507692-43.323077z m0-114.215384l31.507692-47.261539-31.507692-47.261538v94.523077z m35.446154 11.815384l-31.507692 47.261539 31.507692 47.261538v-94.523077z m0-409.6l-31.507692 47.261539 31.507692 47.261538v-94.523077zM618.338462 777.846154l51.2 31.507692h11.815384V777.846154h-63.015384zM35.446154 809.353846h11.815384l51.2-31.507692H35.446154v31.507692z m480.492308 0h90.584615l-47.261539-31.507692-43.323076 31.507692z m-55.138462-3.938461l47.261538-27.569231h-90.584615l43.323077 27.569231z m-149.661538 3.938461h90.584615l-43.323077-27.569231-47.261538 27.569231z m-157.538462-27.569231l-47.261538 27.569231H196.923077l-43.323077-27.569231z m102.4 23.63077l47.261538-27.569231H208.738462l47.261538 27.569231z m460.8-11.815385h66.953846V860.553846h-66.953846v-66.953846z m216.615385 15.753846l-47.261539-31.507692v31.507692h47.261539z m-795.569231-590.769231l-23.630769-23.630769H59.076923l-23.630769 23.630769V265.846154h102.4v-47.261539z m-43.323077 114.215385l23.630769-35.446154H51.2l23.630769 35.446154h19.692308z m913.723077 512h-118.153846V880.246154c0 7.876923-7.876923 15.753846-15.753846 15.753846h-169.353847c-7.876923 0-15.753846-7.876923-15.753846-15.753846v-35.446154H15.753846c-7.876923 0-15.753846-7.876923-15.753846-15.753846v-66.953846c0-7.876923 7.876923-15.753846 15.753846-15.753846h51.2V423.384615c0-7.876923 7.876923-15.753846 15.753846-15.753846s15.753846-7.876923 15.753846-15.753846-7.876923-15.753846-15.753846-15.753846-15.753846 7.876923-15.753846 15.753846H35.446154c0-11.815385 3.938462-23.630769 11.815384-35.446154L3.938462 297.353846c-3.938462-7.876923-3.938462-11.815385-3.938462-15.753846v-66.953846c0-3.938462 0-7.876923 3.938462-11.815385l35.446153-35.446154c3.938462-3.938462 7.876923-3.938462 11.815385-3.938461H118.153846c3.938462 0 7.876923 0 11.815385 3.938461l35.446154 35.446154c3.938462 3.938462 3.938462 7.876923 3.938461 11.815385v66.953846c0 3.938462 0 7.876923-3.938461 11.815385l-43.323077 59.076923c11.815385 11.815385 15.753846 31.507692 11.815384 47.261538-3.938462 15.753846-15.753846 31.507692-31.507692 35.446154V742.4h578.953846v-15.753846c0-7.876923 7.876923-15.753846 15.753846-15.753846h35.446154v-803.446154h-66.953846V588.8H630.153846v-66.953846h-102.4v31.507692h-35.446154v-35.446154H393.846154v19.692308h-35.446154v-15.753846H256V573.046154h220.553846v31.507692H256V675.446154h-35.446154v-768h-27.569231l-78.76923 78.769231c-7.876923 7.876923-15.753846 7.876923-23.63077 0l-78.76923-78.769231H0v-35.446154h1024v35.446154h-11.815385c11.815385 11.815385 15.753846 31.507692 11.815385 47.261538-3.938462 15.753846-19.692308 31.507692-35.446154 35.446154 7.876923 19.692308 3.938462 47.261538-15.753846 59.076923-19.692308 15.753846-43.323077 15.753846-63.015385 0s-23.630769-39.384615-15.753846-59.076923c-15.753846-3.938462-31.507692-15.753846-35.446154-35.446154-3.938462-15.753846 0-35.446154 11.815385-47.261538h-31.507692V706.953846h35.446154c7.876923 0 15.753846 7.876923 15.753846 15.753846v19.692308h118.153846c7.876923 0 15.753846 7.876923 15.753846 15.753846V829.046154c0 7.876923-7.876923 15.753846-15.753846 15.753846z"  horiz-adv-x="1025" />

    
    <glyph glyph-name="yiqingfazhan" unicode="&#59008;" d="M3.011765 380.988235h174.682353v-490.917647H3.011765zM906.541176 871.905882h174.682353v-981.835294h-174.682353zM228.894118 489.411765h174.682353v-602.352941H228.894118zM454.776471 697.223529h174.682353v-807.152941h-174.682353zM680.658824 600.847059h174.682352v-710.776471h-174.682352z"  horiz-adv-x="1084" />

    
    <glyph glyph-name="zhengwuweixin" unicode="&#58905;" d="M854.442667 81.45066699999995l-74.453334 54.954666-74.453333-54.954666 29.269333 87.808-75.264 53.76 92.544-0.682667 27.904 88.234667 27.904-88.234667 92.544 0.725333-75.264-53.802666 29.269334-87.808z m-74.453334 310.570666a196.010667 196.010667 0 1 1 0-392.064 196.010667 196.010667 0 0 1 0 392.064zM540.117333 150.784a376.746667 376.746667 0 0 0-212.906666 6.997333 31.914667 31.914667 0 0 1-25.173334-2.133333l-80.64-43.264 7.253334 77.098667a32 32 0 0 1-11.733334 27.861333C146.858667 274.09066700000005 106.666667 354.218667 106.666667 437.333333c0 164.693333 151.893333 298.666667 338.688 298.666667 185.685333 0 336.853333-132.565333 338.474666-295.978667a243.626667 243.626667 0 0 0 63.786667-9.514666c0 2.304 0.384 4.522667 0.384 6.826666 0 199.978667-180.608 362.666667-402.645333 362.666667C223.274667 800 42.666667 637.312 42.666667 437.333333c0-97.109333 43.776-190.378667 120.704-258.474666l-11.221334-119.850667a32.085333 32.085333 0 0 1 46.933334-31.232l121.344 65.109333a438.016 438.016 0 0 1 239.786666-2.986666 241.92 241.92 0 0 0-20.096 60.885333"  horiz-adv-x="1024" />

    
    <glyph glyph-name="earth" unicode="&#58933;" d="M605.866667 34.133333c-2.844444 8.533333-8.533333 14.222222-25.6 8.533334 11.377778 51.2 17.066667 79.644444 42.666666 102.4 36.977778 31.288889 5.688889 65.422222-22.755555 62.577777-22.755556-2.844444-8.533333 28.444444-28.444445 28.444445-19.911111 2.844444-45.511111 39.822222-73.955555 54.044444-14.222222 5.688889-28.444444 25.6-51.2 25.6-19.911111 0-51.2-17.066667-51.2-2.844444 0 45.511111-5.688889 76.8-5.688889 88.177778 0 11.377778-5.688889 2.844444 19.911111 2.844444 14.222222 0 8.533333 31.288889 22.755556 31.288889s48.355556-14.222222 56.888888-8.533333c8.533333 5.688889 59.733333-136.533333 59.733334-22.755556 0 14.222222-5.688889 36.977778 0 48.355556 28.444444 51.2 54.044444 91.022222 51.2 96.711111 0 2.844444-28.444444 5.688889-48.355556 0-8.533333-2.844444 2.844444-14.222222-8.533333-17.066667-39.822222-8.533333-73.955556 11.377778-62.577778 28.444445 11.377778 19.911111 56.888889 8.533333 59.733333 45.511111 2.844444 22.755556 2.844444 45.511111 5.688889 65.422222 56.888889-2.844444 51.2 73.955556-25.6 82.488889 159.288889-2.844444 292.977778-105.244444 341.333334-244.622222-2.844444 2.844444-5.688889 2.844444-8.533334 2.844444-22.755556 59.733333-79.644444 17.066667-62.577777-36.977778-105.244444-79.644444-76.8-136.533333-42.666667-167.822222 17.066667-17.066667 34.133333-42.666667 45.511111-59.733333-11.377778-34.133333 45.511111-19.911111 73.955556 39.822222-36.977778-125.155556-136.533333-221.866667-261.688889-253.155556m-455.111111 352.711111c0 25.6 2.844444 51.2 8.533333 73.955556 17.066667-17.066667 54.044444-17.066667 62.577778 8.533333 17.066667-8.533333 36.977778-11.377778 36.977777-31.288889 0-62.577778 2.844444-133.688889 59.733334-133.688888 2.844444 0 31.288889-11.377778 48.355555-48.355556 5.688889-14.222222 25.6 0 48.355556 0 11.377778 0 0-17.066667 0-59.733333 0-39.822222 85.333333-99.555556 85.333333-99.555556 0-25.6 0-48.355556 2.844445-65.422222-19.911111 0-36.977778-2.844444-48.355556-5.688889-173.511111 31.288889-304.355556 182.044444-304.355555 361.244444m731.022222-5.688888c0 19.911111-2.844444 42.666667-8.533334 62.577777v19.911111c5.688889-25.6 8.533333-51.2 8.533334-76.8v-5.688888m59.733333 5.688888c0 236.088889-190.577778 426.666667-426.666667 426.666667s-426.666667-190.577778-426.666666-426.666667c0-216.177778 162.133333-398.222222 372.622222-423.822222 11.377778-2.844444 25.6-2.844444 42.666667-2.844444h14.222222c236.088889 2.844444 423.822222 193.422222 423.822222 426.666666"  horiz-adv-x="1024" />

    
    <glyph glyph-name="arrow-top" unicode="&#58881;" d="M883.674074 148.859259c-15.17037 0-34.133333 7.585185-45.511111 18.962963L538.548148 478.814815 227.555556 179.2c-26.548148-22.755556-64.474074-22.755556-91.022223 0-22.755556 26.548148-22.755556 64.474074 0 91.022222L493.037037 615.348148c26.548148 22.755556 64.474074 22.755556 91.022222 0l345.125926-356.503704c22.755556-26.548148 22.755556-64.474074 0-91.022222-11.377778-11.377778-30.340741-18.962963-45.511111-18.962963z"  horiz-adv-x="1024" />

    
    <glyph glyph-name="sort" unicode="&#59229;" d="M695.04 286.293333L512 102.826667l-183.04 183.466666a42.666667 42.666667 0 0 1-60.586667-60.586666l213.333334-213.333334a42.666667 42.666667 0 0 1 60.586666 0l213.333334 213.333334a42.666667 42.666667 0 0 1-60.586667 60.586666zM328.96 481.706667L512 665.173333l183.04-183.466666a42.666667 42.666667 0 0 1 60.586667 0 42.666667 42.666667 0 0 1 0 60.586666l-213.333334 213.333334a42.666667 42.666667 0 0 1-60.586666 0l-213.333334-213.333334a42.666667 42.666667 0 0 1 60.586667-60.586666z"  horiz-adv-x="1024" />

    
    <glyph glyph-name="arrow-bottom" unicode="&#58889;" d="M182.044444 630.518519c15.17037 0 34.133333-7.585185 45.511112-18.962963l299.614814-310.992593 310.992593 299.614815c26.548148 22.755556 64.474074 22.755556 91.022222 0 22.755556-26.548148 22.755556-64.474074 0-91.022222l-356.503704-345.125926c-26.548148-22.755556-64.474074-22.755556-91.022222 0L136.533333 520.533333c-22.755556 26.548148-22.755556 64.474074 0 91.022223 11.377778 11.377778 30.340741 18.962963 45.511111 18.962963z"  horiz-adv-x="1024" />

    
    <glyph glyph-name="gaofawangge" unicode="&#59001;" d="M1020.061538 896v-1020.061538H0V896h1020.061538zM445.046154 317.046154H102.4v-342.646154h342.646154v342.646154z m476.553846 0h-342.646154v-342.646154h342.646154v342.646154zM445.046154 793.6H102.4v-342.646154h342.646154V793.6z m476.553846 0h-342.646154v-342.646154h342.646154V793.6z"  horiz-adv-x="1024" />

    
    <glyph glyph-name="redianwenti" unicode="&#59002;" d="M256 447.015385c-27.569231 0-27.569231-43.323077 0-43.323077h311.138462c27.569231 0 27.569231 43.323077 0 43.323077H256zM567.138462 348.553846H256c-27.569231 0-27.569231-43.323077 0-43.323077h311.138462c23.630769 0 23.630769 43.323077 0 43.323077zM567.138462 254.030769H256c-27.569231 0-27.569231-43.323077 0-43.323077h311.138462c23.630769 3.938462 23.630769 43.323077 0 43.323077zM567.138462 155.569231H256c-27.569231 0-27.569231-43.323077 0-43.323077h311.138462c23.630769 0 23.630769 43.323077 0 43.323077zM559.261538 61.046154H248.123077c-27.569231 0-27.569231-43.323077 0-43.323077h311.138461c27.569231 3.938462 27.569231 43.323077 0 43.323077zM122.092308 659.692308v-783.753846h578.953846V553.353846L594.707692 659.692308H122.092308z m527.753846-728.615385H173.292308V608.492308h393.846154v-82.707693h82.707692v-594.707692zM220.553846 781.784615v-90.584615h51.2v35.446154h393.846154v-82.707692H748.307692v-594.707693h-19.692307v-51.2h70.892307V671.507692l-106.338461 110.276923zM795.569231 888.123077h-472.615385v-90.584615h51.2v39.384615h393.846154v-82.707692h82.707692v-594.707693h-19.692307V108.307692h70.892307V781.784615z"  horiz-adv-x="1024" />

    
    <glyph glyph-name="anjiantubiao" unicode="&#58999;" d="M1299.692308 725.346462H689.230769L539.963077 873.156923A78.769231 78.769231 0 0 1 484.509538 896H78.769231a78.769231 78.769231 0 0 1-78.769231-78.769231v-866.461538a78.769231 78.769231 0 0 1 78.769231-78.769231h1220.923077a78.769231 78.769231 0 0 1 78.76923 78.769231V646.577231a78.769231 78.769231 0 0 1-78.76923 78.769231z"  horiz-adv-x="1378" />

    
    <glyph glyph-name="zidonghuapaidan" unicode="&#59000;" d="M1024-103.620923V871.581538A24.379077 24.379077 0 0 1 999.620923 896H24.418462A24.379077 24.379077 0 0 1 0 871.620923V-103.581538c0-13.469538 10.909538-24.379077 24.379077-24.379077H999.581538a24.379077 24.379077 0 0 1 24.379077 24.379077zM91.372308 804.627692H512v-78.532923h89.678769c11.618462 0 22.646154-3.662769 31.980308-10.555077 9.334154-6.892308 16.029538-16.423385 19.416615-27.529846l180.105846-591.241846c5.041231-16.462769 2.008615-33.870769-8.231384-47.655385-10.24-13.824-25.993846-21.740308-43.165539-21.740307h-128.669538A53.956923 53.956923 0 0 0 600.772923 68.923077l-21.740308 93.814154H512v-199.404308H91.372308V804.627692zM786.668308 98.619077l-181.563077 584.152615a23.394462 23.394462 0 0 1-22.449231 16.305231h-180.736a23.394462 23.394462 0 0 1-22.449231-16.305231L197.947077 98.619077a23.079385 23.079385 0 0 1 22.449231-29.696H350.129231a23.355077 23.355077 0 0 1 22.843077 17.801846l27.451077 115.987692h183.847384l27.451077-115.987692a23.394462 23.394462 0 0 1 22.843077-17.801846h129.693539c15.753846 0 27.017846 14.966154 22.44923 29.696zM492.307692 331.657846h-61.282461l10.870154 43.598769c15.832615 60.140308 31.665231 136.704 47.458461 199.719385h5.868308c15.832615-63.015385 31.665231-139.579077 47.497846-199.68l10.870154-43.638154H492.307692z"  horiz-adv-x="1024" />

    
    <glyph glyph-name="shangsheng" unicode="&#58880;" d="M752.64 519.6800000000001L546.56 693.12c-19.2 16-50.56 16-69.76 0L270.72 519.6800000000001C240 493.44 261.76 448.64 305.28 448.64L384 448.64C384 448.64 384 448 384 448l0-320c0-35.2 28.8-64 64-64l128 0c35.2 0 64 28.8 64 64L640 448c0 0 0 0.64 0 0.64l78.08 0C761.6 448.64 783.36 493.44 752.64 519.6800000000001z"  horiz-adv-x="1024" />

    
    </font>
</defs>
</svg>
